<?xml version="1.0" encoding="us-ascii" standalone="no"?><svg xmlns="http://www.w3.org/2000/svg" xmlns:xlink="http://www.w3.org/1999/xlink" contentStyleType="text/css" height="839px" preserveAspectRatio="none" style="width:2376px;height:839px;background:#FFFFFF;" version="1.1" viewBox="0 0 2376 839" width="2376px" zoomAndPan="magnify"><defs/><g><rect fill="#FFFFFF" height="624.7422" style="stroke:#181818;stroke-width:1.0;" width="10" x="35.5" y="106.7539"/><rect fill="#FFFFFF" height="624.7422" style="stroke:#181818;stroke-width:1.0;" width="10" x="40.5" y="106.7539"/><rect fill="#FFFFFF" height="624.7422" style="stroke:#181818;stroke-width:1.0;" width="10" x="674.5" y="106.7539"/><rect fill="#FFFFFF" height="624.7422" style="stroke:#181818;stroke-width:1.0;" width="10" x="1449" y="106.7539"/><rect fill="#FFFFFF" height="624.7422" style="stroke:#181818;stroke-width:1.0;" width="10" x="1454" y="106.7539"/><rect fill="#FFFFFF" height="624.7422" style="stroke:#181818;stroke-width:1.0;" width="10" x="1459" y="106.7539"/><rect fill="#FFFFFF" height="624.7422" style="stroke:#181818;stroke-width:1.0;" width="10" x="1464" y="106.7539"/><rect fill="#FFFFFF" height="586.1211" style="stroke:#181818;stroke-width:1.0;" width="10" x="1469" y="145.375"/><rect fill="#FFFFFF" height="539.8105" style="stroke:#181818;stroke-width:1.0;" width="10" x="1560" y="174.6855"/><rect fill="#FFFFFF" height="347.9922" style="stroke:#181818;stroke-width:1.0;" width="10" x="1565" y="299.9277"/><rect fill="#FFFFFF" height="624.7422" style="stroke:#181818;stroke-width:1.0;" width="10" x="1747" y="106.7539"/><rect fill="#FFFFFF" height="460.8789" style="stroke:#181818;stroke-width:1.0;" width="10" x="1752" y="270.6172"/><rect fill="#FFFFFF" height="192.4844" style="stroke:#181818;stroke-width:1.0;" width="10" x="1883" y="395.8594"/><rect fill="#FFFFFF" height="87.9316" style="stroke:#181818;stroke-width:1.0;" width="10" x="2112" y="455.791"/><rect fill="#FFFFFF" height="29.3105" style="stroke:#181818;stroke-width:1.0;" width="10" x="2271" y="485.1016"/><rect fill="none" height="490.5" style="stroke:#000000;stroke-width:1.5;" width="1211" x="1128" y="231.9961"/><rect fill="none" height="298.6816" style="stroke:#000000;stroke-width:1.5;" width="1191" x="1138" y="357.2383"/><line style="stroke:#181818;stroke-width:0.5;stroke-dasharray:5.0,5.0;" x1="40" x2="40" y1="96.7539" y2="740.4961"/><line style="stroke:#181818;stroke-width:0.5;stroke-dasharray:5.0,5.0;" x1="137" x2="137" y1="96.7539" y2="740.4961"/><line style="stroke:#181818;stroke-width:0.5;stroke-dasharray:5.0,5.0;" x1="326.5" x2="326.5" y1="96.7539" y2="740.4961"/><line style="stroke:#181818;stroke-width:0.5;stroke-dasharray:5.0,5.0;" x1="469" x2="469" y1="96.7539" y2="740.4961"/><line style="stroke:#181818;stroke-width:0.5;stroke-dasharray:5.0,5.0;" x1="575" x2="575" y1="96.7539" y2="740.4961"/><line style="stroke:#181818;stroke-width:0.5;stroke-dasharray:5.0,5.0;" x1="679" x2="679" y1="96.7539" y2="740.4961"/><line style="stroke:#181818;stroke-width:0.5;stroke-dasharray:5.0,5.0;" x1="782" x2="782" y1="96.7539" y2="740.4961"/><line style="stroke:#181818;stroke-width:0.5;stroke-dasharray:5.0,5.0;" x1="966.5" x2="966.5" y1="96.7539" y2="740.4961"/><line style="stroke:#181818;stroke-width:0.5;stroke-dasharray:5.0,5.0;" x1="1095" x2="1095" y1="96.7539" y2="740.4961"/><line style="stroke:#181818;stroke-width:0.5;stroke-dasharray:5.0,5.0;" x1="1194" x2="1194" y1="96.7539" y2="740.4961"/><line style="stroke:#181818;stroke-width:0.5;stroke-dasharray:5.0,5.0;" x1="1454" x2="1454" y1="96.7539" y2="740.4961"/><line style="stroke:#181818;stroke-width:0.5;stroke-dasharray:5.0,5.0;" x1="1565" x2="1565" y1="96.7539" y2="740.4961"/><line style="stroke:#181818;stroke-width:0.5;stroke-dasharray:5.0,5.0;" x1="1752" x2="1752" y1="96.7539" y2="740.4961"/><line style="stroke:#181818;stroke-width:0.5;stroke-dasharray:5.0,5.0;" x1="1888" x2="1888" y1="96.7539" y2="740.4961"/><line style="stroke:#181818;stroke-width:0.5;stroke-dasharray:5.0,5.0;" x1="2117" x2="2117" y1="96.7539" y2="740.4961"/><line style="stroke:#181818;stroke-width:0.5;stroke-dasharray:5.0,5.0;" x1="2276" x2="2276" y1="96.7539" y2="740.4961"/><rect fill="#E2E2F0" height="46.9766" rx="2.5" ry="2.5" style="stroke:#181818;stroke-width:0.5;" width="71" x="5" y="48.7773"/><text fill="#000000" font-family="sans-serif" font-size="14" lengthAdjust="spacing" textLength="57" x="12" y="69.3125">&#171;router&#187;</text><text fill="#000000" font-family="sans-serif" font-size="14" lengthAdjust="spacing" textLength="35" x="23" y="85.8008">:auth</text><rect fill="#E2E2F0" height="46.9766" rx="2.5" ry="2.5" style="stroke:#181818;stroke-width:0.5;" width="71" x="5" y="739.4961"/><text fill="#000000" font-family="sans-serif" font-size="14" lengthAdjust="spacing" textLength="57" x="12" y="760.0313">&#171;router&#187;</text><text fill="#000000" font-family="sans-serif" font-size="14" lengthAdjust="spacing" textLength="35" x="23" y="776.5195">:auth</text><rect fill="#E2E2F0" height="46.9766" rx="2.5" ry="2.5" style="stroke:#181818;stroke-width:0.5;" width="102" x="86" y="48.7773"/><text fill="#000000" font-family="sans-serif" font-size="14" lengthAdjust="spacing" textLength="88" x="93" y="69.3125">&#171;controllers&#187;</text><text fill="#000000" font-family="sans-serif" font-size="14" lengthAdjust="spacing" textLength="35" x="119.5" y="85.8008">:auth</text><rect fill="#E2E2F0" height="46.9766" rx="2.5" ry="2.5" style="stroke:#181818;stroke-width:0.5;" width="102" x="86" y="739.4961"/><text fill="#000000" font-family="sans-serif" font-size="14" lengthAdjust="spacing" textLength="88" x="93" y="760.0313">&#171;controllers&#187;</text><text fill="#000000" font-family="sans-serif" font-size="14" lengthAdjust="spacing" textLength="35" x="119.5" y="776.5195">:auth</text><rect fill="#E2E2F0" height="46.9766" rx="2.5" ry="2.5" style="stroke:#181818;stroke-width:0.5;" width="71" x="291.5" y="48.7773"/><text fill="#000000" font-family="sans-serif" font-size="14" lengthAdjust="spacing" textLength="57" x="298.5" y="69.3125">&#171;model&#187;</text><text fill="#000000" font-family="sans-serif" font-size="14" lengthAdjust="spacing" textLength="35" x="309.5" y="85.8008">:User</text><rect fill="#E2E2F0" height="46.9766" rx="2.5" ry="2.5" style="stroke:#181818;stroke-width:0.5;" width="71" x="291.5" y="739.4961"/><text fill="#000000" font-family="sans-serif" font-size="14" lengthAdjust="spacing" textLength="57" x="298.5" y="760.0313">&#171;model&#187;</text><text fill="#000000" font-family="sans-serif" font-size="14" lengthAdjust="spacing" textLength="35" x="309.5" y="776.5195">:User</text><text fill="#000000" font-family="sans-serif" font-size="14" lengthAdjust="spacing" textLength="80" x="426" y="77.3125">&#171;MongoDB&#187;</text><text fill="#000000" font-family="sans-serif" font-size="14" lengthAdjust="spacing" textLength="41" x="445.5" y="93.8008">:users</text><path d="M451,27.7773 C451,17.7773 469,17.7773 469,17.7773 C469,17.7773 487,17.7773 487,27.7773 L487,53.7773 C487,63.7773 469,63.7773 469,63.7773 C469,63.7773 451,63.7773 451,53.7773 L451,27.7773 " fill="#E2E2F0" style="stroke:#181818;stroke-width:1.5;"/><path d="M451,27.7773 C451,37.7773 469,37.7773 469,37.7773 C469,37.7773 487,37.7773 487,27.7773 " fill="none" style="stroke:#181818;stroke-width:1.5;"/><text fill="#000000" font-family="sans-serif" font-size="14" lengthAdjust="spacing" textLength="80" x="426" y="753.0313">&#171;MongoDB&#187;</text><text fill="#000000" font-family="sans-serif" font-size="14" lengthAdjust="spacing" textLength="41" x="445.5" y="769.5195">:users</text><path d="M451,782.4727 C451,772.4727 469,772.4727 469,772.4727 C469,772.4727 487,772.4727 487,782.4727 L487,808.4727 C487,818.4727 469,818.4727 469,818.4727 C469,818.4727 451,818.4727 451,808.4727 L451,782.4727 " fill="#E2E2F0" style="stroke:#181818;stroke-width:1.5;"/><path d="M451,782.4727 C451,792.4727 469,792.4727 469,792.4727 C469,792.4727 487,792.4727 487,782.4727 " fill="none" style="stroke:#181818;stroke-width:1.5;"/><rect fill="#E2E2F0" height="30.4883" rx="2.5" ry="2.5" style="stroke:#181818;stroke-width:0.5;" width="106" x="522" y="65.2656"/><text fill="#000000" font-family="sans-serif" font-size="14" lengthAdjust="spacing" textLength="92" x="529" y="85.8008">Admin/Client</text><rect fill="#E2E2F0" height="30.4883" rx="2.5" ry="2.5" style="stroke:#181818;stroke-width:0.5;" width="106" x="522" y="739.4961"/><text fill="#000000" font-family="sans-serif" font-size="14" lengthAdjust="spacing" textLength="92" x="529" y="760.0313">Admin/Client</text><rect fill="#E2E2F0" height="46.9766" rx="2.5" ry="2.5" style="stroke:#181818;stroke-width:0.5;" width="83" x="638" y="48.7773"/><text fill="#000000" font-family="sans-serif" font-size="14" lengthAdjust="spacing" textLength="57" x="651" y="69.3125">&#171;router&#187;</text><text fill="#000000" font-family="sans-serif" font-size="14" lengthAdjust="spacing" textLength="69" x="645" y="85.8008">:providers</text><rect fill="#E2E2F0" height="46.9766" rx="2.5" ry="2.5" style="stroke:#181818;stroke-width:0.5;" width="83" x="638" y="739.4961"/><text fill="#000000" font-family="sans-serif" font-size="14" lengthAdjust="spacing" textLength="57" x="651" y="760.0313">&#171;router&#187;</text><text fill="#000000" font-family="sans-serif" font-size="14" lengthAdjust="spacing" textLength="69" x="645" y="776.5195">:providers</text><rect fill="#E2E2F0" height="46.9766" rx="2.5" ry="2.5" style="stroke:#181818;stroke-width:0.5;" width="102" x="731" y="48.7773"/><text fill="#000000" font-family="sans-serif" font-size="14" lengthAdjust="spacing" textLength="88" x="738" y="69.3125">&#171;controllers&#187;</text><text fill="#000000" font-family="sans-serif" font-size="14" lengthAdjust="spacing" textLength="69" x="747.5" y="85.8008">:providers</text><rect fill="#E2E2F0" height="46.9766" rx="2.5" ry="2.5" style="stroke:#181818;stroke-width:0.5;" width="102" x="731" y="739.4961"/><text fill="#000000" font-family="sans-serif" font-size="14" lengthAdjust="spacing" textLength="88" x="738" y="760.0313">&#171;controllers&#187;</text><text fill="#000000" font-family="sans-serif" font-size="14" lengthAdjust="spacing" textLength="69" x="747.5" y="776.5195">:providers</text><rect fill="#E2E2F0" height="46.9766" rx="2.5" ry="2.5" style="stroke:#181818;stroke-width:0.5;" width="75" x="929.5" y="48.7773"/><text fill="#000000" font-family="sans-serif" font-size="14" lengthAdjust="spacing" textLength="57" x="938.5" y="69.3125">&#171;model&#187;</text><text fill="#000000" font-family="sans-serif" font-size="14" lengthAdjust="spacing" textLength="61" x="936.5" y="85.8008">:Provider</text><rect fill="#E2E2F0" height="46.9766" rx="2.5" ry="2.5" style="stroke:#181818;stroke-width:0.5;" width="75" x="929.5" y="739.4961"/><text fill="#000000" font-family="sans-serif" font-size="14" lengthAdjust="spacing" textLength="57" x="938.5" y="760.0313">&#171;model&#187;</text><text fill="#000000" font-family="sans-serif" font-size="14" lengthAdjust="spacing" textLength="61" x="936.5" y="776.5195">:Provider</text><text fill="#000000" font-family="sans-serif" font-size="14" lengthAdjust="spacing" textLength="80" x="1052" y="77.3125">&#171;MongoDB&#187;</text><text fill="#000000" font-family="sans-serif" font-size="14" lengthAdjust="spacing" textLength="69" x="1057.5" y="93.8008">:providers</text><path d="M1077,27.7773 C1077,17.7773 1095,17.7773 1095,17.7773 C1095,17.7773 1113,17.7773 1113,27.7773 L1113,53.7773 C1113,63.7773 1095,63.7773 1095,63.7773 C1095,63.7773 1077,63.7773 1077,53.7773 L1077,27.7773 " fill="#E2E2F0" style="stroke:#181818;stroke-width:1.5;"/><path d="M1077,27.7773 C1077,37.7773 1095,37.7773 1095,37.7773 C1095,37.7773 1113,37.7773 1113,27.7773 " fill="none" style="stroke:#181818;stroke-width:1.5;"/><text fill="#000000" font-family="sans-serif" font-size="14" lengthAdjust="spacing" textLength="80" x="1052" y="753.0313">&#171;MongoDB&#187;</text><text fill="#000000" font-family="sans-serif" font-size="14" lengthAdjust="spacing" textLength="69" x="1057.5" y="769.5195">:providers</text><path d="M1077,782.4727 C1077,772.4727 1095,772.4727 1095,772.4727 C1095,772.4727 1113,772.4727 1113,782.4727 L1113,808.4727 C1113,818.4727 1095,818.4727 1095,818.4727 C1095,818.4727 1077,818.4727 1077,808.4727 L1077,782.4727 " fill="#E2E2F0" style="stroke:#181818;stroke-width:1.5;"/><path d="M1077,782.4727 C1077,792.4727 1095,792.4727 1095,792.4727 C1095,792.4727 1113,792.4727 1113,782.4727 " fill="none" style="stroke:#181818;stroke-width:1.5;"/><rect fill="#E2E2F0" height="30.4883" rx="2.5" ry="2.5" style="stroke:#181818;stroke-width:0.5;" width="92" x="1148" y="65.2656"/><text fill="#000000" font-family="sans-serif" font-size="14" lengthAdjust="spacing" textLength="78" x="1155" y="85.8008">User/Client</text><rect fill="#E2E2F0" height="30.4883" rx="2.5" ry="2.5" style="stroke:#181818;stroke-width:0.5;" width="92" x="1148" y="739.4961"/><text fill="#000000" font-family="sans-serif" font-size="14" lengthAdjust="spacing" textLength="78" x="1155" y="760.0313">User/Client</text><rect fill="#E2E2F0" height="46.9766" rx="2.5" ry="2.5" style="stroke:#181818;stroke-width:0.5;" width="94" x="1407" y="48.7773"/><text fill="#000000" font-family="sans-serif" font-size="14" lengthAdjust="spacing" textLength="80" x="1414" y="69.3125">&#171;JavaScript&#187;</text><text fill="#000000" font-family="sans-serif" font-size="14" lengthAdjust="spacing" textLength="46" x="1431" y="85.8008">:server</text><rect fill="#E2E2F0" height="46.9766" rx="2.5" ry="2.5" style="stroke:#181818;stroke-width:0.5;" width="94" x="1407" y="739.4961"/><text fill="#000000" font-family="sans-serif" font-size="14" lengthAdjust="spacing" textLength="80" x="1414" y="760.0313">&#171;JavaScript&#187;</text><text fill="#000000" font-family="sans-serif" font-size="14" lengthAdjust="spacing" textLength="46" x="1431" y="776.5195">:server</text><rect fill="#E2E2F0" height="46.9766" rx="2.5" ry="2.5" style="stroke:#181818;stroke-width:0.5;" width="108" x="1511" y="48.7773"/><text fill="#000000" font-family="sans-serif" font-size="14" lengthAdjust="spacing" textLength="94" x="1518" y="69.3125">&#171;middleware&#187;</text><text fill="#000000" font-family="sans-serif" font-size="14" lengthAdjust="spacing" textLength="35" x="1547.5" y="85.8008">:auth</text><rect fill="#E2E2F0" height="46.9766" rx="2.5" ry="2.5" style="stroke:#181818;stroke-width:0.5;" width="108" x="1511" y="739.4961"/><text fill="#000000" font-family="sans-serif" font-size="14" lengthAdjust="spacing" textLength="94" x="1518" y="760.0313">&#171;middleware&#187;</text><text fill="#000000" font-family="sans-serif" font-size="14" lengthAdjust="spacing" textLength="35" x="1547.5" y="776.5195">:auth</text><rect fill="#E2E2F0" height="46.9766" rx="2.5" ry="2.5" style="stroke:#181818;stroke-width:0.5;" width="82" x="1711" y="48.7773"/><text fill="#000000" font-family="sans-serif" font-size="14" lengthAdjust="spacing" textLength="57" x="1723.5" y="69.3125">&#171;router&#187;</text><text fill="#000000" font-family="sans-serif" font-size="14" lengthAdjust="spacing" textLength="68" x="1718" y="85.8008">:bookings</text><rect fill="#E2E2F0" height="46.9766" rx="2.5" ry="2.5" style="stroke:#181818;stroke-width:0.5;" width="82" x="1711" y="739.4961"/><text fill="#000000" font-family="sans-serif" font-size="14" lengthAdjust="spacing" textLength="57" x="1723.5" y="760.0313">&#171;router&#187;</text><text fill="#000000" font-family="sans-serif" font-size="14" lengthAdjust="spacing" textLength="68" x="1718" y="776.5195">:bookings</text><rect fill="#E2E2F0" height="46.9766" rx="2.5" ry="2.5" style="stroke:#181818;stroke-width:0.5;" width="102" x="1837" y="48.7773"/><text fill="#000000" font-family="sans-serif" font-size="14" lengthAdjust="spacing" textLength="88" x="1844" y="69.3125">&#171;controllers&#187;</text><text fill="#000000" font-family="sans-serif" font-size="14" lengthAdjust="spacing" textLength="68" x="1854" y="85.8008">:bookings</text><rect fill="#E2E2F0" height="46.9766" rx="2.5" ry="2.5" style="stroke:#181818;stroke-width:0.5;" width="102" x="1837" y="739.4961"/><text fill="#000000" font-family="sans-serif" font-size="14" lengthAdjust="spacing" textLength="88" x="1844" y="760.0313">&#171;controllers&#187;</text><text fill="#000000" font-family="sans-serif" font-size="14" lengthAdjust="spacing" textLength="68" x="1854" y="776.5195">:bookings</text><rect fill="#E2E2F0" height="46.9766" rx="2.5" ry="2.5" style="stroke:#181818;stroke-width:0.5;" width="74" x="2080" y="48.7773"/><text fill="#000000" font-family="sans-serif" font-size="14" lengthAdjust="spacing" textLength="57" x="2088.5" y="69.3125">&#171;model&#187;</text><text fill="#000000" font-family="sans-serif" font-size="14" lengthAdjust="spacing" textLength="60" x="2087" y="85.8008">:Booking</text><rect fill="#E2E2F0" height="46.9766" rx="2.5" ry="2.5" style="stroke:#181818;stroke-width:0.5;" width="74" x="2080" y="739.4961"/><text fill="#000000" font-family="sans-serif" font-size="14" lengthAdjust="spacing" textLength="57" x="2088.5" y="760.0313">&#171;model&#187;</text><text fill="#000000" font-family="sans-serif" font-size="14" lengthAdjust="spacing" textLength="60" x="2087" y="776.5195">:Booking</text><text fill="#000000" font-family="sans-serif" font-size="14" lengthAdjust="spacing" textLength="80" x="2233" y="77.3125">&#171;MongoDB&#187;</text><text fill="#000000" font-family="sans-serif" font-size="14" lengthAdjust="spacing" textLength="68" x="2239" y="93.8008">:bookings</text><path d="M2258,27.7773 C2258,17.7773 2276,17.7773 2276,17.7773 C2276,17.7773 2294,17.7773 2294,27.7773 L2294,53.7773 C2294,63.7773 2276,63.7773 2276,63.7773 C2276,63.7773 2258,63.7773 2258,53.7773 L2258,27.7773 " fill="#E2E2F0" style="stroke:#181818;stroke-width:1.5;"/><path d="M2258,27.7773 C2258,37.7773 2276,37.7773 2276,37.7773 C2276,37.7773 2294,37.7773 2294,27.7773 " fill="none" style="stroke:#181818;stroke-width:1.5;"/><text fill="#000000" font-family="sans-serif" font-size="14" lengthAdjust="spacing" textLength="80" x="2233" y="753.0313">&#171;MongoDB&#187;</text><text fill="#000000" font-family="sans-serif" font-size="14" lengthAdjust="spacing" textLength="68" x="2239" y="769.5195">:bookings</text><path d="M2258,782.4727 C2258,772.4727 2276,772.4727 2276,772.4727 C2276,772.4727 2294,772.4727 2294,782.4727 L2294,808.4727 C2294,818.4727 2276,818.4727 2276,818.4727 C2276,818.4727 2258,818.4727 2258,808.4727 L2258,782.4727 " fill="#E2E2F0" style="stroke:#181818;stroke-width:1.5;"/><path d="M2258,782.4727 C2258,792.4727 2276,792.4727 2276,792.4727 C2276,792.4727 2294,792.4727 2294,782.4727 " fill="none" style="stroke:#181818;stroke-width:1.5;"/><rect fill="#FFFFFF" height="624.7422" style="stroke:#181818;stroke-width:1.0;" width="10" x="35.5" y="106.7539"/><rect fill="#FFFFFF" height="624.7422" style="stroke:#181818;stroke-width:1.0;" width="10" x="40.5" y="106.7539"/><rect fill="#FFFFFF" height="624.7422" style="stroke:#181818;stroke-width:1.0;" width="10" x="674.5" y="106.7539"/><rect fill="#FFFFFF" height="624.7422" style="stroke:#181818;stroke-width:1.0;" width="10" x="1449" y="106.7539"/><rect fill="#FFFFFF" height="624.7422" style="stroke:#181818;stroke-width:1.0;" width="10" x="1454" y="106.7539"/><rect fill="#FFFFFF" height="624.7422" style="stroke:#181818;stroke-width:1.0;" width="10" x="1459" y="106.7539"/><rect fill="#FFFFFF" height="624.7422" style="stroke:#181818;stroke-width:1.0;" width="10" x="1464" y="106.7539"/><rect fill="#FFFFFF" height="586.1211" style="stroke:#181818;stroke-width:1.0;" width="10" x="1469" y="145.375"/><rect fill="#FFFFFF" height="539.8105" style="stroke:#181818;stroke-width:1.0;" width="10" x="1560" y="174.6855"/><rect fill="#FFFFFF" height="347.9922" style="stroke:#181818;stroke-width:1.0;" width="10" x="1565" y="299.9277"/><rect fill="#FFFFFF" height="624.7422" style="stroke:#181818;stroke-width:1.0;" width="10" x="1747" y="106.7539"/><rect fill="#FFFFFF" height="460.8789" style="stroke:#181818;stroke-width:1.0;" width="10" x="1752" y="270.6172"/><rect fill="#FFFFFF" height="192.4844" style="stroke:#181818;stroke-width:1.0;" width="10" x="1883" y="395.8594"/><rect fill="#FFFFFF" height="87.9316" style="stroke:#181818;stroke-width:1.0;" width="10" x="2112" y="455.791"/><rect fill="#FFFFFF" height="29.3105" style="stroke:#181818;stroke-width:1.0;" width="10" x="2271" y="485.1016"/><line style="stroke:#000000;stroke-width:1.0;stroke-dasharray:2.0,2.0;" x1="0" x2="2369" y1="107.7539" y2="107.7539"/><polygon fill="#181818" points="1457,141.375,1467,145.375,1457,149.375,1461,145.375" style="stroke:#181818;stroke-width:1.0;"/><line style="stroke:#181818;stroke-width:1.0;" x1="1194" x2="1463" y1="145.375" y2="145.375"/><text fill="#000000" font-family="sans-serif" font-size="13" lengthAdjust="spacing" textLength="212" x="1201" y="125.3223">GET /api/v1/bookings/myhistory</text><text fill="#000000" font-family="sans-serif" font-size="13" lengthAdjust="spacing" textLength="172" x="1201" y="140.6328">Authorization: Bearer token</text><polygon fill="#181818" points="1548,170.6855,1558,174.6855,1548,178.6855,1552,174.6855" style="stroke:#181818;stroke-width:1.0;"/><line style="stroke:#181818;stroke-width:1.0;" x1="1479" x2="1554" y1="174.6855" y2="174.6855"/><text fill="#000000" font-family="sans-serif" font-size="13" lengthAdjust="spacing" textLength="53" x="1486" y="169.9434">protect()</text><line style="stroke:#181818;stroke-width:1.0;" x1="1570" x2="1612" y1="203.9961" y2="203.9961"/><line style="stroke:#181818;stroke-width:1.0;" x1="1612" x2="1612" y1="203.9961" y2="216.9961"/><line style="stroke:#181818;stroke-width:1.0;" x1="1571" x2="1612" y1="216.9961" y2="216.9961"/><polygon fill="#181818" points="1581,212.9961,1571,216.9961,1581,220.9961,1577,216.9961" style="stroke:#181818;stroke-width:1.0;"/><text fill="#000000" font-family="sans-serif" font-size="13" lengthAdjust="spacing" textLength="102" x="1577" y="199.2539">verify JWT token</text><path d="M1128,231.9961 L1190,231.9961 L1190,239.3066 L1180,249.3066 L1128,249.3066 L1128,231.9961 " fill="#EEEEEE" style="stroke:#000000;stroke-width:1.5;"/><rect fill="none" height="490.5" style="stroke:#000000;stroke-width:1.5;" width="1211" x="1128" y="231.9961"/><text fill="#000000" font-family="sans-serif" font-size="13" font-weight="bold" lengthAdjust="spacing" textLength="17" x="1143" y="245.5645">alt</text><text fill="#000000" font-family="sans-serif" font-size="11" font-weight="bold" lengthAdjust="spacing" textLength="71" x="1205" y="244.6309">[token valid]</text><polygon fill="#181818" points="1740,266.6172,1750,270.6172,1740,274.6172,1744,270.6172" style="stroke:#181818;stroke-width:1.0;"/><line style="stroke:#181818;stroke-width:1.0;" x1="1570" x2="1746" y1="270.6172" y2="270.6172"/><text fill="#000000" font-family="sans-serif" font-size="13" lengthAdjust="spacing" textLength="36" x="1577" y="265.875">next()</text><polygon fill="#181818" points="1586,295.9277,1576,299.9277,1586,303.9277,1582,299.9277" style="stroke:#181818;stroke-width:1.0;"/><line style="stroke:#181818;stroke-width:1.0;" x1="1580" x2="1751" y1="299.9277" y2="299.9277"/><text fill="#000000" font-family="sans-serif" font-size="13" lengthAdjust="spacing" textLength="153" x="1592" y="295.1855">authorize('user', 'admin')</text><line style="stroke:#181818;stroke-width:1.0;" x1="1575" x2="1617" y1="329.2383" y2="329.2383"/><line style="stroke:#181818;stroke-width:1.0;" x1="1617" x2="1617" y1="329.2383" y2="342.2383"/><line style="stroke:#181818;stroke-width:1.0;" x1="1576" x2="1617" y1="342.2383" y2="342.2383"/><polygon fill="#181818" points="1586,338.2383,1576,342.2383,1586,346.2383,1582,342.2383" style="stroke:#181818;stroke-width:1.0;"/><text fill="#000000" font-family="sans-serif" font-size="13" lengthAdjust="spacing" textLength="96" x="1582" y="324.4961">check user role</text><path d="M1138,357.2383 L1200,357.2383 L1200,364.5488 L1190,374.5488 L1138,374.5488 L1138,357.2383 " fill="#EEEEEE" style="stroke:#000000;stroke-width:1.5;"/><rect fill="none" height="298.6816" style="stroke:#000000;stroke-width:1.5;" width="1191" x="1138" y="357.2383"/><text fill="#000000" font-family="sans-serif" font-size="13" font-weight="bold" lengthAdjust="spacing" textLength="17" x="1153" y="370.8066">alt</text><text fill="#000000" font-family="sans-serif" font-size="11" font-weight="bold" lengthAdjust="spacing" textLength="93" x="1215" y="369.873">[role authorized]</text><polygon fill="#181818" points="1871,391.8594,1881,395.8594,1871,399.8594,1875,395.8594" style="stroke:#181818;stroke-width:1.0;"/><line style="stroke:#181818;stroke-width:1.0;" x1="1575" x2="1877" y1="395.8594" y2="395.8594"/><text fill="#000000" font-family="sans-serif" font-size="13" lengthAdjust="spacing" textLength="143" x="1582" y="391.1172">getMyBookingHistory()</text><polygon fill="#181818" points="2100,451.791,2110,455.791,2100,459.791,2104,455.791" style="stroke:#181818;stroke-width:1.0;"/><line style="stroke:#181818;stroke-width:1.0;" x1="1893" x2="2106" y1="455.791" y2="455.791"/><text fill="#000000" font-family="sans-serif" font-size="13" lengthAdjust="spacing" textLength="198" x="1900" y="420.4277">Booking.find({user: req.user.id})</text><text fill="#000000" font-family="sans-serif" font-size="13" lengthAdjust="spacing" textLength="150" x="1900" y="435.7383">.sort({bookingDate: -1})</text><text fill="#000000" font-family="sans-serif" font-size="13" lengthAdjust="spacing" textLength="125" x="1900" y="451.0488">.populate('provider')</text><polygon fill="#181818" points="2259,481.1016,2269,485.1016,2259,489.1016,2263,485.1016" style="stroke:#181818;stroke-width:1.0;"/><line style="stroke:#181818;stroke-width:1.0;" x1="2122" x2="2265" y1="485.1016" y2="485.1016"/><text fill="#000000" font-family="sans-serif" font-size="13" lengthAdjust="spacing" textLength="119" x="2129" y="480.3594">find user bookings</text><polygon fill="#181818" points="2133,510.4121,2123,514.4121,2133,518.4121,2129,514.4121" style="stroke:#181818;stroke-width:1.0;"/><line style="stroke:#181818;stroke-width:1.0;stroke-dasharray:2.0,2.0;" x1="2127" x2="2275" y1="514.4121" y2="514.4121"/><text fill="#000000" font-family="sans-serif" font-size="13" lengthAdjust="spacing" textLength="67" x="2139" y="509.6699">bookings[]</text><polygon fill="#181818" points="1904,539.7227,1894,543.7227,1904,547.7227,1900,543.7227" style="stroke:#181818;stroke-width:1.0;"/><line style="stroke:#181818;stroke-width:1.0;stroke-dasharray:2.0,2.0;" x1="1898" x2="2116" y1="543.7227" y2="543.7227"/><text fill="#000000" font-family="sans-serif" font-size="13" lengthAdjust="spacing" textLength="67" x="1910" y="538.9805">bookings[]</text><polygon fill="#181818" points="1205,584.3438,1195,588.3438,1205,592.3438,1201,588.3438" style="stroke:#181818;stroke-width:1.0;"/><line style="stroke:#181818;stroke-width:1.0;" x1="1199" x2="1887" y1="588.3438" y2="588.3438"/><text fill="#000000" font-family="sans-serif" font-size="13" lengthAdjust="spacing" textLength="89" x="1211" y="568.291">response(200)</text><text fill="#000000" font-family="sans-serif" font-size="13" lengthAdjust="spacing" textLength="137" x="1211" y="583.6016">{success, count, data}</text><line style="stroke:#000000;stroke-width:1.0;stroke-dasharray:2.0,2.0;" x1="1138" x2="2329" y1="597.3438" y2="597.3438"/><text fill="#000000" font-family="sans-serif" font-size="11" font-weight="bold" lengthAdjust="spacing" textLength="115" x="1143" y="607.9785">[role not authorized]</text><polygon fill="#181818" points="1205,643.9199,1195,647.9199,1205,651.9199,1201,647.9199" style="stroke:#181818;stroke-width:1.0;"/><line style="stroke:#181818;stroke-width:1.0;" x1="1199" x2="1559" y1="647.9199" y2="647.9199"/><text fill="#000000" font-family="sans-serif" font-size="13" lengthAdjust="spacing" textLength="89" x="1211" y="627.8672">response(403)</text><text fill="#000000" font-family="sans-serif" font-size="13" lengthAdjust="spacing" textLength="131" x="1211" y="643.1777">{success: false, msg}</text><line style="stroke:#000000;stroke-width:1.0;stroke-dasharray:2.0,2.0;" x1="1128" x2="2339" y1="663.9199" y2="663.9199"/><text fill="#000000" font-family="sans-serif" font-size="11" font-weight="bold" lengthAdjust="spacing" textLength="82" x="1133" y="674.5547">[token invalid]</text><polygon fill="#181818" points="1205,710.4961,1195,714.4961,1205,718.4961,1201,714.4961" style="stroke:#181818;stroke-width:1.0;"/><line style="stroke:#181818;stroke-width:1.0;" x1="1199" x2="1564" y1="714.4961" y2="714.4961"/><text fill="#000000" font-family="sans-serif" font-size="13" lengthAdjust="spacing" textLength="89" x="1211" y="694.4434">response(401)</text><text fill="#000000" font-family="sans-serif" font-size="13" lengthAdjust="spacing" textLength="131" x="1211" y="709.7539">{success: false, msg}</text><line style="stroke:#000000;stroke-width:1.0;stroke-dasharray:2.0,2.0;" x1="0" x2="2369" y1="729.4961" y2="729.4961"/><text fill="#888888" font-family="sans-serif" font-size="10" lengthAdjust="spacing" textLength="186" x="2182" y="14.668">EzyCar - Car Service Booking Platform</text><text fill="#888888" font-family="sans-serif" font-size="10" lengthAdjust="spacing" textLength="55" x="1156.5" y="829.1406">Page 5 of 6</text><!--SRC=[xLdTJ-Cu47_FNs4X8LfjFvQ5kuSAaBQ0zWujMdHmkeVZ7anYYaLgzsotR1VrVx_nLvgaIPgqiAkxemziOi_yx1bxVZEJVI0u8WATVvkVOe6wIF-z9c96GuA6d3zIDa9NCLRtN8o3UyuL25_X4K6x4_YxY_WzsesnLEOj2FRGSSqVY5w7X651ETeVeDyb0Fz6HbGgWHNbh0cKeYecQASI3xMklbpVe3wUqFvilu-dwg4lp3mHxPqWc62XQ4Wdc2cqexNxfp4bJEqWB55e7hCoHqSNU8QlGq4dwkJabWr0PqQ4aRUFUNd1fx2OaTNB6qaxzX5Uyz8XPqhmE2P2PbLI4qLwOnwHs6XeAuo66T9lGOGLliEIQC5BpaRyR6X4fp0fZQmMasV38B0se-w9imQzUpT0vJwyPSyCZqa7aJ6cSGSf4hFfk8CcMCedBg8Ec1gJHU3007Pfke76aqaFjj7QIyFlTP3-fnsaX44rvmAZxpVIQWVvQT18N61azKCl50GhqjAcdu5Rsi5I1XIS7nBnw_01B0lyS3U3sUqEaCPPMVceswqZjchI08s8kgOZHgAB9tN37mahDimVKrTxG4uu0nT-UB_VXlEGqp0aKi9PQFKEqeU_2096ddIqRXgi7rnmVUOZkbMKPe2AmZFM4s-nkNbi6WV2HN0XwKFn5OFGh5Wx0kyfYxumqh8RN5H4e9OqeOFkvfPXlcCaZh4A7wwSyrhUY-q0nohngHKYCa3mspIyotGBG_nzUOYJ66vHiZFAGYu42LKJ_CCCFXm01imE6iiHmBDeQnOv6A2FqHZY_jImi4HNWiyeb2BRC4efQ8vT9cvOhf2BKK-p2zO3svBBc4PHJ9wm85csq0-NoLm59IKRJl6Ijqsk8wUiScgs5659KrvaILN9EPNHLNQvP0rDMyQPLQoLw2RL18uYOIyuYHUtJ5zPBkWtKz8Dq920tuIz_2bIo_hLB0F82a80WYmtkI8-G812x-VeueyRXwm3tJoX6OvfPE9e5IPtB6PPHhug5zZvwU9zOcSWKB3nrbwxPBNyfe5ymaTBaRhGibgmR_s2gB_8oFrMyOhkXTcHBPFyc3CcnoGPgpBNn9wnU_4bbo1_z-vuD5zYPNK097LlCX2k3FDwQR7kojgQqVoLgjvsaXqsqDM7OIzsLGrccLc367RsnyAuMdiq1UY7xmzAwTci0HHjrh7NbhAgYrk8l_-gz7_eQZzFrAxLt8RyIo1pr7zdH-LtAYktPdw_tnJnEyFMydv6DJLPfb-BzKjr7EfInHzfypnHff4no5jHhnpsgd2d_ReTv0QX-IF_YjJYJIxEBCdisiIYamJKz2-PO1Bqg5wAoPW2ETwz5sUNj6K5mvgsR3xfcTqTctVzsAFHEhoAPALxZk7yroX9Lpr_THhaBTEuhEIHxT9Mil-QMSlqALw2VALIoMHkdMiyYsfRtBDnJEjPEtYGTlMYdK7Dg0FSCc1jMS6d4BAsfVE4b5PFYNVpcz5M6ZlWPLYaNEcisYZQRtU9EZf0NEHozQOUBAs3QZhFlUQAeRgkSpRLigBGQqq0QdwYMfP7_cVAbyJz9yVeO9lrglhPpAfiIHcsZVQ1eokrUxYqKR3n5WxNRi4llwmHJO5OYrqBbtp1Ch5uWTUj4tzoHTqdefOLtIyGirpCjoaMgt1HwzFvQkNG7yyVxFnRwIXVi0niLjHLdynR4VVZYhWHKPTpD-82QNqrrxp4k6KzoOLgFQUAzm7gxfkP2PzCOvrOzpnhx-LAjVAKclh2dAy5QkPJ-UTVmQQfT9rkpQ_0fgWg_jRm_yuZF_kF0vY5iD6N-DvG0ebQP-UVps_ELsbgGAEtrF7ZKaV5iVotyaOPGuD7YIBPJdiJNavwOZX9F9P0onQh3i6cEuScRSf6hKcgVyktlKs-BjYSYTCtv9Qr-1E3I-4xmdQcsIxWsIRETdlksGFJ_q7QgBEsQeLDsZgNE_xTh9Ukgrmpb-ce7w3dnIBRZvNaiSQzs7wpNipVezKky0Kxm5TFe_y0]--></g></svg>