<?xml version="1.0" encoding="us-ascii" standalone="no"?><svg xmlns="http://www.w3.org/2000/svg" xmlns:xlink="http://www.w3.org/1999/xlink" contentStyleType="text/css" height="1282px" preserveAspectRatio="none" style="width:2376px;height:1282px;background:#FFFFFF;" version="1.1" viewBox="0 0 2376 1282" width="2376px" zoomAndPan="magnify"><defs/><g><rect fill="#FFFFFF" height="1068" style="stroke:#181818;stroke-width:1.0;" width="10" x="35.5" y="106.7539"/><rect fill="#FFFFFF" height="1068" style="stroke:#181818;stroke-width:1.0;" width="10" x="40.5" y="106.7539"/><rect fill="#FFFFFF" height="1068" style="stroke:#181818;stroke-width:1.0;" width="10" x="674.5" y="106.7539"/><rect fill="#FFFFFF" height="87.9316" style="stroke:#181818;stroke-width:1.0;" width="10" x="962" y="482.791"/><rect fill="#FFFFFF" height="29.3105" style="stroke:#181818;stroke-width:1.0;" width="10" x="1090" y="512.1016"/><rect fill="#FFFFFF" height="1068" style="stroke:#181818;stroke-width:1.0;" width="10" x="1449" y="106.7539"/><rect fill="#FFFFFF" height="1068" style="stroke:#181818;stroke-width:1.0;" width="10" x="1454" y="106.7539"/><rect fill="#FFFFFF" height="1068" style="stroke:#181818;stroke-width:1.0;" width="10" x="1459" y="106.7539"/><rect fill="#FFFFFF" height="1014.0684" style="stroke:#181818;stroke-width:1.0;" width="10" x="1464" y="160.6855"/><rect fill="#FFFFFF" height="967.7578" style="stroke:#181818;stroke-width:1.0;" width="10" x="1560" y="189.9961"/><rect fill="#FFFFFF" height="775.9395" style="stroke:#181818;stroke-width:1.0;" width="10" x="1565" y="315.2383"/><rect fill="#FFFFFF" height="888.8262" style="stroke:#181818;stroke-width:1.0;" width="10" x="1747" y="285.9277"/><rect fill="#FFFFFF" height="487.2793" style="stroke:#181818;stroke-width:1.0;" width="10" x="1883" y="411.1699"/><rect fill="#FFFFFF" height="87.9316" style="stroke:#181818;stroke-width:1.0;" width="10" x="2112" y="624.3438"/><rect fill="#FFFFFF" height="87.9316" style="stroke:#181818;stroke-width:1.0;" width="10" x="2112" y="765.8965"/><rect fill="#FFFFFF" height="29.3105" style="stroke:#181818;stroke-width:1.0;" width="10" x="2271" y="653.6543"/><rect fill="#FFFFFF" height="29.3105" style="stroke:#181818;stroke-width:1.0;" width="10" x="2271" y="795.207"/><rect fill="none" height="918.4473" style="stroke:#000000;stroke-width:1.5;" width="1449.5" x="909.5" y="247.3066"/><rect fill="none" height="726.6289" style="stroke:#000000;stroke-width:1.5;" width="1429.5" x="919.5" y="372.5488"/><rect fill="none" height="446.8789" style="stroke:#000000;stroke-width:1.5;" width="1211" x="1128" y="585.7227"/><rect fill="none" height="238.75" style="stroke:#000000;stroke-width:1.5;" width="1191" x="1138" y="727.2754"/><line style="stroke:#181818;stroke-width:0.5;stroke-dasharray:5.0,5.0;" x1="40" x2="40" y1="96.7539" y2="1183.7539"/><line style="stroke:#181818;stroke-width:0.5;stroke-dasharray:5.0,5.0;" x1="137" x2="137" y1="96.7539" y2="1183.7539"/><line style="stroke:#181818;stroke-width:0.5;stroke-dasharray:5.0,5.0;" x1="326.5" x2="326.5" y1="96.7539" y2="1183.7539"/><line style="stroke:#181818;stroke-width:0.5;stroke-dasharray:5.0,5.0;" x1="469" x2="469" y1="96.7539" y2="1183.7539"/><line style="stroke:#181818;stroke-width:0.5;stroke-dasharray:5.0,5.0;" x1="575" x2="575" y1="96.7539" y2="1183.7539"/><line style="stroke:#181818;stroke-width:0.5;stroke-dasharray:5.0,5.0;" x1="679" x2="679" y1="96.7539" y2="1183.7539"/><line style="stroke:#181818;stroke-width:0.5;stroke-dasharray:5.0,5.0;" x1="782" x2="782" y1="96.7539" y2="1183.7539"/><line style="stroke:#181818;stroke-width:0.5;stroke-dasharray:5.0,5.0;" x1="966.5" x2="966.5" y1="96.7539" y2="1183.7539"/><line style="stroke:#181818;stroke-width:0.5;stroke-dasharray:5.0,5.0;" x1="1095" x2="1095" y1="96.7539" y2="1183.7539"/><line style="stroke:#181818;stroke-width:0.5;stroke-dasharray:5.0,5.0;" x1="1194" x2="1194" y1="96.7539" y2="1183.7539"/><line style="stroke:#181818;stroke-width:0.5;stroke-dasharray:5.0,5.0;" x1="1454" x2="1454" y1="96.7539" y2="1183.7539"/><line style="stroke:#181818;stroke-width:0.5;stroke-dasharray:5.0,5.0;" x1="1565" x2="1565" y1="96.7539" y2="1183.7539"/><line style="stroke:#181818;stroke-width:0.5;stroke-dasharray:5.0,5.0;" x1="1752" x2="1752" y1="96.7539" y2="1183.7539"/><line style="stroke:#181818;stroke-width:0.5;stroke-dasharray:5.0,5.0;" x1="1888" x2="1888" y1="96.7539" y2="1183.7539"/><line style="stroke:#181818;stroke-width:0.5;stroke-dasharray:5.0,5.0;" x1="2117" x2="2117" y1="96.7539" y2="1183.7539"/><line style="stroke:#181818;stroke-width:0.5;stroke-dasharray:5.0,5.0;" x1="2276" x2="2276" y1="96.7539" y2="1183.7539"/><rect fill="#E2E2F0" height="46.9766" rx="2.5" ry="2.5" style="stroke:#181818;stroke-width:0.5;" width="71" x="5" y="48.7773"/><text fill="#000000" font-family="sans-serif" font-size="14" lengthAdjust="spacing" textLength="57" x="12" y="69.3125">&#171;router&#187;</text><text fill="#000000" font-family="sans-serif" font-size="14" lengthAdjust="spacing" textLength="35" x="23" y="85.8008">:auth</text><rect fill="#E2E2F0" height="46.9766" rx="2.5" ry="2.5" style="stroke:#181818;stroke-width:0.5;" width="71" x="5" y="1182.7539"/><text fill="#000000" font-family="sans-serif" font-size="14" lengthAdjust="spacing" textLength="57" x="12" y="1203.2891">&#171;router&#187;</text><text fill="#000000" font-family="sans-serif" font-size="14" lengthAdjust="spacing" textLength="35" x="23" y="1219.7773">:auth</text><rect fill="#E2E2F0" height="46.9766" rx="2.5" ry="2.5" style="stroke:#181818;stroke-width:0.5;" width="102" x="86" y="48.7773"/><text fill="#000000" font-family="sans-serif" font-size="14" lengthAdjust="spacing" textLength="88" x="93" y="69.3125">&#171;controllers&#187;</text><text fill="#000000" font-family="sans-serif" font-size="14" lengthAdjust="spacing" textLength="35" x="119.5" y="85.8008">:auth</text><rect fill="#E2E2F0" height="46.9766" rx="2.5" ry="2.5" style="stroke:#181818;stroke-width:0.5;" width="102" x="86" y="1182.7539"/><text fill="#000000" font-family="sans-serif" font-size="14" lengthAdjust="spacing" textLength="88" x="93" y="1203.2891">&#171;controllers&#187;</text><text fill="#000000" font-family="sans-serif" font-size="14" lengthAdjust="spacing" textLength="35" x="119.5" y="1219.7773">:auth</text><rect fill="#E2E2F0" height="46.9766" rx="2.5" ry="2.5" style="stroke:#181818;stroke-width:0.5;" width="71" x="291.5" y="48.7773"/><text fill="#000000" font-family="sans-serif" font-size="14" lengthAdjust="spacing" textLength="57" x="298.5" y="69.3125">&#171;model&#187;</text><text fill="#000000" font-family="sans-serif" font-size="14" lengthAdjust="spacing" textLength="35" x="309.5" y="85.8008">:User</text><rect fill="#E2E2F0" height="46.9766" rx="2.5" ry="2.5" style="stroke:#181818;stroke-width:0.5;" width="71" x="291.5" y="1182.7539"/><text fill="#000000" font-family="sans-serif" font-size="14" lengthAdjust="spacing" textLength="57" x="298.5" y="1203.2891">&#171;model&#187;</text><text fill="#000000" font-family="sans-serif" font-size="14" lengthAdjust="spacing" textLength="35" x="309.5" y="1219.7773">:User</text><text fill="#000000" font-family="sans-serif" font-size="14" lengthAdjust="spacing" textLength="80" x="426" y="77.3125">&#171;MongoDB&#187;</text><text fill="#000000" font-family="sans-serif" font-size="14" lengthAdjust="spacing" textLength="41" x="445.5" y="93.8008">:users</text><path d="M451,27.7773 C451,17.7773 469,17.7773 469,17.7773 C469,17.7773 487,17.7773 487,27.7773 L487,53.7773 C487,63.7773 469,63.7773 469,63.7773 C469,63.7773 451,63.7773 451,53.7773 L451,27.7773 " fill="#E2E2F0" style="stroke:#181818;stroke-width:1.5;"/><path d="M451,27.7773 C451,37.7773 469,37.7773 469,37.7773 C469,37.7773 487,37.7773 487,27.7773 " fill="none" style="stroke:#181818;stroke-width:1.5;"/><text fill="#000000" font-family="sans-serif" font-size="14" lengthAdjust="spacing" textLength="80" x="426" y="1196.2891">&#171;MongoDB&#187;</text><text fill="#000000" font-family="sans-serif" font-size="14" lengthAdjust="spacing" textLength="41" x="445.5" y="1212.7773">:users</text><path d="M451,1225.7305 C451,1215.7305 469,1215.7305 469,1215.7305 C469,1215.7305 487,1215.7305 487,1225.7305 L487,1251.7305 C487,1261.7305 469,1261.7305 469,1261.7305 C469,1261.7305 451,1261.7305 451,1251.7305 L451,1225.7305 " fill="#E2E2F0" style="stroke:#181818;stroke-width:1.5;"/><path d="M451,1225.7305 C451,1235.7305 469,1235.7305 469,1235.7305 C469,1235.7305 487,1235.7305 487,1225.7305 " fill="none" style="stroke:#181818;stroke-width:1.5;"/><rect fill="#E2E2F0" height="30.4883" rx="2.5" ry="2.5" style="stroke:#181818;stroke-width:0.5;" width="106" x="522" y="65.2656"/><text fill="#000000" font-family="sans-serif" font-size="14" lengthAdjust="spacing" textLength="92" x="529" y="85.8008">Admin/Client</text><rect fill="#E2E2F0" height="30.4883" rx="2.5" ry="2.5" style="stroke:#181818;stroke-width:0.5;" width="106" x="522" y="1182.7539"/><text fill="#000000" font-family="sans-serif" font-size="14" lengthAdjust="spacing" textLength="92" x="529" y="1203.2891">Admin/Client</text><rect fill="#E2E2F0" height="46.9766" rx="2.5" ry="2.5" style="stroke:#181818;stroke-width:0.5;" width="83" x="638" y="48.7773"/><text fill="#000000" font-family="sans-serif" font-size="14" lengthAdjust="spacing" textLength="57" x="651" y="69.3125">&#171;router&#187;</text><text fill="#000000" font-family="sans-serif" font-size="14" lengthAdjust="spacing" textLength="69" x="645" y="85.8008">:providers</text><rect fill="#E2E2F0" height="46.9766" rx="2.5" ry="2.5" style="stroke:#181818;stroke-width:0.5;" width="83" x="638" y="1182.7539"/><text fill="#000000" font-family="sans-serif" font-size="14" lengthAdjust="spacing" textLength="57" x="651" y="1203.2891">&#171;router&#187;</text><text fill="#000000" font-family="sans-serif" font-size="14" lengthAdjust="spacing" textLength="69" x="645" y="1219.7773">:providers</text><rect fill="#E2E2F0" height="46.9766" rx="2.5" ry="2.5" style="stroke:#181818;stroke-width:0.5;" width="102" x="731" y="48.7773"/><text fill="#000000" font-family="sans-serif" font-size="14" lengthAdjust="spacing" textLength="88" x="738" y="69.3125">&#171;controllers&#187;</text><text fill="#000000" font-family="sans-serif" font-size="14" lengthAdjust="spacing" textLength="69" x="747.5" y="85.8008">:providers</text><rect fill="#E2E2F0" height="46.9766" rx="2.5" ry="2.5" style="stroke:#181818;stroke-width:0.5;" width="102" x="731" y="1182.7539"/><text fill="#000000" font-family="sans-serif" font-size="14" lengthAdjust="spacing" textLength="88" x="738" y="1203.2891">&#171;controllers&#187;</text><text fill="#000000" font-family="sans-serif" font-size="14" lengthAdjust="spacing" textLength="69" x="747.5" y="1219.7773">:providers</text><rect fill="#E2E2F0" height="46.9766" rx="2.5" ry="2.5" style="stroke:#181818;stroke-width:0.5;" width="75" x="929.5" y="48.7773"/><text fill="#000000" font-family="sans-serif" font-size="14" lengthAdjust="spacing" textLength="57" x="938.5" y="69.3125">&#171;model&#187;</text><text fill="#000000" font-family="sans-serif" font-size="14" lengthAdjust="spacing" textLength="61" x="936.5" y="85.8008">:Provider</text><rect fill="#E2E2F0" height="46.9766" rx="2.5" ry="2.5" style="stroke:#181818;stroke-width:0.5;" width="75" x="929.5" y="1182.7539"/><text fill="#000000" font-family="sans-serif" font-size="14" lengthAdjust="spacing" textLength="57" x="938.5" y="1203.2891">&#171;model&#187;</text><text fill="#000000" font-family="sans-serif" font-size="14" lengthAdjust="spacing" textLength="61" x="936.5" y="1219.7773">:Provider</text><text fill="#000000" font-family="sans-serif" font-size="14" lengthAdjust="spacing" textLength="80" x="1052" y="77.3125">&#171;MongoDB&#187;</text><text fill="#000000" font-family="sans-serif" font-size="14" lengthAdjust="spacing" textLength="69" x="1057.5" y="93.8008">:providers</text><path d="M1077,27.7773 C1077,17.7773 1095,17.7773 1095,17.7773 C1095,17.7773 1113,17.7773 1113,27.7773 L1113,53.7773 C1113,63.7773 1095,63.7773 1095,63.7773 C1095,63.7773 1077,63.7773 1077,53.7773 L1077,27.7773 " fill="#E2E2F0" style="stroke:#181818;stroke-width:1.5;"/><path d="M1077,27.7773 C1077,37.7773 1095,37.7773 1095,37.7773 C1095,37.7773 1113,37.7773 1113,27.7773 " fill="none" style="stroke:#181818;stroke-width:1.5;"/><text fill="#000000" font-family="sans-serif" font-size="14" lengthAdjust="spacing" textLength="80" x="1052" y="1196.2891">&#171;MongoDB&#187;</text><text fill="#000000" font-family="sans-serif" font-size="14" lengthAdjust="spacing" textLength="69" x="1057.5" y="1212.7773">:providers</text><path d="M1077,1225.7305 C1077,1215.7305 1095,1215.7305 1095,1215.7305 C1095,1215.7305 1113,1215.7305 1113,1225.7305 L1113,1251.7305 C1113,1261.7305 1095,1261.7305 1095,1261.7305 C1095,1261.7305 1077,1261.7305 1077,1251.7305 L1077,1225.7305 " fill="#E2E2F0" style="stroke:#181818;stroke-width:1.5;"/><path d="M1077,1225.7305 C1077,1235.7305 1095,1235.7305 1095,1235.7305 C1095,1235.7305 1113,1235.7305 1113,1225.7305 " fill="none" style="stroke:#181818;stroke-width:1.5;"/><rect fill="#E2E2F0" height="30.4883" rx="2.5" ry="2.5" style="stroke:#181818;stroke-width:0.5;" width="92" x="1148" y="65.2656"/><text fill="#000000" font-family="sans-serif" font-size="14" lengthAdjust="spacing" textLength="78" x="1155" y="85.8008">User/Client</text><rect fill="#E2E2F0" height="30.4883" rx="2.5" ry="2.5" style="stroke:#181818;stroke-width:0.5;" width="92" x="1148" y="1182.7539"/><text fill="#000000" font-family="sans-serif" font-size="14" lengthAdjust="spacing" textLength="78" x="1155" y="1203.2891">User/Client</text><rect fill="#E2E2F0" height="46.9766" rx="2.5" ry="2.5" style="stroke:#181818;stroke-width:0.5;" width="94" x="1407" y="48.7773"/><text fill="#000000" font-family="sans-serif" font-size="14" lengthAdjust="spacing" textLength="80" x="1414" y="69.3125">&#171;JavaScript&#187;</text><text fill="#000000" font-family="sans-serif" font-size="14" lengthAdjust="spacing" textLength="46" x="1431" y="85.8008">:server</text><rect fill="#E2E2F0" height="46.9766" rx="2.5" ry="2.5" style="stroke:#181818;stroke-width:0.5;" width="94" x="1407" y="1182.7539"/><text fill="#000000" font-family="sans-serif" font-size="14" lengthAdjust="spacing" textLength="80" x="1414" y="1203.2891">&#171;JavaScript&#187;</text><text fill="#000000" font-family="sans-serif" font-size="14" lengthAdjust="spacing" textLength="46" x="1431" y="1219.7773">:server</text><rect fill="#E2E2F0" height="46.9766" rx="2.5" ry="2.5" style="stroke:#181818;stroke-width:0.5;" width="108" x="1511" y="48.7773"/><text fill="#000000" font-family="sans-serif" font-size="14" lengthAdjust="spacing" textLength="94" x="1518" y="69.3125">&#171;middleware&#187;</text><text fill="#000000" font-family="sans-serif" font-size="14" lengthAdjust="spacing" textLength="35" x="1547.5" y="85.8008">:auth</text><rect fill="#E2E2F0" height="46.9766" rx="2.5" ry="2.5" style="stroke:#181818;stroke-width:0.5;" width="108" x="1511" y="1182.7539"/><text fill="#000000" font-family="sans-serif" font-size="14" lengthAdjust="spacing" textLength="94" x="1518" y="1203.2891">&#171;middleware&#187;</text><text fill="#000000" font-family="sans-serif" font-size="14" lengthAdjust="spacing" textLength="35" x="1547.5" y="1219.7773">:auth</text><rect fill="#E2E2F0" height="46.9766" rx="2.5" ry="2.5" style="stroke:#181818;stroke-width:0.5;" width="82" x="1711" y="48.7773"/><text fill="#000000" font-family="sans-serif" font-size="14" lengthAdjust="spacing" textLength="57" x="1723.5" y="69.3125">&#171;router&#187;</text><text fill="#000000" font-family="sans-serif" font-size="14" lengthAdjust="spacing" textLength="68" x="1718" y="85.8008">:bookings</text><rect fill="#E2E2F0" height="46.9766" rx="2.5" ry="2.5" style="stroke:#181818;stroke-width:0.5;" width="82" x="1711" y="1182.7539"/><text fill="#000000" font-family="sans-serif" font-size="14" lengthAdjust="spacing" textLength="57" x="1723.5" y="1203.2891">&#171;router&#187;</text><text fill="#000000" font-family="sans-serif" font-size="14" lengthAdjust="spacing" textLength="68" x="1718" y="1219.7773">:bookings</text><rect fill="#E2E2F0" height="46.9766" rx="2.5" ry="2.5" style="stroke:#181818;stroke-width:0.5;" width="102" x="1837" y="48.7773"/><text fill="#000000" font-family="sans-serif" font-size="14" lengthAdjust="spacing" textLength="88" x="1844" y="69.3125">&#171;controllers&#187;</text><text fill="#000000" font-family="sans-serif" font-size="14" lengthAdjust="spacing" textLength="68" x="1854" y="85.8008">:bookings</text><rect fill="#E2E2F0" height="46.9766" rx="2.5" ry="2.5" style="stroke:#181818;stroke-width:0.5;" width="102" x="1837" y="1182.7539"/><text fill="#000000" font-family="sans-serif" font-size="14" lengthAdjust="spacing" textLength="88" x="1844" y="1203.2891">&#171;controllers&#187;</text><text fill="#000000" font-family="sans-serif" font-size="14" lengthAdjust="spacing" textLength="68" x="1854" y="1219.7773">:bookings</text><rect fill="#E2E2F0" height="46.9766" rx="2.5" ry="2.5" style="stroke:#181818;stroke-width:0.5;" width="74" x="2080" y="48.7773"/><text fill="#000000" font-family="sans-serif" font-size="14" lengthAdjust="spacing" textLength="57" x="2088.5" y="69.3125">&#171;model&#187;</text><text fill="#000000" font-family="sans-serif" font-size="14" lengthAdjust="spacing" textLength="60" x="2087" y="85.8008">:Booking</text><rect fill="#E2E2F0" height="46.9766" rx="2.5" ry="2.5" style="stroke:#181818;stroke-width:0.5;" width="74" x="2080" y="1182.7539"/><text fill="#000000" font-family="sans-serif" font-size="14" lengthAdjust="spacing" textLength="57" x="2088.5" y="1203.2891">&#171;model&#187;</text><text fill="#000000" font-family="sans-serif" font-size="14" lengthAdjust="spacing" textLength="60" x="2087" y="1219.7773">:Booking</text><text fill="#000000" font-family="sans-serif" font-size="14" lengthAdjust="spacing" textLength="80" x="2233" y="77.3125">&#171;MongoDB&#187;</text><text fill="#000000" font-family="sans-serif" font-size="14" lengthAdjust="spacing" textLength="68" x="2239" y="93.8008">:bookings</text><path d="M2258,27.7773 C2258,17.7773 2276,17.7773 2276,17.7773 C2276,17.7773 2294,17.7773 2294,27.7773 L2294,53.7773 C2294,63.7773 2276,63.7773 2276,63.7773 C2276,63.7773 2258,63.7773 2258,53.7773 L2258,27.7773 " fill="#E2E2F0" style="stroke:#181818;stroke-width:1.5;"/><path d="M2258,27.7773 C2258,37.7773 2276,37.7773 2276,37.7773 C2276,37.7773 2294,37.7773 2294,27.7773 " fill="none" style="stroke:#181818;stroke-width:1.5;"/><text fill="#000000" font-family="sans-serif" font-size="14" lengthAdjust="spacing" textLength="80" x="2233" y="1196.2891">&#171;MongoDB&#187;</text><text fill="#000000" font-family="sans-serif" font-size="14" lengthAdjust="spacing" textLength="68" x="2239" y="1212.7773">:bookings</text><path d="M2258,1225.7305 C2258,1215.7305 2276,1215.7305 2276,1215.7305 C2276,1215.7305 2294,1215.7305 2294,1225.7305 L2294,1251.7305 C2294,1261.7305 2276,1261.7305 2276,1261.7305 C2276,1261.7305 2258,1261.7305 2258,1251.7305 L2258,1225.7305 " fill="#E2E2F0" style="stroke:#181818;stroke-width:1.5;"/><path d="M2258,1225.7305 C2258,1235.7305 2276,1235.7305 2276,1235.7305 C2276,1235.7305 2294,1235.7305 2294,1225.7305 " fill="none" style="stroke:#181818;stroke-width:1.5;"/><rect fill="#FFFFFF" height="1068" style="stroke:#181818;stroke-width:1.0;" width="10" x="35.5" y="106.7539"/><rect fill="#FFFFFF" height="1068" style="stroke:#181818;stroke-width:1.0;" width="10" x="40.5" y="106.7539"/><rect fill="#FFFFFF" height="1068" style="stroke:#181818;stroke-width:1.0;" width="10" x="674.5" y="106.7539"/><rect fill="#FFFFFF" height="87.9316" style="stroke:#181818;stroke-width:1.0;" width="10" x="962" y="482.791"/><rect fill="#FFFFFF" height="29.3105" style="stroke:#181818;stroke-width:1.0;" width="10" x="1090" y="512.1016"/><rect fill="#FFFFFF" height="1068" style="stroke:#181818;stroke-width:1.0;" width="10" x="1449" y="106.7539"/><rect fill="#FFFFFF" height="1068" style="stroke:#181818;stroke-width:1.0;" width="10" x="1454" y="106.7539"/><rect fill="#FFFFFF" height="1068" style="stroke:#181818;stroke-width:1.0;" width="10" x="1459" y="106.7539"/><rect fill="#FFFFFF" height="1014.0684" style="stroke:#181818;stroke-width:1.0;" width="10" x="1464" y="160.6855"/><rect fill="#FFFFFF" height="967.7578" style="stroke:#181818;stroke-width:1.0;" width="10" x="1560" y="189.9961"/><rect fill="#FFFFFF" height="775.9395" style="stroke:#181818;stroke-width:1.0;" width="10" x="1565" y="315.2383"/><rect fill="#FFFFFF" height="888.8262" style="stroke:#181818;stroke-width:1.0;" width="10" x="1747" y="285.9277"/><rect fill="#FFFFFF" height="487.2793" style="stroke:#181818;stroke-width:1.0;" width="10" x="1883" y="411.1699"/><rect fill="#FFFFFF" height="87.9316" style="stroke:#181818;stroke-width:1.0;" width="10" x="2112" y="624.3438"/><rect fill="#FFFFFF" height="87.9316" style="stroke:#181818;stroke-width:1.0;" width="10" x="2112" y="765.8965"/><rect fill="#FFFFFF" height="29.3105" style="stroke:#181818;stroke-width:1.0;" width="10" x="2271" y="653.6543"/><rect fill="#FFFFFF" height="29.3105" style="stroke:#181818;stroke-width:1.0;" width="10" x="2271" y="795.207"/><line style="stroke:#000000;stroke-width:1.0;stroke-dasharray:2.0,2.0;" x1="0" x2="2369" y1="107.7539" y2="107.7539"/><polygon fill="#181818" points="1452,156.6855,1462,160.6855,1452,164.6855,1456,160.6855" style="stroke:#181818;stroke-width:1.0;"/><line style="stroke:#181818;stroke-width:1.0;" x1="1194" x2="1458" y1="160.6855" y2="160.6855"/><text fill="#000000" font-family="sans-serif" font-size="13" lengthAdjust="spacing" textLength="150" x="1201" y="125.3223">POST /api/v1/bookings</text><text fill="#000000" font-family="sans-serif" font-size="13" lengthAdjust="spacing" textLength="149" x="1201" y="140.6328">{provider, bookingDate}</text><text fill="#000000" font-family="sans-serif" font-size="13" lengthAdjust="spacing" textLength="172" x="1201" y="155.9434">Authorization: Bearer token</text><polygon fill="#181818" points="1548,185.9961,1558,189.9961,1548,193.9961,1552,189.9961" style="stroke:#181818;stroke-width:1.0;"/><line style="stroke:#181818;stroke-width:1.0;" x1="1474" x2="1554" y1="189.9961" y2="189.9961"/><text fill="#000000" font-family="sans-serif" font-size="13" lengthAdjust="spacing" textLength="53" x="1481" y="185.2539">protect()</text><line style="stroke:#181818;stroke-width:1.0;" x1="1570" x2="1612" y1="219.3066" y2="219.3066"/><line style="stroke:#181818;stroke-width:1.0;" x1="1612" x2="1612" y1="219.3066" y2="232.3066"/><line style="stroke:#181818;stroke-width:1.0;" x1="1571" x2="1612" y1="232.3066" y2="232.3066"/><polygon fill="#181818" points="1581,228.3066,1571,232.3066,1581,236.3066,1577,232.3066" style="stroke:#181818;stroke-width:1.0;"/><text fill="#000000" font-family="sans-serif" font-size="13" lengthAdjust="spacing" textLength="102" x="1577" y="214.5645">verify JWT token</text><path d="M909.5,247.3066 L971.5,247.3066 L971.5,254.6172 L961.5,264.6172 L909.5,264.6172 L909.5,247.3066 " fill="#EEEEEE" style="stroke:#000000;stroke-width:1.5;"/><rect fill="none" height="918.4473" style="stroke:#000000;stroke-width:1.5;" width="1449.5" x="909.5" y="247.3066"/><text fill="#000000" font-family="sans-serif" font-size="13" font-weight="bold" lengthAdjust="spacing" textLength="17" x="924.5" y="260.875">alt</text><text fill="#000000" font-family="sans-serif" font-size="11" font-weight="bold" lengthAdjust="spacing" textLength="71" x="986.5" y="259.9414">[token valid]</text><polygon fill="#181818" points="1735,281.9277,1745,285.9277,1735,289.9277,1739,285.9277" style="stroke:#181818;stroke-width:1.0;"/><line style="stroke:#181818;stroke-width:1.0;" x1="1570" x2="1741" y1="285.9277" y2="285.9277"/><text fill="#000000" font-family="sans-serif" font-size="13" lengthAdjust="spacing" textLength="36" x="1577" y="281.1855">next()</text><polygon fill="#181818" points="1586,311.2383,1576,315.2383,1586,319.2383,1582,315.2383" style="stroke:#181818;stroke-width:1.0;"/><line style="stroke:#181818;stroke-width:1.0;" x1="1580" x2="1746" y1="315.2383" y2="315.2383"/><text fill="#000000" font-family="sans-serif" font-size="13" lengthAdjust="spacing" textLength="153" x="1592" y="310.4961">authorize('user', 'admin')</text><line style="stroke:#181818;stroke-width:1.0;" x1="1575" x2="1617" y1="344.5488" y2="344.5488"/><line style="stroke:#181818;stroke-width:1.0;" x1="1617" x2="1617" y1="344.5488" y2="357.5488"/><line style="stroke:#181818;stroke-width:1.0;" x1="1576" x2="1617" y1="357.5488" y2="357.5488"/><polygon fill="#181818" points="1586,353.5488,1576,357.5488,1586,361.5488,1582,357.5488" style="stroke:#181818;stroke-width:1.0;"/><text fill="#000000" font-family="sans-serif" font-size="13" lengthAdjust="spacing" textLength="96" x="1582" y="339.8066">check user role</text><path d="M919.5,372.5488 L981.5,372.5488 L981.5,379.8594 L971.5,389.8594 L919.5,389.8594 L919.5,372.5488 " fill="#EEEEEE" style="stroke:#000000;stroke-width:1.5;"/><rect fill="none" height="726.6289" style="stroke:#000000;stroke-width:1.5;" width="1429.5" x="919.5" y="372.5488"/><text fill="#000000" font-family="sans-serif" font-size="13" font-weight="bold" lengthAdjust="spacing" textLength="17" x="934.5" y="386.1172">alt</text><text fill="#000000" font-family="sans-serif" font-size="11" font-weight="bold" lengthAdjust="spacing" textLength="93" x="996.5" y="385.1836">[role authorized]</text><polygon fill="#181818" points="1871,407.1699,1881,411.1699,1871,415.1699,1875,411.1699" style="stroke:#181818;stroke-width:1.0;"/><line style="stroke:#181818;stroke-width:1.0;" x1="1575" x2="1877" y1="411.1699" y2="411.1699"/><text fill="#000000" font-family="sans-serif" font-size="13" lengthAdjust="spacing" textLength="82" x="1582" y="406.4277">addBooking()</text><line style="stroke:#181818;stroke-width:1.0;" x1="1893" x2="1935" y1="440.4805" y2="440.4805"/><line style="stroke:#181818;stroke-width:1.0;" x1="1935" x2="1935" y1="440.4805" y2="453.4805"/><line style="stroke:#181818;stroke-width:1.0;" x1="1894" x2="1935" y1="453.4805" y2="453.4805"/><polygon fill="#181818" points="1904,449.4805,1894,453.4805,1904,457.4805,1900,453.4805" style="stroke:#181818;stroke-width:1.0;"/><text fill="#000000" font-family="sans-serif" font-size="13" lengthAdjust="spacing" textLength="171" x="1900" y="435.7383">req.body.user = req.user.id</text><polygon fill="#181818" points="983,478.791,973,482.791,983,486.791,979,482.791" style="stroke:#181818;stroke-width:1.0;"/><line style="stroke:#181818;stroke-width:1.0;" x1="977" x2="1882" y1="482.791" y2="482.791"/><text fill="#000000" font-family="sans-serif" font-size="13" lengthAdjust="spacing" textLength="225" x="989" y="478.0488">Provider.findById(req.body.provider)</text><polygon fill="#181818" points="1078,508.1016,1088,512.1016,1078,516.1016,1082,512.1016" style="stroke:#181818;stroke-width:1.0;"/><line style="stroke:#181818;stroke-width:1.0;" x1="972" x2="1084" y1="512.1016" y2="512.1016"/><text fill="#000000" font-family="sans-serif" font-size="13" lengthAdjust="spacing" textLength="81" x="979" y="507.3594">find provider</text><polygon fill="#181818" points="983,537.4121,973,541.4121,983,545.4121,979,541.4121" style="stroke:#181818;stroke-width:1.0;"/><line style="stroke:#181818;stroke-width:1.0;stroke-dasharray:2.0,2.0;" x1="977" x2="1094" y1="541.4121" y2="541.4121"/><text fill="#000000" font-family="sans-serif" font-size="13" lengthAdjust="spacing" textLength="52" x="989" y="536.6699">provider</text><polygon fill="#181818" points="1871,566.7227,1881,570.7227,1871,574.7227,1875,570.7227" style="stroke:#181818;stroke-width:1.0;"/><line style="stroke:#181818;stroke-width:1.0;stroke-dasharray:2.0,2.0;" x1="967" x2="1877" y1="570.7227" y2="570.7227"/><text fill="#000000" font-family="sans-serif" font-size="13" lengthAdjust="spacing" textLength="52" x="974" y="565.9805">provider</text><path d="M1128,585.7227 L1190,585.7227 L1190,593.0332 L1180,603.0332 L1128,603.0332 L1128,585.7227 " fill="#EEEEEE" style="stroke:#000000;stroke-width:1.5;"/><rect fill="none" height="446.8789" style="stroke:#000000;stroke-width:1.5;" width="1211" x="1128" y="585.7227"/><text fill="#000000" font-family="sans-serif" font-size="13" font-weight="bold" lengthAdjust="spacing" textLength="17" x="1143" y="599.291">alt</text><text fill="#000000" font-family="sans-serif" font-size="11" font-weight="bold" lengthAdjust="spacing" textLength="92" x="1205" y="598.3574">[provider exists]</text><polygon fill="#181818" points="2100,620.3438,2110,624.3438,2100,628.3438,2104,624.3438" style="stroke:#181818;stroke-width:1.0;"/><line style="stroke:#181818;stroke-width:1.0;" x1="1893" x2="2106" y1="624.3438" y2="624.3438"/><text fill="#000000" font-family="sans-serif" font-size="13" lengthAdjust="spacing" textLength="198" x="1900" y="619.6016">Booking.find({user: req.user.id})</text><polygon fill="#181818" points="2259,649.6543,2269,653.6543,2259,657.6543,2263,653.6543" style="stroke:#181818;stroke-width:1.0;"/><line style="stroke:#181818;stroke-width:1.0;" x1="2122" x2="2265" y1="653.6543" y2="653.6543"/><text fill="#000000" font-family="sans-serif" font-size="13" lengthAdjust="spacing" textLength="130" x="2129" y="648.9121">count user bookings</text><polygon fill="#181818" points="2133,678.9648,2123,682.9648,2133,686.9648,2129,682.9648" style="stroke:#181818;stroke-width:1.0;"/><line style="stroke:#181818;stroke-width:1.0;stroke-dasharray:2.0,2.0;" x1="2127" x2="2275" y1="682.9648" y2="682.9648"/><text fill="#000000" font-family="sans-serif" font-size="13" lengthAdjust="spacing" textLength="109" x="2139" y="678.2227">existingBookings</text><polygon fill="#181818" points="1904,708.2754,1894,712.2754,1904,716.2754,1900,712.2754" style="stroke:#181818;stroke-width:1.0;"/><line style="stroke:#181818;stroke-width:1.0;stroke-dasharray:2.0,2.0;" x1="1898" x2="2116" y1="712.2754" y2="712.2754"/><text fill="#000000" font-family="sans-serif" font-size="13" lengthAdjust="spacing" textLength="109" x="1910" y="707.5332">existingBookings</text><path d="M1138,727.2754 L1200,727.2754 L1200,734.5859 L1190,744.5859 L1138,744.5859 L1138,727.2754 " fill="#EEEEEE" style="stroke:#000000;stroke-width:1.5;"/><rect fill="none" height="238.75" style="stroke:#000000;stroke-width:1.5;" width="1191" x="1138" y="727.2754"/><text fill="#000000" font-family="sans-serif" font-size="13" font-weight="bold" lengthAdjust="spacing" textLength="17" x="1153" y="740.8438">alt</text><text fill="#000000" font-family="sans-serif" font-size="11" font-weight="bold" lengthAdjust="spacing" textLength="139" x="1215" y="739.9102">[bookings &lt; 3 or admin]</text><polygon fill="#181818" points="2100,761.8965,2110,765.8965,2100,769.8965,2104,765.8965" style="stroke:#181818;stroke-width:1.0;"/><line style="stroke:#181818;stroke-width:1.0;" x1="1893" x2="2106" y1="765.8965" y2="765.8965"/><text fill="#000000" font-family="sans-serif" font-size="13" lengthAdjust="spacing" textLength="156" x="1900" y="761.1543">Booking.create(req.body)</text><polygon fill="#181818" points="2259,791.207,2269,795.207,2259,799.207,2263,795.207" style="stroke:#181818;stroke-width:1.0;"/><line style="stroke:#181818;stroke-width:1.0;" x1="2122" x2="2265" y1="795.207" y2="795.207"/><text fill="#000000" font-family="sans-serif" font-size="13" lengthAdjust="spacing" textLength="99" x="2129" y="790.4648">BookingSchema</text><polygon fill="#181818" points="2133,820.5176,2123,824.5176,2133,828.5176,2129,824.5176" style="stroke:#181818;stroke-width:1.0;"/><line style="stroke:#181818;stroke-width:1.0;stroke-dasharray:2.0,2.0;" x1="2127" x2="2275" y1="824.5176" y2="824.5176"/><text fill="#000000" font-family="sans-serif" font-size="13" lengthAdjust="spacing" textLength="52" x="2139" y="819.7754">booking</text><polygon fill="#181818" points="1904,849.8281,1894,853.8281,1904,857.8281,1900,853.8281" style="stroke:#181818;stroke-width:1.0;"/><line style="stroke:#181818;stroke-width:1.0;stroke-dasharray:2.0,2.0;" x1="1898" x2="2116" y1="853.8281" y2="853.8281"/><text fill="#000000" font-family="sans-serif" font-size="13" lengthAdjust="spacing" textLength="52" x="1910" y="849.0859">booking</text><polygon fill="#181818" points="1205,894.4492,1195,898.4492,1205,902.4492,1201,898.4492" style="stroke:#181818;stroke-width:1.0;"/><line style="stroke:#181818;stroke-width:1.0;" x1="1199" x2="1887" y1="898.4492" y2="898.4492"/><text fill="#000000" font-family="sans-serif" font-size="13" lengthAdjust="spacing" textLength="89" x="1211" y="878.3965">response(201)</text><text fill="#000000" font-family="sans-serif" font-size="13" lengthAdjust="spacing" textLength="93" x="1211" y="893.707">{success, data}</text><line style="stroke:#000000;stroke-width:1.0;stroke-dasharray:2.0,2.0;" x1="1138" x2="2329" y1="907.4492" y2="907.4492"/><text fill="#000000" font-family="sans-serif" font-size="11" font-weight="bold" lengthAdjust="spacing" textLength="93" x="1143" y="918.084">[bookings &gt;= 3]</text><polygon fill="#181818" points="1205,954.0254,1195,958.0254,1205,962.0254,1201,958.0254" style="stroke:#181818;stroke-width:1.0;"/><line style="stroke:#181818;stroke-width:1.0;" x1="1199" x2="1887" y1="958.0254" y2="958.0254"/><text fill="#000000" font-family="sans-serif" font-size="13" lengthAdjust="spacing" textLength="89" x="1211" y="937.9727">response(400)</text><text fill="#000000" font-family="sans-serif" font-size="13" lengthAdjust="spacing" textLength="131" x="1211" y="953.2832">{success: false, msg}</text><line style="stroke:#000000;stroke-width:1.0;stroke-dasharray:2.0,2.0;" x1="1128" x2="2339" y1="974.0254" y2="974.0254"/><text fill="#000000" font-family="sans-serif" font-size="11" font-weight="bold" lengthAdjust="spacing" textLength="115" x="1133" y="984.6602">[provider not found]</text><polygon fill="#181818" points="1205,1020.6016,1195,1024.6016,1205,1028.6016,1201,1024.6016" style="stroke:#181818;stroke-width:1.0;"/><line style="stroke:#181818;stroke-width:1.0;" x1="1199" x2="1887" y1="1024.6016" y2="1024.6016"/><text fill="#000000" font-family="sans-serif" font-size="13" lengthAdjust="spacing" textLength="89" x="1211" y="1004.5488">response(404)</text><text fill="#000000" font-family="sans-serif" font-size="13" lengthAdjust="spacing" textLength="131" x="1211" y="1019.8594">{success: false, msg}</text><line style="stroke:#000000;stroke-width:1.0;stroke-dasharray:2.0,2.0;" x1="919.5" x2="2349" y1="1040.6016" y2="1040.6016"/><text fill="#000000" font-family="sans-serif" font-size="11" font-weight="bold" lengthAdjust="spacing" textLength="115" x="924.5" y="1051.2363">[role not authorized]</text><polygon fill="#181818" points="1205,1087.1777,1195,1091.1777,1205,1095.1777,1201,1091.1777" style="stroke:#181818;stroke-width:1.0;"/><line style="stroke:#181818;stroke-width:1.0;" x1="1199" x2="1559" y1="1091.1777" y2="1091.1777"/><text fill="#000000" font-family="sans-serif" font-size="13" lengthAdjust="spacing" textLength="89" x="1211" y="1071.125">response(403)</text><text fill="#000000" font-family="sans-serif" font-size="13" lengthAdjust="spacing" textLength="131" x="1211" y="1086.4355">{success: false, msg}</text><line style="stroke:#000000;stroke-width:1.0;stroke-dasharray:2.0,2.0;" x1="909.5" x2="2359" y1="1107.1777" y2="1107.1777"/><text fill="#000000" font-family="sans-serif" font-size="11" font-weight="bold" lengthAdjust="spacing" textLength="82" x="914.5" y="1117.8125">[token invalid]</text><polygon fill="#181818" points="1205,1153.7539,1195,1157.7539,1205,1161.7539,1201,1157.7539" style="stroke:#181818;stroke-width:1.0;"/><line style="stroke:#181818;stroke-width:1.0;" x1="1199" x2="1564" y1="1157.7539" y2="1157.7539"/><text fill="#000000" font-family="sans-serif" font-size="13" lengthAdjust="spacing" textLength="89" x="1211" y="1137.7012">response(401)</text><text fill="#000000" font-family="sans-serif" font-size="13" lengthAdjust="spacing" textLength="131" x="1211" y="1153.0117">{success: false, msg}</text><line style="stroke:#000000;stroke-width:1.0;stroke-dasharray:2.0,2.0;" x1="0" x2="2369" y1="1172.7539" y2="1172.7539"/><text fill="#888888" font-family="sans-serif" font-size="10" lengthAdjust="spacing" textLength="186" x="2182" y="14.668">EzyCar - Car Service Booking Platform</text><text fill="#888888" font-family="sans-serif" font-size="10" lengthAdjust="spacing" textLength="55" x="1156.5" y="1272.3984">Page 4 of 6</text><!--SRC=[xLdTJ-Cu47_FNs4X8LfjFvQ5kuSAaBQ0zWujMdHmkeVZ7anYYaLgzsotR1VrVx_nLvgaIPgqiAkxemziOi_yx1bxVZEJVI0u8WATVvkVOe6wIF-z9c96GuA6d3zIDa9NCLRtN8o3UyuL25_X4K6x4_YxY_WzsesnLEOj2FRGSSqVY5w7X651ETeVeDyb0Fz6HbGgWHNbh0cKeYecQASI3xMklbpVe3wUqFvilu-dwg4lp3mHxPqWc62XQ4Wdc2cqexNxfp4bJEqWB55e7hCoHqSNU8QlGq4dwkJabWr0PqQ4aRUFUNd1fx2OaTNB6qaxzX5Uyz8XPqhmE2P2PbLI4qLwOnwHs6XeAuo66T9lGOGLliEIQC5BpaRyR6X4fp0fZQmMasV38B0se-w9imQzUpT0vJwyPSyCZqa7aJ6cSGSf4hFfk8CcMCedBg8Ec1gJHU3007Pfke76aqaFjj7QIyFlTP3-fnsaX44rvmAZxpVIQWVvQT18N61azKCl50GhqjAcdu5Rsi5I1XIS7nBnw_01B0lyS3U3sUqEaCPPMVceswqZjchI08s8kgOZHgAB9tN37mahDimVKrTxG4uu0nT-UB_VXlEGqp0aKi9PQFKEqeU_2096ddIqRXgi7rnmVUOZkbMKPe2AmZFM4s-nkNbi6WV2HN0XwKFn5OFGh5Wx0kyfYxumqh8RN5H4e9OqeOFkvfPXlcCaZh4A7wwSyrhUY-q0nohngHKYCa3mspIyotGBG_nzUOYJ66vHiZFAGYu42LKJ_CCCFXm01imE6iiHmBDeQnOv6A2FqHZY_jImi4HNWiyeb2BRC4efQ8vT9cvOhf2BKK-p2zO3svBBc4PHJ9wm85csq0-NoLm59IKRJl6Ijqsk8wUiScgs5659KrvaILN9EPNHLNQvP0rDMyQPLQoLw2RL18uYOIyuYHUtJ5zPBkWtKz8Dq920tuIz_2bIo_hLB0F82a80WYmtkI8-G812x-VeueyRXwm3tJoX6OvfPE9e5IPtB6PPHhug5zZvwU9zOcSWKB3nrbwxPBNyfe5ymaTBaRhGibgmR_s2gB_8oFrMyOhkXTcHBPFyc3CcnoGPgpBNn9wnU_4bbo1_z-vuD5zYPNK097LlCX2k3FDwQR7kojgQqVoLgjvsaXqsqDM7OIzsLGrccLc367RsnyAuMdiq1UY7xmzAwTci0HHjrh7NbhAgYrk8l_-gz7_eQZzFrAxLt8RyIo1pr7zdH-LtAYktPdw_tnJnEyFMydv6DJLPfb-BzKjr7EfInHzfypnHff4no5jHhnpsgd2d_ReTv0QX-IF_YjJYJIxEBCdisiIYamJKz2-PO1Bqg5wAoPW2ETwz5sUNj6K5mvgsR3xfcTqTctVzsAFHEhoAPALxZk7yroX9Lpr_THhaBTEuhEIHxT9Mil-QMSlqALw2VALIoMHkdMiyYsfRtBDnJEjPEtYGTlMYdK7Dg0FSCc1jMS6d4BAsfVE4b5PFYNVpcz5M6ZlWPLYaNEcisYZQRtU9EZf0NEHozQOUBAs3QZhFlUQAeRgkSpRLigBGQqq0QdwYMfP7_cVAbyJz9yVeO9lrglhPpAfiIHcsZVQ1eokrUxYqKR3n5WxNRi4llwmHJO5OYrqBbtp1Ch5uWTUj4tzoHTqdefOLtIyGirpCjoaMgt1HwzFvQkNG7yyVxFnRwIXVi0niLjHLdynR4VVZYhWHKPTpD-82QNqrrxp4k6KzoOLgFQUAzm7gxfkP2PzCOvrOzpnhx-LAjVAKclh2dAy5QkPJ-UTVmQQfT9rkpQ_0fgWg_jRm_yuZF_kF0vY5iD6N-DvG0ebQP-UVps_ELsbgGAEtrF7ZKaV5iVotyaOPGuD7YIBPJdiJNavwOZX9F9P0onQh3i6cEuScRSf6hKcgVyktlKs-BjYSYTCtv9Qr-1E3I-4xmdQcsIxWsIRETdlksGFJ_q7QgBEsQeLDsZgNE_xTh9Ukgrmpb-ce7w3dnIBRZvNaiSQzs7wpNipVezKky0Kxm5TFe_y0]--></g></svg>