<?xml version="1.0" encoding="us-ascii" standalone="no"?><svg xmlns="http://www.w3.org/2000/svg" xmlns:xlink="http://www.w3.org/1999/xlink" contentStyleType="text/css" height="823px" preserveAspectRatio="none" style="width:2376px;height:823px;background:#FFFFFF;" version="1.1" viewBox="0 0 2376 823" width="2376px" zoomAndPan="magnify"><defs/><g><rect fill="#FFFFFF" height="609.4316" style="stroke:#181818;stroke-width:1.0;" width="10" x="35.5" y="106.7539"/><rect fill="#FFFFFF" height="609.4316" style="stroke:#181818;stroke-width:1.0;" width="10" x="40.5" y="106.7539"/><rect fill="#FFFFFF" height="430.2578" style="stroke:#181818;stroke-width:1.0;" width="10" x="674.5" y="285.9277"/><rect fill="#FFFFFF" height="161.8633" style="stroke:#181818;stroke-width:1.0;" width="10" x="777" y="411.1699"/><rect fill="#FFFFFF" height="87.9316" style="stroke:#181818;stroke-width:1.0;" width="10" x="962" y="440.4805"/><rect fill="#FFFFFF" height="29.3105" style="stroke:#181818;stroke-width:1.0;" width="10" x="1090" y="469.791"/><rect fill="#FFFFFF" height="609.4316" style="stroke:#181818;stroke-width:1.0;" width="10" x="1449" y="106.7539"/><rect fill="#FFFFFF" height="609.4316" style="stroke:#181818;stroke-width:1.0;" width="10" x="1454" y="106.7539"/><rect fill="#FFFFFF" height="555.5" style="stroke:#181818;stroke-width:1.0;" width="10" x="1459" y="160.6855"/><rect fill="#FFFFFF" height="509.1895" style="stroke:#181818;stroke-width:1.0;" width="10" x="1560" y="189.9961"/><rect fill="#FFFFFF" height="317.3711" style="stroke:#181818;stroke-width:1.0;" width="10" x="1565" y="315.2383"/><rect fill="none" height="459.8789" style="stroke:#000000;stroke-width:1.5;" width="1188" x="502" y="247.3066"/><rect fill="none" height="268.0605" style="stroke:#000000;stroke-width:1.5;" width="1117" x="512" y="372.5488"/><line style="stroke:#181818;stroke-width:0.5;stroke-dasharray:5.0,5.0;" x1="40" x2="40" y1="96.7539" y2="725.1855"/><line style="stroke:#181818;stroke-width:0.5;stroke-dasharray:5.0,5.0;" x1="137" x2="137" y1="96.7539" y2="725.1855"/><line style="stroke:#181818;stroke-width:0.5;stroke-dasharray:5.0,5.0;" x1="326.5" x2="326.5" y1="96.7539" y2="725.1855"/><line style="stroke:#181818;stroke-width:0.5;stroke-dasharray:5.0,5.0;" x1="469" x2="469" y1="96.7539" y2="725.1855"/><line style="stroke:#181818;stroke-width:0.5;stroke-dasharray:5.0,5.0;" x1="575" x2="575" y1="96.7539" y2="725.1855"/><line style="stroke:#181818;stroke-width:0.5;stroke-dasharray:5.0,5.0;" x1="679" x2="679" y1="96.7539" y2="725.1855"/><line style="stroke:#181818;stroke-width:0.5;stroke-dasharray:5.0,5.0;" x1="782" x2="782" y1="96.7539" y2="725.1855"/><line style="stroke:#181818;stroke-width:0.5;stroke-dasharray:5.0,5.0;" x1="966.5" x2="966.5" y1="96.7539" y2="725.1855"/><line style="stroke:#181818;stroke-width:0.5;stroke-dasharray:5.0,5.0;" x1="1095" x2="1095" y1="96.7539" y2="725.1855"/><line style="stroke:#181818;stroke-width:0.5;stroke-dasharray:5.0,5.0;" x1="1194" x2="1194" y1="96.7539" y2="725.1855"/><line style="stroke:#181818;stroke-width:0.5;stroke-dasharray:5.0,5.0;" x1="1454" x2="1454" y1="96.7539" y2="725.1855"/><line style="stroke:#181818;stroke-width:0.5;stroke-dasharray:5.0,5.0;" x1="1565" x2="1565" y1="96.7539" y2="725.1855"/><line style="stroke:#181818;stroke-width:0.5;stroke-dasharray:5.0,5.0;" x1="1752" x2="1752" y1="96.7539" y2="725.1855"/><line style="stroke:#181818;stroke-width:0.5;stroke-dasharray:5.0,5.0;" x1="1888" x2="1888" y1="96.7539" y2="725.1855"/><line style="stroke:#181818;stroke-width:0.5;stroke-dasharray:5.0,5.0;" x1="2117" x2="2117" y1="96.7539" y2="725.1855"/><line style="stroke:#181818;stroke-width:0.5;stroke-dasharray:5.0,5.0;" x1="2276" x2="2276" y1="96.7539" y2="725.1855"/><rect fill="#E2E2F0" height="46.9766" rx="2.5" ry="2.5" style="stroke:#181818;stroke-width:0.5;" width="71" x="5" y="48.7773"/><text fill="#000000" font-family="sans-serif" font-size="14" lengthAdjust="spacing" textLength="57" x="12" y="69.3125">&#171;router&#187;</text><text fill="#000000" font-family="sans-serif" font-size="14" lengthAdjust="spacing" textLength="35" x="23" y="85.8008">:auth</text><rect fill="#E2E2F0" height="46.9766" rx="2.5" ry="2.5" style="stroke:#181818;stroke-width:0.5;" width="71" x="5" y="724.1855"/><text fill="#000000" font-family="sans-serif" font-size="14" lengthAdjust="spacing" textLength="57" x="12" y="744.7207">&#171;router&#187;</text><text fill="#000000" font-family="sans-serif" font-size="14" lengthAdjust="spacing" textLength="35" x="23" y="761.209">:auth</text><rect fill="#E2E2F0" height="46.9766" rx="2.5" ry="2.5" style="stroke:#181818;stroke-width:0.5;" width="102" x="86" y="48.7773"/><text fill="#000000" font-family="sans-serif" font-size="14" lengthAdjust="spacing" textLength="88" x="93" y="69.3125">&#171;controllers&#187;</text><text fill="#000000" font-family="sans-serif" font-size="14" lengthAdjust="spacing" textLength="35" x="119.5" y="85.8008">:auth</text><rect fill="#E2E2F0" height="46.9766" rx="2.5" ry="2.5" style="stroke:#181818;stroke-width:0.5;" width="102" x="86" y="724.1855"/><text fill="#000000" font-family="sans-serif" font-size="14" lengthAdjust="spacing" textLength="88" x="93" y="744.7207">&#171;controllers&#187;</text><text fill="#000000" font-family="sans-serif" font-size="14" lengthAdjust="spacing" textLength="35" x="119.5" y="761.209">:auth</text><rect fill="#E2E2F0" height="46.9766" rx="2.5" ry="2.5" style="stroke:#181818;stroke-width:0.5;" width="71" x="291.5" y="48.7773"/><text fill="#000000" font-family="sans-serif" font-size="14" lengthAdjust="spacing" textLength="57" x="298.5" y="69.3125">&#171;model&#187;</text><text fill="#000000" font-family="sans-serif" font-size="14" lengthAdjust="spacing" textLength="35" x="309.5" y="85.8008">:User</text><rect fill="#E2E2F0" height="46.9766" rx="2.5" ry="2.5" style="stroke:#181818;stroke-width:0.5;" width="71" x="291.5" y="724.1855"/><text fill="#000000" font-family="sans-serif" font-size="14" lengthAdjust="spacing" textLength="57" x="298.5" y="744.7207">&#171;model&#187;</text><text fill="#000000" font-family="sans-serif" font-size="14" lengthAdjust="spacing" textLength="35" x="309.5" y="761.209">:User</text><text fill="#000000" font-family="sans-serif" font-size="14" lengthAdjust="spacing" textLength="80" x="426" y="77.3125">&#171;MongoDB&#187;</text><text fill="#000000" font-family="sans-serif" font-size="14" lengthAdjust="spacing" textLength="41" x="445.5" y="93.8008">:users</text><path d="M451,27.7773 C451,17.7773 469,17.7773 469,17.7773 C469,17.7773 487,17.7773 487,27.7773 L487,53.7773 C487,63.7773 469,63.7773 469,63.7773 C469,63.7773 451,63.7773 451,53.7773 L451,27.7773 " fill="#E2E2F0" style="stroke:#181818;stroke-width:1.5;"/><path d="M451,27.7773 C451,37.7773 469,37.7773 469,37.7773 C469,37.7773 487,37.7773 487,27.7773 " fill="none" style="stroke:#181818;stroke-width:1.5;"/><text fill="#000000" font-family="sans-serif" font-size="14" lengthAdjust="spacing" textLength="80" x="426" y="737.7207">&#171;MongoDB&#187;</text><text fill="#000000" font-family="sans-serif" font-size="14" lengthAdjust="spacing" textLength="41" x="445.5" y="754.209">:users</text><path d="M451,767.1621 C451,757.1621 469,757.1621 469,757.1621 C469,757.1621 487,757.1621 487,767.1621 L487,793.1621 C487,803.1621 469,803.1621 469,803.1621 C469,803.1621 451,803.1621 451,793.1621 L451,767.1621 " fill="#E2E2F0" style="stroke:#181818;stroke-width:1.5;"/><path d="M451,767.1621 C451,777.1621 469,777.1621 469,777.1621 C469,777.1621 487,777.1621 487,767.1621 " fill="none" style="stroke:#181818;stroke-width:1.5;"/><rect fill="#E2E2F0" height="30.4883" rx="2.5" ry="2.5" style="stroke:#181818;stroke-width:0.5;" width="106" x="522" y="65.2656"/><text fill="#000000" font-family="sans-serif" font-size="14" lengthAdjust="spacing" textLength="92" x="529" y="85.8008">Admin/Client</text><rect fill="#E2E2F0" height="30.4883" rx="2.5" ry="2.5" style="stroke:#181818;stroke-width:0.5;" width="106" x="522" y="724.1855"/><text fill="#000000" font-family="sans-serif" font-size="14" lengthAdjust="spacing" textLength="92" x="529" y="744.7207">Admin/Client</text><rect fill="#E2E2F0" height="46.9766" rx="2.5" ry="2.5" style="stroke:#181818;stroke-width:0.5;" width="83" x="638" y="48.7773"/><text fill="#000000" font-family="sans-serif" font-size="14" lengthAdjust="spacing" textLength="57" x="651" y="69.3125">&#171;router&#187;</text><text fill="#000000" font-family="sans-serif" font-size="14" lengthAdjust="spacing" textLength="69" x="645" y="85.8008">:providers</text><rect fill="#E2E2F0" height="46.9766" rx="2.5" ry="2.5" style="stroke:#181818;stroke-width:0.5;" width="83" x="638" y="724.1855"/><text fill="#000000" font-family="sans-serif" font-size="14" lengthAdjust="spacing" textLength="57" x="651" y="744.7207">&#171;router&#187;</text><text fill="#000000" font-family="sans-serif" font-size="14" lengthAdjust="spacing" textLength="69" x="645" y="761.209">:providers</text><rect fill="#E2E2F0" height="46.9766" rx="2.5" ry="2.5" style="stroke:#181818;stroke-width:0.5;" width="102" x="731" y="48.7773"/><text fill="#000000" font-family="sans-serif" font-size="14" lengthAdjust="spacing" textLength="88" x="738" y="69.3125">&#171;controllers&#187;</text><text fill="#000000" font-family="sans-serif" font-size="14" lengthAdjust="spacing" textLength="69" x="747.5" y="85.8008">:providers</text><rect fill="#E2E2F0" height="46.9766" rx="2.5" ry="2.5" style="stroke:#181818;stroke-width:0.5;" width="102" x="731" y="724.1855"/><text fill="#000000" font-family="sans-serif" font-size="14" lengthAdjust="spacing" textLength="88" x="738" y="744.7207">&#171;controllers&#187;</text><text fill="#000000" font-family="sans-serif" font-size="14" lengthAdjust="spacing" textLength="69" x="747.5" y="761.209">:providers</text><rect fill="#E2E2F0" height="46.9766" rx="2.5" ry="2.5" style="stroke:#181818;stroke-width:0.5;" width="75" x="929.5" y="48.7773"/><text fill="#000000" font-family="sans-serif" font-size="14" lengthAdjust="spacing" textLength="57" x="938.5" y="69.3125">&#171;model&#187;</text><text fill="#000000" font-family="sans-serif" font-size="14" lengthAdjust="spacing" textLength="61" x="936.5" y="85.8008">:Provider</text><rect fill="#E2E2F0" height="46.9766" rx="2.5" ry="2.5" style="stroke:#181818;stroke-width:0.5;" width="75" x="929.5" y="724.1855"/><text fill="#000000" font-family="sans-serif" font-size="14" lengthAdjust="spacing" textLength="57" x="938.5" y="744.7207">&#171;model&#187;</text><text fill="#000000" font-family="sans-serif" font-size="14" lengthAdjust="spacing" textLength="61" x="936.5" y="761.209">:Provider</text><text fill="#000000" font-family="sans-serif" font-size="14" lengthAdjust="spacing" textLength="80" x="1052" y="77.3125">&#171;MongoDB&#187;</text><text fill="#000000" font-family="sans-serif" font-size="14" lengthAdjust="spacing" textLength="69" x="1057.5" y="93.8008">:providers</text><path d="M1077,27.7773 C1077,17.7773 1095,17.7773 1095,17.7773 C1095,17.7773 1113,17.7773 1113,27.7773 L1113,53.7773 C1113,63.7773 1095,63.7773 1095,63.7773 C1095,63.7773 1077,63.7773 1077,53.7773 L1077,27.7773 " fill="#E2E2F0" style="stroke:#181818;stroke-width:1.5;"/><path d="M1077,27.7773 C1077,37.7773 1095,37.7773 1095,37.7773 C1095,37.7773 1113,37.7773 1113,27.7773 " fill="none" style="stroke:#181818;stroke-width:1.5;"/><text fill="#000000" font-family="sans-serif" font-size="14" lengthAdjust="spacing" textLength="80" x="1052" y="737.7207">&#171;MongoDB&#187;</text><text fill="#000000" font-family="sans-serif" font-size="14" lengthAdjust="spacing" textLength="69" x="1057.5" y="754.209">:providers</text><path d="M1077,767.1621 C1077,757.1621 1095,757.1621 1095,757.1621 C1095,757.1621 1113,757.1621 1113,767.1621 L1113,793.1621 C1113,803.1621 1095,803.1621 1095,803.1621 C1095,803.1621 1077,803.1621 1077,793.1621 L1077,767.1621 " fill="#E2E2F0" style="stroke:#181818;stroke-width:1.5;"/><path d="M1077,767.1621 C1077,777.1621 1095,777.1621 1095,777.1621 C1095,777.1621 1113,777.1621 1113,767.1621 " fill="none" style="stroke:#181818;stroke-width:1.5;"/><rect fill="#E2E2F0" height="30.4883" rx="2.5" ry="2.5" style="stroke:#181818;stroke-width:0.5;" width="92" x="1148" y="65.2656"/><text fill="#000000" font-family="sans-serif" font-size="14" lengthAdjust="spacing" textLength="78" x="1155" y="85.8008">User/Client</text><rect fill="#E2E2F0" height="30.4883" rx="2.5" ry="2.5" style="stroke:#181818;stroke-width:0.5;" width="92" x="1148" y="724.1855"/><text fill="#000000" font-family="sans-serif" font-size="14" lengthAdjust="spacing" textLength="78" x="1155" y="744.7207">User/Client</text><rect fill="#E2E2F0" height="46.9766" rx="2.5" ry="2.5" style="stroke:#181818;stroke-width:0.5;" width="94" x="1407" y="48.7773"/><text fill="#000000" font-family="sans-serif" font-size="14" lengthAdjust="spacing" textLength="80" x="1414" y="69.3125">&#171;JavaScript&#187;</text><text fill="#000000" font-family="sans-serif" font-size="14" lengthAdjust="spacing" textLength="46" x="1431" y="85.8008">:server</text><rect fill="#E2E2F0" height="46.9766" rx="2.5" ry="2.5" style="stroke:#181818;stroke-width:0.5;" width="94" x="1407" y="724.1855"/><text fill="#000000" font-family="sans-serif" font-size="14" lengthAdjust="spacing" textLength="80" x="1414" y="744.7207">&#171;JavaScript&#187;</text><text fill="#000000" font-family="sans-serif" font-size="14" lengthAdjust="spacing" textLength="46" x="1431" y="761.209">:server</text><rect fill="#E2E2F0" height="46.9766" rx="2.5" ry="2.5" style="stroke:#181818;stroke-width:0.5;" width="108" x="1511" y="48.7773"/><text fill="#000000" font-family="sans-serif" font-size="14" lengthAdjust="spacing" textLength="94" x="1518" y="69.3125">&#171;middleware&#187;</text><text fill="#000000" font-family="sans-serif" font-size="14" lengthAdjust="spacing" textLength="35" x="1547.5" y="85.8008">:auth</text><rect fill="#E2E2F0" height="46.9766" rx="2.5" ry="2.5" style="stroke:#181818;stroke-width:0.5;" width="108" x="1511" y="724.1855"/><text fill="#000000" font-family="sans-serif" font-size="14" lengthAdjust="spacing" textLength="94" x="1518" y="744.7207">&#171;middleware&#187;</text><text fill="#000000" font-family="sans-serif" font-size="14" lengthAdjust="spacing" textLength="35" x="1547.5" y="761.209">:auth</text><rect fill="#E2E2F0" height="46.9766" rx="2.5" ry="2.5" style="stroke:#181818;stroke-width:0.5;" width="82" x="1711" y="48.7773"/><text fill="#000000" font-family="sans-serif" font-size="14" lengthAdjust="spacing" textLength="57" x="1723.5" y="69.3125">&#171;router&#187;</text><text fill="#000000" font-family="sans-serif" font-size="14" lengthAdjust="spacing" textLength="68" x="1718" y="85.8008">:bookings</text><rect fill="#E2E2F0" height="46.9766" rx="2.5" ry="2.5" style="stroke:#181818;stroke-width:0.5;" width="82" x="1711" y="724.1855"/><text fill="#000000" font-family="sans-serif" font-size="14" lengthAdjust="spacing" textLength="57" x="1723.5" y="744.7207">&#171;router&#187;</text><text fill="#000000" font-family="sans-serif" font-size="14" lengthAdjust="spacing" textLength="68" x="1718" y="761.209">:bookings</text><rect fill="#E2E2F0" height="46.9766" rx="2.5" ry="2.5" style="stroke:#181818;stroke-width:0.5;" width="102" x="1837" y="48.7773"/><text fill="#000000" font-family="sans-serif" font-size="14" lengthAdjust="spacing" textLength="88" x="1844" y="69.3125">&#171;controllers&#187;</text><text fill="#000000" font-family="sans-serif" font-size="14" lengthAdjust="spacing" textLength="68" x="1854" y="85.8008">:bookings</text><rect fill="#E2E2F0" height="46.9766" rx="2.5" ry="2.5" style="stroke:#181818;stroke-width:0.5;" width="102" x="1837" y="724.1855"/><text fill="#000000" font-family="sans-serif" font-size="14" lengthAdjust="spacing" textLength="88" x="1844" y="744.7207">&#171;controllers&#187;</text><text fill="#000000" font-family="sans-serif" font-size="14" lengthAdjust="spacing" textLength="68" x="1854" y="761.209">:bookings</text><rect fill="#E2E2F0" height="46.9766" rx="2.5" ry="2.5" style="stroke:#181818;stroke-width:0.5;" width="74" x="2080" y="48.7773"/><text fill="#000000" font-family="sans-serif" font-size="14" lengthAdjust="spacing" textLength="57" x="2088.5" y="69.3125">&#171;model&#187;</text><text fill="#000000" font-family="sans-serif" font-size="14" lengthAdjust="spacing" textLength="60" x="2087" y="85.8008">:Booking</text><rect fill="#E2E2F0" height="46.9766" rx="2.5" ry="2.5" style="stroke:#181818;stroke-width:0.5;" width="74" x="2080" y="724.1855"/><text fill="#000000" font-family="sans-serif" font-size="14" lengthAdjust="spacing" textLength="57" x="2088.5" y="744.7207">&#171;model&#187;</text><text fill="#000000" font-family="sans-serif" font-size="14" lengthAdjust="spacing" textLength="60" x="2087" y="761.209">:Booking</text><text fill="#000000" font-family="sans-serif" font-size="14" lengthAdjust="spacing" textLength="80" x="2233" y="77.3125">&#171;MongoDB&#187;</text><text fill="#000000" font-family="sans-serif" font-size="14" lengthAdjust="spacing" textLength="68" x="2239" y="93.8008">:bookings</text><path d="M2258,27.7773 C2258,17.7773 2276,17.7773 2276,17.7773 C2276,17.7773 2294,17.7773 2294,27.7773 L2294,53.7773 C2294,63.7773 2276,63.7773 2276,63.7773 C2276,63.7773 2258,63.7773 2258,53.7773 L2258,27.7773 " fill="#E2E2F0" style="stroke:#181818;stroke-width:1.5;"/><path d="M2258,27.7773 C2258,37.7773 2276,37.7773 2276,37.7773 C2276,37.7773 2294,37.7773 2294,27.7773 " fill="none" style="stroke:#181818;stroke-width:1.5;"/><text fill="#000000" font-family="sans-serif" font-size="14" lengthAdjust="spacing" textLength="80" x="2233" y="737.7207">&#171;MongoDB&#187;</text><text fill="#000000" font-family="sans-serif" font-size="14" lengthAdjust="spacing" textLength="68" x="2239" y="754.209">:bookings</text><path d="M2258,767.1621 C2258,757.1621 2276,757.1621 2276,757.1621 C2276,757.1621 2294,757.1621 2294,767.1621 L2294,793.1621 C2294,803.1621 2276,803.1621 2276,803.1621 C2276,803.1621 2258,803.1621 2258,793.1621 L2258,767.1621 " fill="#E2E2F0" style="stroke:#181818;stroke-width:1.5;"/><path d="M2258,767.1621 C2258,777.1621 2276,777.1621 2276,777.1621 C2276,777.1621 2294,777.1621 2294,767.1621 " fill="none" style="stroke:#181818;stroke-width:1.5;"/><rect fill="#FFFFFF" height="609.4316" style="stroke:#181818;stroke-width:1.0;" width="10" x="35.5" y="106.7539"/><rect fill="#FFFFFF" height="609.4316" style="stroke:#181818;stroke-width:1.0;" width="10" x="40.5" y="106.7539"/><rect fill="#FFFFFF" height="430.2578" style="stroke:#181818;stroke-width:1.0;" width="10" x="674.5" y="285.9277"/><rect fill="#FFFFFF" height="161.8633" style="stroke:#181818;stroke-width:1.0;" width="10" x="777" y="411.1699"/><rect fill="#FFFFFF" height="87.9316" style="stroke:#181818;stroke-width:1.0;" width="10" x="962" y="440.4805"/><rect fill="#FFFFFF" height="29.3105" style="stroke:#181818;stroke-width:1.0;" width="10" x="1090" y="469.791"/><rect fill="#FFFFFF" height="609.4316" style="stroke:#181818;stroke-width:1.0;" width="10" x="1449" y="106.7539"/><rect fill="#FFFFFF" height="609.4316" style="stroke:#181818;stroke-width:1.0;" width="10" x="1454" y="106.7539"/><rect fill="#FFFFFF" height="555.5" style="stroke:#181818;stroke-width:1.0;" width="10" x="1459" y="160.6855"/><rect fill="#FFFFFF" height="509.1895" style="stroke:#181818;stroke-width:1.0;" width="10" x="1560" y="189.9961"/><rect fill="#FFFFFF" height="317.3711" style="stroke:#181818;stroke-width:1.0;" width="10" x="1565" y="315.2383"/><line style="stroke:#000000;stroke-width:1.0;stroke-dasharray:2.0,2.0;" x1="0" x2="2369" y1="107.7539" y2="107.7539"/><polygon fill="#181818" points="1447,156.6855,1457,160.6855,1447,164.6855,1451,160.6855" style="stroke:#181818;stroke-width:1.0;"/><line style="stroke:#181818;stroke-width:1.0;" x1="575" x2="1453" y1="160.6855" y2="160.6855"/><text fill="#000000" font-family="sans-serif" font-size="13" lengthAdjust="spacing" textLength="150" x="582" y="125.3223">POST /api/v1/providers</text><text fill="#000000" font-family="sans-serif" font-size="13" lengthAdjust="spacing" textLength="123" x="582" y="140.6328">{name, address, tel}</text><text fill="#000000" font-family="sans-serif" font-size="13" lengthAdjust="spacing" textLength="172" x="582" y="155.9434">Authorization: Bearer token</text><polygon fill="#181818" points="1548,185.9961,1558,189.9961,1548,193.9961,1552,189.9961" style="stroke:#181818;stroke-width:1.0;"/><line style="stroke:#181818;stroke-width:1.0;" x1="1469" x2="1554" y1="189.9961" y2="189.9961"/><text fill="#000000" font-family="sans-serif" font-size="13" lengthAdjust="spacing" textLength="53" x="1476" y="185.2539">protect()</text><line style="stroke:#181818;stroke-width:1.0;" x1="1570" x2="1612" y1="219.3066" y2="219.3066"/><line style="stroke:#181818;stroke-width:1.0;" x1="1612" x2="1612" y1="219.3066" y2="232.3066"/><line style="stroke:#181818;stroke-width:1.0;" x1="1571" x2="1612" y1="232.3066" y2="232.3066"/><polygon fill="#181818" points="1581,228.3066,1571,232.3066,1581,236.3066,1577,232.3066" style="stroke:#181818;stroke-width:1.0;"/><text fill="#000000" font-family="sans-serif" font-size="13" lengthAdjust="spacing" textLength="102" x="1577" y="214.5645">verify JWT token</text><path d="M502,247.3066 L564,247.3066 L564,254.6172 L554,264.6172 L502,264.6172 L502,247.3066 " fill="#EEEEEE" style="stroke:#000000;stroke-width:1.5;"/><rect fill="none" height="459.8789" style="stroke:#000000;stroke-width:1.5;" width="1188" x="502" y="247.3066"/><text fill="#000000" font-family="sans-serif" font-size="13" font-weight="bold" lengthAdjust="spacing" textLength="17" x="517" y="260.875">alt</text><text fill="#000000" font-family="sans-serif" font-size="11" font-weight="bold" lengthAdjust="spacing" textLength="71" x="579" y="259.9414">[token valid]</text><polygon fill="#181818" points="695.5,281.9277,685.5,285.9277,695.5,289.9277,691.5,285.9277" style="stroke:#181818;stroke-width:1.0;"/><line style="stroke:#181818;stroke-width:1.0;" x1="689.5" x2="1559" y1="285.9277" y2="285.9277"/><text fill="#000000" font-family="sans-serif" font-size="13" lengthAdjust="spacing" textLength="36" x="701.5" y="281.1855">next()</text><polygon fill="#181818" points="1553,311.2383,1563,315.2383,1553,319.2383,1557,315.2383" style="stroke:#181818;stroke-width:1.0;"/><line style="stroke:#181818;stroke-width:1.0;" x1="684.5" x2="1559" y1="315.2383" y2="315.2383"/><text fill="#000000" font-family="sans-serif" font-size="13" lengthAdjust="spacing" textLength="112" x="691.5" y="310.4961">authorize('admin')</text><line style="stroke:#181818;stroke-width:1.0;" x1="1575" x2="1617" y1="344.5488" y2="344.5488"/><line style="stroke:#181818;stroke-width:1.0;" x1="1617" x2="1617" y1="344.5488" y2="357.5488"/><line style="stroke:#181818;stroke-width:1.0;" x1="1576" x2="1617" y1="357.5488" y2="357.5488"/><polygon fill="#181818" points="1586,353.5488,1576,357.5488,1586,361.5488,1582,357.5488" style="stroke:#181818;stroke-width:1.0;"/><text fill="#000000" font-family="sans-serif" font-size="13" lengthAdjust="spacing" textLength="96" x="1582" y="339.8066">check user role</text><path d="M512,372.5488 L574,372.5488 L574,379.8594 L564,389.8594 L512,389.8594 L512,372.5488 " fill="#EEEEEE" style="stroke:#000000;stroke-width:1.5;"/><rect fill="none" height="268.0605" style="stroke:#000000;stroke-width:1.5;" width="1117" x="512" y="372.5488"/><text fill="#000000" font-family="sans-serif" font-size="13" font-weight="bold" lengthAdjust="spacing" textLength="17" x="527" y="386.1172">alt</text><text fill="#000000" font-family="sans-serif" font-size="11" font-weight="bold" lengthAdjust="spacing" textLength="83" x="589" y="385.1836">[role is admin]</text><polygon fill="#181818" points="798,407.1699,788,411.1699,798,415.1699,794,411.1699" style="stroke:#181818;stroke-width:1.0;"/><line style="stroke:#181818;stroke-width:1.0;" x1="792" x2="1564" y1="411.1699" y2="411.1699"/><text fill="#000000" font-family="sans-serif" font-size="13" lengthAdjust="spacing" textLength="97" x="804" y="406.4277">createProvider()</text><polygon fill="#181818" points="950,436.4805,960,440.4805,950,444.4805,954,440.4805" style="stroke:#181818;stroke-width:1.0;"/><line style="stroke:#181818;stroke-width:1.0;" x1="787" x2="956" y1="440.4805" y2="440.4805"/><text fill="#000000" font-family="sans-serif" font-size="13" lengthAdjust="spacing" textLength="156" x="794" y="435.7383">Provider.create(req.body)</text><polygon fill="#181818" points="1078,465.791,1088,469.791,1078,473.791,1082,469.791" style="stroke:#181818;stroke-width:1.0;"/><line style="stroke:#181818;stroke-width:1.0;" x1="972" x2="1084" y1="469.791" y2="469.791"/><text fill="#000000" font-family="sans-serif" font-size="13" lengthAdjust="spacing" textLength="99" x="979" y="465.0488">ProviderSchema</text><polygon fill="#181818" points="983,495.1016,973,499.1016,983,503.1016,979,499.1016" style="stroke:#181818;stroke-width:1.0;"/><line style="stroke:#181818;stroke-width:1.0;stroke-dasharray:2.0,2.0;" x1="977" x2="1094" y1="499.1016" y2="499.1016"/><text fill="#000000" font-family="sans-serif" font-size="13" lengthAdjust="spacing" textLength="52" x="989" y="494.3594">provider</text><polygon fill="#181818" points="798,524.4121,788,528.4121,798,532.4121,794,528.4121" style="stroke:#181818;stroke-width:1.0;"/><line style="stroke:#181818;stroke-width:1.0;stroke-dasharray:2.0,2.0;" x1="792" x2="966" y1="528.4121" y2="528.4121"/><text fill="#000000" font-family="sans-serif" font-size="13" lengthAdjust="spacing" textLength="52" x="804" y="523.6699">provider</text><polygon fill="#181818" points="586,569.0332,576,573.0332,586,577.0332,582,573.0332" style="stroke:#181818;stroke-width:1.0;"/><line style="stroke:#181818;stroke-width:1.0;" x1="580" x2="781" y1="573.0332" y2="573.0332"/><text fill="#000000" font-family="sans-serif" font-size="13" lengthAdjust="spacing" textLength="89" x="592" y="552.9805">response(201)</text><text fill="#000000" font-family="sans-serif" font-size="13" lengthAdjust="spacing" textLength="93" x="592" y="568.291">{success, data}</text><line style="stroke:#000000;stroke-width:1.0;stroke-dasharray:2.0,2.0;" x1="512" x2="1629" y1="582.0332" y2="582.0332"/><text fill="#000000" font-family="sans-serif" font-size="11" font-weight="bold" lengthAdjust="spacing" textLength="105" x="517" y="592.668">[role is not admin]</text><polygon fill="#181818" points="586,628.6094,576,632.6094,586,636.6094,582,632.6094" style="stroke:#181818;stroke-width:1.0;"/><line style="stroke:#181818;stroke-width:1.0;" x1="580" x2="1559" y1="632.6094" y2="632.6094"/><text fill="#000000" font-family="sans-serif" font-size="13" lengthAdjust="spacing" textLength="89" x="592" y="612.5566">response(403)</text><text fill="#000000" font-family="sans-serif" font-size="13" lengthAdjust="spacing" textLength="131" x="592" y="627.8672">{success: false, msg}</text><line style="stroke:#000000;stroke-width:1.0;stroke-dasharray:2.0,2.0;" x1="502" x2="1690" y1="648.6094" y2="648.6094"/><text fill="#000000" font-family="sans-serif" font-size="11" font-weight="bold" lengthAdjust="spacing" textLength="82" x="507" y="659.2441">[token invalid]</text><polygon fill="#181818" points="586,695.1855,576,699.1855,586,703.1855,582,699.1855" style="stroke:#181818;stroke-width:1.0;"/><line style="stroke:#181818;stroke-width:1.0;" x1="580" x2="1564" y1="699.1855" y2="699.1855"/><text fill="#000000" font-family="sans-serif" font-size="13" lengthAdjust="spacing" textLength="89" x="592" y="679.1328">response(401)</text><text fill="#000000" font-family="sans-serif" font-size="13" lengthAdjust="spacing" textLength="131" x="592" y="694.4434">{success: false, msg}</text><line style="stroke:#000000;stroke-width:1.0;stroke-dasharray:2.0,2.0;" x1="0" x2="2369" y1="714.1855" y2="714.1855"/><text fill="#888888" font-family="sans-serif" font-size="10" lengthAdjust="spacing" textLength="186" x="2182" y="14.668">EzyCar - Car Service Booking Platform</text><text fill="#888888" font-family="sans-serif" font-size="10" lengthAdjust="spacing" textLength="55" x="1156.5" y="813.8301">Page 3 of 6</text><!--SRC=[xLdTJ-Cu47_FNs4X8LfjFvQ5kuSAaBQ0zWujMdHmkeVZ7anYYaLgzsotR1VrVx_nLvgaIPgqiAkxemziOi_yx1bxVZEJVI0u8WATVvkVOe6wIF-z9c96GuA6d3zIDa9NCLRtN8o3UyuL25_X4K6x4_YxY_WzsesnLEOj2FRGSSqVY5w7X651ETeVeDyb0Fz6HbGgWHNbh0cKeYecQASI3xMklbpVe3wUqFvilu-dwg4lp3mHxPqWc62XQ4Wdc2cqexNxfp4bJEqWB55e7hCoHqSNU8QlGq4dwkJabWr0PqQ4aRUFUNd1fx2OaTNB6qaxzX5Uyz8XPqhmE2P2PbLI4qLwOnwHs6XeAuo66T9lGOGLliEIQC5BpaRyR6X4fp0fZQmMasV38B0se-w9imQzUpT0vJwyPSyCZqa7aJ6cSGSf4hFfk8CcMCedBg8Ec1gJHU3007Pfke76aqaFjj7QIyFlTP3-fnsaX44rvmAZxpVIQWVvQT18N61azKCl50GhqjAcdu5Rsi5I1XIS7nBnw_01B0lyS3U3sUqEaCPPMVceswqZjchI08s8kgOZHgAB9tN37mahDimVKrTxG4uu0nT-UB_VXlEGqp0aKi9PQFKEqeU_2096ddIqRXgi7rnmVUOZkbMKPe2AmZFM4s-nkNbi6WV2HN0XwKFn5OFGh5Wx0kyfYxumqh8RN5H4e9OqeOFkvfPXlcCaZh4A7wwSyrhUY-q0nohngHKYCa3mspIyotGBG_nzUOYJ66vHiZFAGYu42LKJ_CCCFXm01imE6iiHmBDeQnOv6A2FqHZY_jImi4HNWiyeb2BRC4efQ8vT9cvOhf2BKK-p2zO3svBBc4PHJ9wm85csq0-NoLm59IKRJl6Ijqsk8wUiScgs5659KrvaILN9EPNHLNQvP0rDMyQPLQoLw2RL18uYOIyuYHUtJ5zPBkWtKz8Dq920tuIz_2bIo_hLB0F82a80WYmtkI8-G812x-VeueyRXwm3tJoX6OvfPE9e5IPtB6PPHhug5zZvwU9zOcSWKB3nrbwxPBNyfe5ymaTBaRhGibgmR_s2gB_8oFrMyOhkXTcHBPFyc3CcnoGPgpBNn9wnU_4bbo1_z-vuD5zYPNK097LlCX2k3FDwQR7kojgQqVoLgjvsaXqsqDM7OIzsLGrccLc367RsnyAuMdiq1UY7xmzAwTci0HHjrh7NbhAgYrk8l_-gz7_eQZzFrAxLt8RyIo1pr7zdH-LtAYktPdw_tnJnEyFMydv6DJLPfb-BzKjr7EfInHzfypnHff4no5jHhnpsgd2d_ReTv0QX-IF_YjJYJIxEBCdisiIYamJKz2-PO1Bqg5wAoPW2ETwz5sUNj6K5mvgsR3xfcTqTctVzsAFHEhoAPALxZk7yroX9Lpr_THhaBTEuhEIHxT9Mil-QMSlqALw2VALIoMHkdMiyYsfRtBDnJEjPEtYGTlMYdK7Dg0FSCc1jMS6d4BAsfVE4b5PFYNVpcz5M6ZlWPLYaNEcisYZQRtU9EZf0NEHozQOUBAs3QZhFlUQAeRgkSpRLigBGQqq0QdwYMfP7_cVAbyJz9yVeO9lrglhPpAfiIHcsZVQ1eokrUxYqKR3n5WxNRi4llwmHJO5OYrqBbtp1Ch5uWTUj4tzoHTqdefOLtIyGirpCjoaMgt1HwzFvQkNG7yyVxFnRwIXVi0niLjHLdynR4VVZYhWHKPTpD-82QNqrrxp4k6KzoOLgFQUAzm7gxfkP2PzCOvrOzpnhx-LAjVAKclh2dAy5QkPJ-UTVmQQfT9rkpQ_0fgWg_jRm_yuZF_kF0vY5iD6N-DvG0ebQP-UVps_ELsbgGAEtrF7ZKaV5iVotyaOPGuD7YIBPJdiJNavwOZX9F9P0onQh3i6cEuScRSf6hKcgVyktlKs-BjYSYTCtv9Qr-1E3I-4xmdQcsIxWsIRETdlksGFJ_q7QgBEsQeLDsZgNE_xTh9Ukgrmpb-ce7w3dnIBRZvNaiSQzs7wpNipVezKky0Kxm5TFe_y0]--></g></svg>