<?xml version="1.0" encoding="us-ascii" standalone="no"?><svg xmlns="http://www.w3.org/2000/svg" xmlns:xlink="http://www.w3.org/1999/xlink" contentStyleType="text/css" height="1001px" preserveAspectRatio="none" style="width:2376px;height:1001px;background:#FFFFFF;" version="1.1" viewBox="0 0 2376 1001" width="2376px" zoomAndPan="magnify"><defs/><g><rect fill="#FFFFFF" height="787.25" style="stroke:#181818;stroke-width:1.0;" width="10" x="35.5" y="106.7539"/><rect fill="#FFFFFF" height="787.25" style="stroke:#181818;stroke-width:1.0;" width="10" x="40.5" y="106.7539"/><rect fill="#FFFFFF" height="787.25" style="stroke:#181818;stroke-width:1.0;" width="10" x="674.5" y="106.7539"/><rect fill="#FFFFFF" height="787.25" style="stroke:#181818;stroke-width:1.0;" width="10" x="1449" y="106.7539"/><rect fill="#FFFFFF" height="787.25" style="stroke:#181818;stroke-width:1.0;" width="10" x="1454" y="106.7539"/><rect fill="#FFFFFF" height="787.25" style="stroke:#181818;stroke-width:1.0;" width="10" x="1459" y="106.7539"/><rect fill="#FFFFFF" height="787.25" style="stroke:#181818;stroke-width:1.0;" width="10" x="1464" y="106.7539"/><rect fill="#FFFFFF" height="787.25" style="stroke:#181818;stroke-width:1.0;" width="10" x="1469" y="106.7539"/><rect fill="#FFFFFF" height="748.6289" style="stroke:#181818;stroke-width:1.0;" width="10" x="1474" y="145.375"/><rect fill="#FFFFFF" height="703.3184" style="stroke:#181818;stroke-width:1.0;" width="10" x="1560" y="174.6855"/><rect fill="#FFFFFF" height="787.25" style="stroke:#181818;stroke-width:1.0;" width="10" x="1747" y="106.7539"/><rect fill="#FFFFFF" height="787.25" style="stroke:#181818;stroke-width:1.0;" width="10" x="1752" y="106.7539"/><rect fill="#FFFFFF" height="623.3867" style="stroke:#181818;stroke-width:1.0;" width="10" x="1757" y="270.6172"/><rect fill="#FFFFFF" height="385.3477" style="stroke:#181818;stroke-width:1.0;" width="10" x="1883" y="299.9277"/><rect fill="#FFFFFF" height="87.9316" style="stroke:#181818;stroke-width:1.0;" width="10" x="2112" y="329.2383"/><rect fill="#FFFFFF" height="87.9316" style="stroke:#181818;stroke-width:1.0;" width="10" x="2112" y="552.7227"/><rect fill="#FFFFFF" height="29.3105" style="stroke:#181818;stroke-width:1.0;" width="10" x="2271" y="358.5488"/><rect fill="#FFFFFF" height="29.3105" style="stroke:#181818;stroke-width:1.0;" width="10" x="2271" y="582.0332"/><rect fill="none" height="654.0078" style="stroke:#000000;stroke-width:1.5;" width="1231" x="1118" y="231.9961"/><rect fill="none" height="387.2578" style="stroke:#000000;stroke-width:1.5;" width="1211" x="1128" y="432.1699"/><rect fill="none" height="238.75" style="stroke:#000000;stroke-width:1.5;" width="1191" x="1138" y="514.1016"/><line style="stroke:#181818;stroke-width:0.5;stroke-dasharray:5.0,5.0;" x1="40" x2="40" y1="96.7539" y2="903.0039"/><line style="stroke:#181818;stroke-width:0.5;stroke-dasharray:5.0,5.0;" x1="137" x2="137" y1="96.7539" y2="903.0039"/><line style="stroke:#181818;stroke-width:0.5;stroke-dasharray:5.0,5.0;" x1="326.5" x2="326.5" y1="96.7539" y2="903.0039"/><line style="stroke:#181818;stroke-width:0.5;stroke-dasharray:5.0,5.0;" x1="469" x2="469" y1="96.7539" y2="903.0039"/><line style="stroke:#181818;stroke-width:0.5;stroke-dasharray:5.0,5.0;" x1="575" x2="575" y1="96.7539" y2="903.0039"/><line style="stroke:#181818;stroke-width:0.5;stroke-dasharray:5.0,5.0;" x1="679" x2="679" y1="96.7539" y2="903.0039"/><line style="stroke:#181818;stroke-width:0.5;stroke-dasharray:5.0,5.0;" x1="782" x2="782" y1="96.7539" y2="903.0039"/><line style="stroke:#181818;stroke-width:0.5;stroke-dasharray:5.0,5.0;" x1="966.5" x2="966.5" y1="96.7539" y2="903.0039"/><line style="stroke:#181818;stroke-width:0.5;stroke-dasharray:5.0,5.0;" x1="1095" x2="1095" y1="96.7539" y2="903.0039"/><line style="stroke:#181818;stroke-width:0.5;stroke-dasharray:5.0,5.0;" x1="1194" x2="1194" y1="96.7539" y2="903.0039"/><line style="stroke:#181818;stroke-width:0.5;stroke-dasharray:5.0,5.0;" x1="1454" x2="1454" y1="96.7539" y2="903.0039"/><line style="stroke:#181818;stroke-width:0.5;stroke-dasharray:5.0,5.0;" x1="1565" x2="1565" y1="96.7539" y2="903.0039"/><line style="stroke:#181818;stroke-width:0.5;stroke-dasharray:5.0,5.0;" x1="1752" x2="1752" y1="96.7539" y2="903.0039"/><line style="stroke:#181818;stroke-width:0.5;stroke-dasharray:5.0,5.0;" x1="1888" x2="1888" y1="96.7539" y2="903.0039"/><line style="stroke:#181818;stroke-width:0.5;stroke-dasharray:5.0,5.0;" x1="2117" x2="2117" y1="96.7539" y2="903.0039"/><line style="stroke:#181818;stroke-width:0.5;stroke-dasharray:5.0,5.0;" x1="2276" x2="2276" y1="96.7539" y2="903.0039"/><rect fill="#E2E2F0" height="46.9766" rx="2.5" ry="2.5" style="stroke:#181818;stroke-width:0.5;" width="71" x="5" y="48.7773"/><text fill="#000000" font-family="sans-serif" font-size="14" lengthAdjust="spacing" textLength="57" x="12" y="69.3125">&#171;router&#187;</text><text fill="#000000" font-family="sans-serif" font-size="14" lengthAdjust="spacing" textLength="35" x="23" y="85.8008">:auth</text><rect fill="#E2E2F0" height="46.9766" rx="2.5" ry="2.5" style="stroke:#181818;stroke-width:0.5;" width="71" x="5" y="902.0039"/><text fill="#000000" font-family="sans-serif" font-size="14" lengthAdjust="spacing" textLength="57" x="12" y="922.5391">&#171;router&#187;</text><text fill="#000000" font-family="sans-serif" font-size="14" lengthAdjust="spacing" textLength="35" x="23" y="939.0273">:auth</text><rect fill="#E2E2F0" height="46.9766" rx="2.5" ry="2.5" style="stroke:#181818;stroke-width:0.5;" width="102" x="86" y="48.7773"/><text fill="#000000" font-family="sans-serif" font-size="14" lengthAdjust="spacing" textLength="88" x="93" y="69.3125">&#171;controllers&#187;</text><text fill="#000000" font-family="sans-serif" font-size="14" lengthAdjust="spacing" textLength="35" x="119.5" y="85.8008">:auth</text><rect fill="#E2E2F0" height="46.9766" rx="2.5" ry="2.5" style="stroke:#181818;stroke-width:0.5;" width="102" x="86" y="902.0039"/><text fill="#000000" font-family="sans-serif" font-size="14" lengthAdjust="spacing" textLength="88" x="93" y="922.5391">&#171;controllers&#187;</text><text fill="#000000" font-family="sans-serif" font-size="14" lengthAdjust="spacing" textLength="35" x="119.5" y="939.0273">:auth</text><rect fill="#E2E2F0" height="46.9766" rx="2.5" ry="2.5" style="stroke:#181818;stroke-width:0.5;" width="71" x="291.5" y="48.7773"/><text fill="#000000" font-family="sans-serif" font-size="14" lengthAdjust="spacing" textLength="57" x="298.5" y="69.3125">&#171;model&#187;</text><text fill="#000000" font-family="sans-serif" font-size="14" lengthAdjust="spacing" textLength="35" x="309.5" y="85.8008">:User</text><rect fill="#E2E2F0" height="46.9766" rx="2.5" ry="2.5" style="stroke:#181818;stroke-width:0.5;" width="71" x="291.5" y="902.0039"/><text fill="#000000" font-family="sans-serif" font-size="14" lengthAdjust="spacing" textLength="57" x="298.5" y="922.5391">&#171;model&#187;</text><text fill="#000000" font-family="sans-serif" font-size="14" lengthAdjust="spacing" textLength="35" x="309.5" y="939.0273">:User</text><text fill="#000000" font-family="sans-serif" font-size="14" lengthAdjust="spacing" textLength="80" x="426" y="77.3125">&#171;MongoDB&#187;</text><text fill="#000000" font-family="sans-serif" font-size="14" lengthAdjust="spacing" textLength="41" x="445.5" y="93.8008">:users</text><path d="M451,27.7773 C451,17.7773 469,17.7773 469,17.7773 C469,17.7773 487,17.7773 487,27.7773 L487,53.7773 C487,63.7773 469,63.7773 469,63.7773 C469,63.7773 451,63.7773 451,53.7773 L451,27.7773 " fill="#E2E2F0" style="stroke:#181818;stroke-width:1.5;"/><path d="M451,27.7773 C451,37.7773 469,37.7773 469,37.7773 C469,37.7773 487,37.7773 487,27.7773 " fill="none" style="stroke:#181818;stroke-width:1.5;"/><text fill="#000000" font-family="sans-serif" font-size="14" lengthAdjust="spacing" textLength="80" x="426" y="915.5391">&#171;MongoDB&#187;</text><text fill="#000000" font-family="sans-serif" font-size="14" lengthAdjust="spacing" textLength="41" x="445.5" y="932.0273">:users</text><path d="M451,944.9805 C451,934.9805 469,934.9805 469,934.9805 C469,934.9805 487,934.9805 487,944.9805 L487,970.9805 C487,980.9805 469,980.9805 469,980.9805 C469,980.9805 451,980.9805 451,970.9805 L451,944.9805 " fill="#E2E2F0" style="stroke:#181818;stroke-width:1.5;"/><path d="M451,944.9805 C451,954.9805 469,954.9805 469,954.9805 C469,954.9805 487,954.9805 487,944.9805 " fill="none" style="stroke:#181818;stroke-width:1.5;"/><rect fill="#E2E2F0" height="30.4883" rx="2.5" ry="2.5" style="stroke:#181818;stroke-width:0.5;" width="106" x="522" y="65.2656"/><text fill="#000000" font-family="sans-serif" font-size="14" lengthAdjust="spacing" textLength="92" x="529" y="85.8008">Admin/Client</text><rect fill="#E2E2F0" height="30.4883" rx="2.5" ry="2.5" style="stroke:#181818;stroke-width:0.5;" width="106" x="522" y="902.0039"/><text fill="#000000" font-family="sans-serif" font-size="14" lengthAdjust="spacing" textLength="92" x="529" y="922.5391">Admin/Client</text><rect fill="#E2E2F0" height="46.9766" rx="2.5" ry="2.5" style="stroke:#181818;stroke-width:0.5;" width="83" x="638" y="48.7773"/><text fill="#000000" font-family="sans-serif" font-size="14" lengthAdjust="spacing" textLength="57" x="651" y="69.3125">&#171;router&#187;</text><text fill="#000000" font-family="sans-serif" font-size="14" lengthAdjust="spacing" textLength="69" x="645" y="85.8008">:providers</text><rect fill="#E2E2F0" height="46.9766" rx="2.5" ry="2.5" style="stroke:#181818;stroke-width:0.5;" width="83" x="638" y="902.0039"/><text fill="#000000" font-family="sans-serif" font-size="14" lengthAdjust="spacing" textLength="57" x="651" y="922.5391">&#171;router&#187;</text><text fill="#000000" font-family="sans-serif" font-size="14" lengthAdjust="spacing" textLength="69" x="645" y="939.0273">:providers</text><rect fill="#E2E2F0" height="46.9766" rx="2.5" ry="2.5" style="stroke:#181818;stroke-width:0.5;" width="102" x="731" y="48.7773"/><text fill="#000000" font-family="sans-serif" font-size="14" lengthAdjust="spacing" textLength="88" x="738" y="69.3125">&#171;controllers&#187;</text><text fill="#000000" font-family="sans-serif" font-size="14" lengthAdjust="spacing" textLength="69" x="747.5" y="85.8008">:providers</text><rect fill="#E2E2F0" height="46.9766" rx="2.5" ry="2.5" style="stroke:#181818;stroke-width:0.5;" width="102" x="731" y="902.0039"/><text fill="#000000" font-family="sans-serif" font-size="14" lengthAdjust="spacing" textLength="88" x="738" y="922.5391">&#171;controllers&#187;</text><text fill="#000000" font-family="sans-serif" font-size="14" lengthAdjust="spacing" textLength="69" x="747.5" y="939.0273">:providers</text><rect fill="#E2E2F0" height="46.9766" rx="2.5" ry="2.5" style="stroke:#181818;stroke-width:0.5;" width="75" x="929.5" y="48.7773"/><text fill="#000000" font-family="sans-serif" font-size="14" lengthAdjust="spacing" textLength="57" x="938.5" y="69.3125">&#171;model&#187;</text><text fill="#000000" font-family="sans-serif" font-size="14" lengthAdjust="spacing" textLength="61" x="936.5" y="85.8008">:Provider</text><rect fill="#E2E2F0" height="46.9766" rx="2.5" ry="2.5" style="stroke:#181818;stroke-width:0.5;" width="75" x="929.5" y="902.0039"/><text fill="#000000" font-family="sans-serif" font-size="14" lengthAdjust="spacing" textLength="57" x="938.5" y="922.5391">&#171;model&#187;</text><text fill="#000000" font-family="sans-serif" font-size="14" lengthAdjust="spacing" textLength="61" x="936.5" y="939.0273">:Provider</text><text fill="#000000" font-family="sans-serif" font-size="14" lengthAdjust="spacing" textLength="80" x="1052" y="77.3125">&#171;MongoDB&#187;</text><text fill="#000000" font-family="sans-serif" font-size="14" lengthAdjust="spacing" textLength="69" x="1057.5" y="93.8008">:providers</text><path d="M1077,27.7773 C1077,17.7773 1095,17.7773 1095,17.7773 C1095,17.7773 1113,17.7773 1113,27.7773 L1113,53.7773 C1113,63.7773 1095,63.7773 1095,63.7773 C1095,63.7773 1077,63.7773 1077,53.7773 L1077,27.7773 " fill="#E2E2F0" style="stroke:#181818;stroke-width:1.5;"/><path d="M1077,27.7773 C1077,37.7773 1095,37.7773 1095,37.7773 C1095,37.7773 1113,37.7773 1113,27.7773 " fill="none" style="stroke:#181818;stroke-width:1.5;"/><text fill="#000000" font-family="sans-serif" font-size="14" lengthAdjust="spacing" textLength="80" x="1052" y="915.5391">&#171;MongoDB&#187;</text><text fill="#000000" font-family="sans-serif" font-size="14" lengthAdjust="spacing" textLength="69" x="1057.5" y="932.0273">:providers</text><path d="M1077,944.9805 C1077,934.9805 1095,934.9805 1095,934.9805 C1095,934.9805 1113,934.9805 1113,944.9805 L1113,970.9805 C1113,980.9805 1095,980.9805 1095,980.9805 C1095,980.9805 1077,980.9805 1077,970.9805 L1077,944.9805 " fill="#E2E2F0" style="stroke:#181818;stroke-width:1.5;"/><path d="M1077,944.9805 C1077,954.9805 1095,954.9805 1095,954.9805 C1095,954.9805 1113,954.9805 1113,944.9805 " fill="none" style="stroke:#181818;stroke-width:1.5;"/><rect fill="#E2E2F0" height="30.4883" rx="2.5" ry="2.5" style="stroke:#181818;stroke-width:0.5;" width="92" x="1148" y="65.2656"/><text fill="#000000" font-family="sans-serif" font-size="14" lengthAdjust="spacing" textLength="78" x="1155" y="85.8008">User/Client</text><rect fill="#E2E2F0" height="30.4883" rx="2.5" ry="2.5" style="stroke:#181818;stroke-width:0.5;" width="92" x="1148" y="902.0039"/><text fill="#000000" font-family="sans-serif" font-size="14" lengthAdjust="spacing" textLength="78" x="1155" y="922.5391">User/Client</text><rect fill="#E2E2F0" height="46.9766" rx="2.5" ry="2.5" style="stroke:#181818;stroke-width:0.5;" width="94" x="1407" y="48.7773"/><text fill="#000000" font-family="sans-serif" font-size="14" lengthAdjust="spacing" textLength="80" x="1414" y="69.3125">&#171;JavaScript&#187;</text><text fill="#000000" font-family="sans-serif" font-size="14" lengthAdjust="spacing" textLength="46" x="1431" y="85.8008">:server</text><rect fill="#E2E2F0" height="46.9766" rx="2.5" ry="2.5" style="stroke:#181818;stroke-width:0.5;" width="94" x="1407" y="902.0039"/><text fill="#000000" font-family="sans-serif" font-size="14" lengthAdjust="spacing" textLength="80" x="1414" y="922.5391">&#171;JavaScript&#187;</text><text fill="#000000" font-family="sans-serif" font-size="14" lengthAdjust="spacing" textLength="46" x="1431" y="939.0273">:server</text><rect fill="#E2E2F0" height="46.9766" rx="2.5" ry="2.5" style="stroke:#181818;stroke-width:0.5;" width="108" x="1511" y="48.7773"/><text fill="#000000" font-family="sans-serif" font-size="14" lengthAdjust="spacing" textLength="94" x="1518" y="69.3125">&#171;middleware&#187;</text><text fill="#000000" font-family="sans-serif" font-size="14" lengthAdjust="spacing" textLength="35" x="1547.5" y="85.8008">:auth</text><rect fill="#E2E2F0" height="46.9766" rx="2.5" ry="2.5" style="stroke:#181818;stroke-width:0.5;" width="108" x="1511" y="902.0039"/><text fill="#000000" font-family="sans-serif" font-size="14" lengthAdjust="spacing" textLength="94" x="1518" y="922.5391">&#171;middleware&#187;</text><text fill="#000000" font-family="sans-serif" font-size="14" lengthAdjust="spacing" textLength="35" x="1547.5" y="939.0273">:auth</text><rect fill="#E2E2F0" height="46.9766" rx="2.5" ry="2.5" style="stroke:#181818;stroke-width:0.5;" width="82" x="1711" y="48.7773"/><text fill="#000000" font-family="sans-serif" font-size="14" lengthAdjust="spacing" textLength="57" x="1723.5" y="69.3125">&#171;router&#187;</text><text fill="#000000" font-family="sans-serif" font-size="14" lengthAdjust="spacing" textLength="68" x="1718" y="85.8008">:bookings</text><rect fill="#E2E2F0" height="46.9766" rx="2.5" ry="2.5" style="stroke:#181818;stroke-width:0.5;" width="82" x="1711" y="902.0039"/><text fill="#000000" font-family="sans-serif" font-size="14" lengthAdjust="spacing" textLength="57" x="1723.5" y="922.5391">&#171;router&#187;</text><text fill="#000000" font-family="sans-serif" font-size="14" lengthAdjust="spacing" textLength="68" x="1718" y="939.0273">:bookings</text><rect fill="#E2E2F0" height="46.9766" rx="2.5" ry="2.5" style="stroke:#181818;stroke-width:0.5;" width="102" x="1837" y="48.7773"/><text fill="#000000" font-family="sans-serif" font-size="14" lengthAdjust="spacing" textLength="88" x="1844" y="69.3125">&#171;controllers&#187;</text><text fill="#000000" font-family="sans-serif" font-size="14" lengthAdjust="spacing" textLength="68" x="1854" y="85.8008">:bookings</text><rect fill="#E2E2F0" height="46.9766" rx="2.5" ry="2.5" style="stroke:#181818;stroke-width:0.5;" width="102" x="1837" y="902.0039"/><text fill="#000000" font-family="sans-serif" font-size="14" lengthAdjust="spacing" textLength="88" x="1844" y="922.5391">&#171;controllers&#187;</text><text fill="#000000" font-family="sans-serif" font-size="14" lengthAdjust="spacing" textLength="68" x="1854" y="939.0273">:bookings</text><rect fill="#E2E2F0" height="46.9766" rx="2.5" ry="2.5" style="stroke:#181818;stroke-width:0.5;" width="74" x="2080" y="48.7773"/><text fill="#000000" font-family="sans-serif" font-size="14" lengthAdjust="spacing" textLength="57" x="2088.5" y="69.3125">&#171;model&#187;</text><text fill="#000000" font-family="sans-serif" font-size="14" lengthAdjust="spacing" textLength="60" x="2087" y="85.8008">:Booking</text><rect fill="#E2E2F0" height="46.9766" rx="2.5" ry="2.5" style="stroke:#181818;stroke-width:0.5;" width="74" x="2080" y="902.0039"/><text fill="#000000" font-family="sans-serif" font-size="14" lengthAdjust="spacing" textLength="57" x="2088.5" y="922.5391">&#171;model&#187;</text><text fill="#000000" font-family="sans-serif" font-size="14" lengthAdjust="spacing" textLength="60" x="2087" y="939.0273">:Booking</text><text fill="#000000" font-family="sans-serif" font-size="14" lengthAdjust="spacing" textLength="80" x="2233" y="77.3125">&#171;MongoDB&#187;</text><text fill="#000000" font-family="sans-serif" font-size="14" lengthAdjust="spacing" textLength="68" x="2239" y="93.8008">:bookings</text><path d="M2258,27.7773 C2258,17.7773 2276,17.7773 2276,17.7773 C2276,17.7773 2294,17.7773 2294,27.7773 L2294,53.7773 C2294,63.7773 2276,63.7773 2276,63.7773 C2276,63.7773 2258,63.7773 2258,53.7773 L2258,27.7773 " fill="#E2E2F0" style="stroke:#181818;stroke-width:1.5;"/><path d="M2258,27.7773 C2258,37.7773 2276,37.7773 2276,37.7773 C2276,37.7773 2294,37.7773 2294,27.7773 " fill="none" style="stroke:#181818;stroke-width:1.5;"/><text fill="#000000" font-family="sans-serif" font-size="14" lengthAdjust="spacing" textLength="80" x="2233" y="915.5391">&#171;MongoDB&#187;</text><text fill="#000000" font-family="sans-serif" font-size="14" lengthAdjust="spacing" textLength="68" x="2239" y="932.0273">:bookings</text><path d="M2258,944.9805 C2258,934.9805 2276,934.9805 2276,934.9805 C2276,934.9805 2294,934.9805 2294,944.9805 L2294,970.9805 C2294,980.9805 2276,980.9805 2276,980.9805 C2276,980.9805 2258,980.9805 2258,970.9805 L2258,944.9805 " fill="#E2E2F0" style="stroke:#181818;stroke-width:1.5;"/><path d="M2258,944.9805 C2258,954.9805 2276,954.9805 2276,954.9805 C2276,954.9805 2294,954.9805 2294,944.9805 " fill="none" style="stroke:#181818;stroke-width:1.5;"/><rect fill="#FFFFFF" height="787.25" style="stroke:#181818;stroke-width:1.0;" width="10" x="35.5" y="106.7539"/><rect fill="#FFFFFF" height="787.25" style="stroke:#181818;stroke-width:1.0;" width="10" x="40.5" y="106.7539"/><rect fill="#FFFFFF" height="787.25" style="stroke:#181818;stroke-width:1.0;" width="10" x="674.5" y="106.7539"/><rect fill="#FFFFFF" height="787.25" style="stroke:#181818;stroke-width:1.0;" width="10" x="1449" y="106.7539"/><rect fill="#FFFFFF" height="787.25" style="stroke:#181818;stroke-width:1.0;" width="10" x="1454" y="106.7539"/><rect fill="#FFFFFF" height="787.25" style="stroke:#181818;stroke-width:1.0;" width="10" x="1459" y="106.7539"/><rect fill="#FFFFFF" height="787.25" style="stroke:#181818;stroke-width:1.0;" width="10" x="1464" y="106.7539"/><rect fill="#FFFFFF" height="787.25" style="stroke:#181818;stroke-width:1.0;" width="10" x="1469" y="106.7539"/><rect fill="#FFFFFF" height="748.6289" style="stroke:#181818;stroke-width:1.0;" width="10" x="1474" y="145.375"/><rect fill="#FFFFFF" height="703.3184" style="stroke:#181818;stroke-width:1.0;" width="10" x="1560" y="174.6855"/><rect fill="#FFFFFF" height="787.25" style="stroke:#181818;stroke-width:1.0;" width="10" x="1747" y="106.7539"/><rect fill="#FFFFFF" height="787.25" style="stroke:#181818;stroke-width:1.0;" width="10" x="1752" y="106.7539"/><rect fill="#FFFFFF" height="623.3867" style="stroke:#181818;stroke-width:1.0;" width="10" x="1757" y="270.6172"/><rect fill="#FFFFFF" height="385.3477" style="stroke:#181818;stroke-width:1.0;" width="10" x="1883" y="299.9277"/><rect fill="#FFFFFF" height="87.9316" style="stroke:#181818;stroke-width:1.0;" width="10" x="2112" y="329.2383"/><rect fill="#FFFFFF" height="87.9316" style="stroke:#181818;stroke-width:1.0;" width="10" x="2112" y="552.7227"/><rect fill="#FFFFFF" height="29.3105" style="stroke:#181818;stroke-width:1.0;" width="10" x="2271" y="358.5488"/><rect fill="#FFFFFF" height="29.3105" style="stroke:#181818;stroke-width:1.0;" width="10" x="2271" y="582.0332"/><line style="stroke:#000000;stroke-width:1.0;stroke-dasharray:2.0,2.0;" x1="0" x2="2369" y1="107.7539" y2="107.7539"/><polygon fill="#181818" points="1462,141.375,1472,145.375,1462,149.375,1466,145.375" style="stroke:#181818;stroke-width:1.0;"/><line style="stroke:#181818;stroke-width:1.0;" x1="1194" x2="1468" y1="145.375" y2="145.375"/><text fill="#000000" font-family="sans-serif" font-size="13" lengthAdjust="spacing" textLength="187" x="1201" y="125.3223">DELETE /api/v1/bookings/:id</text><text fill="#000000" font-family="sans-serif" font-size="13" lengthAdjust="spacing" textLength="172" x="1201" y="140.6328">Authorization: Bearer token</text><polygon fill="#181818" points="1548,170.6855,1558,174.6855,1548,178.6855,1552,174.6855" style="stroke:#181818;stroke-width:1.0;"/><line style="stroke:#181818;stroke-width:1.0;" x1="1484" x2="1554" y1="174.6855" y2="174.6855"/><text fill="#000000" font-family="sans-serif" font-size="13" lengthAdjust="spacing" textLength="53" x="1491" y="169.9434">protect()</text><line style="stroke:#181818;stroke-width:1.0;" x1="1570" x2="1612" y1="203.9961" y2="203.9961"/><line style="stroke:#181818;stroke-width:1.0;" x1="1612" x2="1612" y1="203.9961" y2="216.9961"/><line style="stroke:#181818;stroke-width:1.0;" x1="1571" x2="1612" y1="216.9961" y2="216.9961"/><polygon fill="#181818" points="1581,212.9961,1571,216.9961,1581,220.9961,1577,216.9961" style="stroke:#181818;stroke-width:1.0;"/><text fill="#000000" font-family="sans-serif" font-size="13" lengthAdjust="spacing" textLength="102" x="1577" y="199.2539">verify JWT token</text><path d="M1118,231.9961 L1180,231.9961 L1180,239.3066 L1170,249.3066 L1118,249.3066 L1118,231.9961 " fill="#EEEEEE" style="stroke:#000000;stroke-width:1.5;"/><rect fill="none" height="654.0078" style="stroke:#000000;stroke-width:1.5;" width="1231" x="1118" y="231.9961"/><text fill="#000000" font-family="sans-serif" font-size="13" font-weight="bold" lengthAdjust="spacing" textLength="17" x="1133" y="245.5645">alt</text><text fill="#000000" font-family="sans-serif" font-size="11" font-weight="bold" lengthAdjust="spacing" textLength="71" x="1195" y="244.6309">[token valid]</text><polygon fill="#181818" points="1745,266.6172,1755,270.6172,1745,274.6172,1749,270.6172" style="stroke:#181818;stroke-width:1.0;"/><line style="stroke:#181818;stroke-width:1.0;" x1="1570" x2="1751" y1="270.6172" y2="270.6172"/><text fill="#000000" font-family="sans-serif" font-size="13" lengthAdjust="spacing" textLength="36" x="1577" y="265.875">next()</text><polygon fill="#181818" points="1871,295.9277,1881,299.9277,1871,303.9277,1875,299.9277" style="stroke:#181818;stroke-width:1.0;"/><line style="stroke:#181818;stroke-width:1.0;" x1="1767" x2="1877" y1="299.9277" y2="299.9277"/><text fill="#000000" font-family="sans-serif" font-size="13" lengthAdjust="spacing" textLength="97" x="1774" y="295.1855">deleteBooking()</text><polygon fill="#181818" points="2100,325.2383,2110,329.2383,2100,333.2383,2104,329.2383" style="stroke:#181818;stroke-width:1.0;"/><line style="stroke:#181818;stroke-width:1.0;" x1="1893" x2="2106" y1="329.2383" y2="329.2383"/><text fill="#000000" font-family="sans-serif" font-size="13" lengthAdjust="spacing" textLength="200" x="1900" y="324.4961">Booking.findById(req.params.id)</text><polygon fill="#181818" points="2259,354.5488,2269,358.5488,2259,362.5488,2263,358.5488" style="stroke:#181818;stroke-width:1.0;"/><line style="stroke:#181818;stroke-width:1.0;" x1="2122" x2="2265" y1="358.5488" y2="358.5488"/><text fill="#000000" font-family="sans-serif" font-size="13" lengthAdjust="spacing" textLength="81" x="2129" y="353.8066">find booking</text><polygon fill="#181818" points="2133,383.8594,2123,387.8594,2133,391.8594,2129,387.8594" style="stroke:#181818;stroke-width:1.0;"/><line style="stroke:#181818;stroke-width:1.0;stroke-dasharray:2.0,2.0;" x1="2127" x2="2275" y1="387.8594" y2="387.8594"/><text fill="#000000" font-family="sans-serif" font-size="13" lengthAdjust="spacing" textLength="52" x="2139" y="383.1172">booking</text><polygon fill="#181818" points="1904,413.1699,1894,417.1699,1904,421.1699,1900,417.1699" style="stroke:#181818;stroke-width:1.0;"/><line style="stroke:#181818;stroke-width:1.0;stroke-dasharray:2.0,2.0;" x1="1898" x2="2116" y1="417.1699" y2="417.1699"/><text fill="#000000" font-family="sans-serif" font-size="13" lengthAdjust="spacing" textLength="52" x="1910" y="412.4277">booking</text><path d="M1128,432.1699 L1190,432.1699 L1190,439.4805 L1180,449.4805 L1128,449.4805 L1128,432.1699 " fill="#EEEEEE" style="stroke:#000000;stroke-width:1.5;"/><rect fill="none" height="387.2578" style="stroke:#000000;stroke-width:1.5;" width="1211" x="1128" y="432.1699"/><text fill="#000000" font-family="sans-serif" font-size="13" font-weight="bold" lengthAdjust="spacing" textLength="17" x="1143" y="445.7383">alt</text><text fill="#000000" font-family="sans-serif" font-size="11" font-weight="bold" lengthAdjust="spacing" textLength="90" x="1205" y="444.8047">[booking exists]</text><line style="stroke:#181818;stroke-width:1.0;" x1="1893" x2="1935" y1="486.1016" y2="486.1016"/><line style="stroke:#181818;stroke-width:1.0;" x1="1935" x2="1935" y1="486.1016" y2="499.1016"/><line style="stroke:#181818;stroke-width:1.0;" x1="1894" x2="1935" y1="499.1016" y2="499.1016"/><polygon fill="#181818" points="1904,495.1016,1894,499.1016,1904,503.1016,1900,499.1016" style="stroke:#181818;stroke-width:1.0;"/><text fill="#000000" font-family="sans-serif" font-size="13" lengthAdjust="spacing" textLength="125" x="1900" y="466.0488">check authorization</text><text fill="#000000" font-family="sans-serif" font-size="13" lengthAdjust="spacing" textLength="106" x="1900" y="481.3594">(owner or admin)</text><path d="M1138,514.1016 L1200,514.1016 L1200,521.4121 L1190,531.4121 L1138,531.4121 L1138,514.1016 " fill="#EEEEEE" style="stroke:#000000;stroke-width:1.5;"/><rect fill="none" height="238.75" style="stroke:#000000;stroke-width:1.5;" width="1191" x="1138" y="514.1016"/><text fill="#000000" font-family="sans-serif" font-size="13" font-weight="bold" lengthAdjust="spacing" textLength="17" x="1153" y="527.6699">alt</text><text fill="#000000" font-family="sans-serif" font-size="11" font-weight="bold" lengthAdjust="spacing" textLength="67" x="1215" y="526.7363">[authorized]</text><polygon fill="#181818" points="2100,548.7227,2110,552.7227,2100,556.7227,2104,552.7227" style="stroke:#181818;stroke-width:1.0;"/><line style="stroke:#181818;stroke-width:1.0;" x1="1893" x2="2106" y1="552.7227" y2="552.7227"/><text fill="#000000" font-family="sans-serif" font-size="13" lengthAdjust="spacing" textLength="127" x="1900" y="547.9805">booking.deleteOne()</text><polygon fill="#181818" points="2259,578.0332,2269,582.0332,2259,586.0332,2263,582.0332" style="stroke:#181818;stroke-width:1.0;"/><line style="stroke:#181818;stroke-width:1.0;" x1="2122" x2="2265" y1="582.0332" y2="582.0332"/><text fill="#000000" font-family="sans-serif" font-size="13" lengthAdjust="spacing" textLength="94" x="2129" y="577.291">delete booking</text><polygon fill="#181818" points="2133,607.3438,2123,611.3438,2133,615.3438,2129,611.3438" style="stroke:#181818;stroke-width:1.0;"/><line style="stroke:#181818;stroke-width:1.0;stroke-dasharray:2.0,2.0;" x1="2127" x2="2275" y1="611.3438" y2="611.3438"/><text fill="#000000" font-family="sans-serif" font-size="13" lengthAdjust="spacing" textLength="50" x="2139" y="606.6016">success</text><polygon fill="#181818" points="1904,636.6543,1894,640.6543,1904,644.6543,1900,640.6543" style="stroke:#181818;stroke-width:1.0;"/><line style="stroke:#181818;stroke-width:1.0;stroke-dasharray:2.0,2.0;" x1="1898" x2="2116" y1="640.6543" y2="640.6543"/><text fill="#000000" font-family="sans-serif" font-size="13" lengthAdjust="spacing" textLength="50" x="1910" y="635.9121">success</text><polygon fill="#181818" points="1205,681.2754,1195,685.2754,1205,689.2754,1201,685.2754" style="stroke:#181818;stroke-width:1.0;"/><line style="stroke:#181818;stroke-width:1.0;" x1="1199" x2="1887" y1="685.2754" y2="685.2754"/><text fill="#000000" font-family="sans-serif" font-size="13" lengthAdjust="spacing" textLength="89" x="1211" y="665.2227">response(200)</text><text fill="#000000" font-family="sans-serif" font-size="13" lengthAdjust="spacing" textLength="109" x="1211" y="680.5332">{success, data: {}}</text><line style="stroke:#000000;stroke-width:1.0;stroke-dasharray:2.0,2.0;" x1="1138" x2="2329" y1="694.2754" y2="694.2754"/><text fill="#000000" font-family="sans-serif" font-size="11" font-weight="bold" lengthAdjust="spacing" textLength="89" x="1143" y="704.9102">[not authorized]</text><polygon fill="#181818" points="1205,740.8516,1195,744.8516,1205,748.8516,1201,744.8516" style="stroke:#181818;stroke-width:1.0;"/><line style="stroke:#181818;stroke-width:1.0;" x1="1199" x2="1887" y1="744.8516" y2="744.8516"/><text fill="#000000" font-family="sans-serif" font-size="13" lengthAdjust="spacing" textLength="89" x="1211" y="724.7988">response(401)</text><text fill="#000000" font-family="sans-serif" font-size="13" lengthAdjust="spacing" textLength="131" x="1211" y="740.1094">{success: false, msg}</text><line style="stroke:#000000;stroke-width:1.0;stroke-dasharray:2.0,2.0;" x1="1128" x2="2339" y1="760.8516" y2="760.8516"/><text fill="#000000" font-family="sans-serif" font-size="11" font-weight="bold" lengthAdjust="spacing" textLength="113" x="1133" y="771.4863">[booking not found]</text><polygon fill="#181818" points="1205,807.4277,1195,811.4277,1205,815.4277,1201,811.4277" style="stroke:#181818;stroke-width:1.0;"/><line style="stroke:#181818;stroke-width:1.0;" x1="1199" x2="1887" y1="811.4277" y2="811.4277"/><text fill="#000000" font-family="sans-serif" font-size="13" lengthAdjust="spacing" textLength="89" x="1211" y="791.375">response(404)</text><text fill="#000000" font-family="sans-serif" font-size="13" lengthAdjust="spacing" textLength="131" x="1211" y="806.6855">{success: false, msg}</text><line style="stroke:#000000;stroke-width:1.0;stroke-dasharray:2.0,2.0;" x1="1118" x2="2349" y1="827.4277" y2="827.4277"/><text fill="#000000" font-family="sans-serif" font-size="11" font-weight="bold" lengthAdjust="spacing" textLength="82" x="1123" y="838.0625">[token invalid]</text><polygon fill="#181818" points="1205,874.0039,1195,878.0039,1205,882.0039,1201,878.0039" style="stroke:#181818;stroke-width:1.0;"/><line style="stroke:#181818;stroke-width:1.0;" x1="1199" x2="1564" y1="878.0039" y2="878.0039"/><text fill="#000000" font-family="sans-serif" font-size="13" lengthAdjust="spacing" textLength="89" x="1211" y="857.9512">response(401)</text><text fill="#000000" font-family="sans-serif" font-size="13" lengthAdjust="spacing" textLength="131" x="1211" y="873.2617">{success: false, msg}</text><text fill="#888888" font-family="sans-serif" font-size="10" lengthAdjust="spacing" textLength="186" x="2182" y="14.668">EzyCar - Car Service Booking Platform</text><text fill="#888888" font-family="sans-serif" font-size="10" lengthAdjust="spacing" textLength="55" x="1156.5" y="991.6484">Page 6 of 6</text><!--SRC=[xLdTJ-Cu47_FNs4X8LfjFvQ5kuSAaBQ0zWujMdHmkeVZ7anYYaLgzsotR1VrVx_nLvgaIPgqiAkxemziOi_yx1bxVZEJVI0u8WATVvkVOe6wIF-z9c96GuA6d3zIDa9NCLRtN8o3UyuL25_X4K6x4_YxY_WzsesnLEOj2FRGSSqVY5w7X651ETeVeDyb0Fz6HbGgWHNbh0cKeYecQASI3xMklbpVe3wUqFvilu-dwg4lp3mHxPqWc62XQ4Wdc2cqexNxfp4bJEqWB55e7hCoHqSNU8QlGq4dwkJabWr0PqQ4aRUFUNd1fx2OaTNB6qaxzX5Uyz8XPqhmE2P2PbLI4qLwOnwHs6XeAuo66T9lGOGLliEIQC5BpaRyR6X4fp0fZQmMasV38B0se-w9imQzUpT0vJwyPSyCZqa7aJ6cSGSf4hFfk8CcMCedBg8Ec1gJHU3007Pfke76aqaFjj7QIyFlTP3-fnsaX44rvmAZxpVIQWVvQT18N61azKCl50GhqjAcdu5Rsi5I1XIS7nBnw_01B0lyS3U3sUqEaCPPMVceswqZjchI08s8kgOZHgAB9tN37mahDimVKrTxG4uu0nT-UB_VXlEGqp0aKi9PQFKEqeU_2096ddIqRXgi7rnmVUOZkbMKPe2AmZFM4s-nkNbi6WV2HN0XwKFn5OFGh5Wx0kyfYxumqh8RN5H4e9OqeOFkvfPXlcCaZh4A7wwSyrhUY-q0nohngHKYCa3mspIyotGBG_nzUOYJ66vHiZFAGYu42LKJ_CCCFXm01imE6iiHmBDeQnOv6A2FqHZY_jImi4HNWiyeb2BRC4efQ8vT9cvOhf2BKK-p2zO3svBBc4PHJ9wm85csq0-NoLm59IKRJl6Ijqsk8wUiScgs5659KrvaILN9EPNHLNQvP0rDMyQPLQoLw2RL18uYOIyuYHUtJ5zPBkWtKz8Dq920tuIz_2bIo_hLB0F82a80WYmtkI8-G812x-VeueyRXwm3tJoX6OvfPE9e5IPtB6PPHhug5zZvwU9zOcSWKB3nrbwxPBNyfe5ymaTBaRhGibgmR_s2gB_8oFrMyOhkXTcHBPFyc3CcnoGPgpBNn9wnU_4bbo1_z-vuD5zYPNK097LlCX2k3FDwQR7kojgQqVoLgjvsaXqsqDM7OIzsLGrccLc367RsnyAuMdiq1UY7xmzAwTci0HHjrh7NbhAgYrk8l_-gz7_eQZzFrAxLt8RyIo1pr7zdH-LtAYktPdw_tnJnEyFMydv6DJLPfb-BzKjr7EfInHzfypnHff4no5jHhnpsgd2d_ReTv0QX-IF_YjJYJIxEBCdisiIYamJKz2-PO1Bqg5wAoPW2ETwz5sUNj6K5mvgsR3xfcTqTctVzsAFHEhoAPALxZk7yroX9Lpr_THhaBTEuhEIHxT9Mil-QMSlqALw2VALIoMHkdMiyYsfRtBDnJEjPEtYGTlMYdK7Dg0FSCc1jMS6d4BAsfVE4b5PFYNVpcz5M6ZlWPLYaNEcisYZQRtU9EZf0NEHozQOUBAs3QZhFlUQAeRgkSpRLigBGQqq0QdwYMfP7_cVAbyJz9yVeO9lrglhPpAfiIHcsZVQ1eokrUxYqKR3n5WxNRi4llwmHJO5OYrqBbtp1Ch5uWTUj4tzoHTqdefOLtIyGirpCjoaMgt1HwzFvQkNG7yyVxFnRwIXVi0niLjHLdynR4VVZYhWHKPTpD-82QNqrrxp4k6KzoOLgFQUAzm7gxfkP2PzCOvrOzpnhx-LAjVAKclh2dAy5QkPJ-UTVmQQfT9rkpQ_0fgWg_jRm_yuZF_kF0vY5iD6N-DvG0ebQP-UVps_ELsbgGAEtrF7ZKaV5iVotyaOPGuD7YIBPJdiJNavwOZX9F9P0onQh3i6cEuScRSf6hKcgVyktlKs-BjYSYTCtv9Qr-1E3I-4xmdQcsIxWsIRETdlksGFJ_q7QgBEsQeLDsZgNE_xTh9Ukgrmpb-ce7w3dnIBRZvNaiSQzs7wpNipVezKky0Kxm5TFe_y0]--></g></svg>