<?xml version="1.0" encoding="us-ascii" standalone="no"?><svg xmlns="http://www.w3.org/2000/svg" xmlns:xlink="http://www.w3.org/1999/xlink" contentStyleType="text/css" height="561px" preserveAspectRatio="none" style="width:2376px;height:561px;background:#FFFFFF;" version="1.1" viewBox="0 0 2376 561" width="2376px" zoomAndPan="magnify"><defs/><g><text fill="#000000" font-family="sans-serif" font-size="14" font-weight="bold" lengthAdjust="spacing" textLength="466" x="951" y="41.3125">Scenario 6: User Cancels Booking (DELETE /api/v1/bookings/:id)</text><rect fill="#FFFFFF" height="243.4844" style="stroke:#181818;stroke-width:1.0;" width="10" x="35.5" y="210.1738"/><rect fill="#FFFFFF" height="204.1738" style="stroke:#181818;stroke-width:1.0;" width="10" x="132" y="239.4844"/><rect fill="#FFFFFF" height="87.9316" style="stroke:#181818;stroke-width:1.0;" width="10" x="322" y="268.7949"/><rect fill="#FFFFFF" height="29.3105" style="stroke:#181818;stroke-width:1.0;" width="10" x="464" y="298.1055"/><rect fill="#FFFFFF" height="272.7949" style="stroke:#181818;stroke-width:1.0;" width="10" x="1449" y="180.8633"/><line style="stroke:#181818;stroke-width:0.5;stroke-dasharray:5.0,5.0;" x1="40" x2="40" y1="134.2422" y2="462.6582"/><line style="stroke:#181818;stroke-width:0.5;stroke-dasharray:5.0,5.0;" x1="137" x2="137" y1="134.2422" y2="462.6582"/><line style="stroke:#181818;stroke-width:0.5;stroke-dasharray:5.0,5.0;" x1="326.5" x2="326.5" y1="134.2422" y2="462.6582"/><line style="stroke:#181818;stroke-width:0.5;stroke-dasharray:5.0,5.0;" x1="469" x2="469" y1="134.2422" y2="462.6582"/><line style="stroke:#181818;stroke-width:0.5;stroke-dasharray:5.0,5.0;" x1="575" x2="575" y1="134.2422" y2="462.6582"/><line style="stroke:#181818;stroke-width:0.5;stroke-dasharray:5.0,5.0;" x1="679" x2="679" y1="134.2422" y2="462.6582"/><line style="stroke:#181818;stroke-width:0.5;stroke-dasharray:5.0,5.0;" x1="782" x2="782" y1="134.2422" y2="462.6582"/><line style="stroke:#181818;stroke-width:0.5;stroke-dasharray:5.0,5.0;" x1="966.5" x2="966.5" y1="134.2422" y2="462.6582"/><line style="stroke:#181818;stroke-width:0.5;stroke-dasharray:5.0,5.0;" x1="1095" x2="1095" y1="134.2422" y2="462.6582"/><line style="stroke:#181818;stroke-width:0.5;stroke-dasharray:5.0,5.0;" x1="1194" x2="1194" y1="134.2422" y2="462.6582"/><line style="stroke:#181818;stroke-width:0.5;stroke-dasharray:5.0,5.0;" x1="1454" x2="1454" y1="134.2422" y2="462.6582"/><line style="stroke:#181818;stroke-width:0.5;stroke-dasharray:5.0,5.0;" x1="1565" x2="1565" y1="134.2422" y2="462.6582"/><line style="stroke:#181818;stroke-width:0.5;stroke-dasharray:5.0,5.0;" x1="1752" x2="1752" y1="134.2422" y2="462.6582"/><line style="stroke:#181818;stroke-width:0.5;stroke-dasharray:5.0,5.0;" x1="1888" x2="1888" y1="134.2422" y2="462.6582"/><line style="stroke:#181818;stroke-width:0.5;stroke-dasharray:5.0,5.0;" x1="2117" x2="2117" y1="134.2422" y2="462.6582"/><line style="stroke:#181818;stroke-width:0.5;stroke-dasharray:5.0,5.0;" x1="2276" x2="2276" y1="134.2422" y2="462.6582"/><rect fill="#E2E2F0" height="46.9766" rx="2.5" ry="2.5" style="stroke:#181818;stroke-width:0.5;" width="71" x="5" y="86.2656"/><text fill="#000000" font-family="sans-serif" font-size="14" lengthAdjust="spacing" textLength="57" x="12" y="106.8008">&#171;router&#187;</text><text fill="#000000" font-family="sans-serif" font-size="14" lengthAdjust="spacing" textLength="35" x="23" y="123.2891">:auth</text><rect fill="#E2E2F0" height="46.9766" rx="2.5" ry="2.5" style="stroke:#181818;stroke-width:0.5;" width="71" x="5" y="461.6582"/><text fill="#000000" font-family="sans-serif" font-size="14" lengthAdjust="spacing" textLength="57" x="12" y="482.1934">&#171;router&#187;</text><text fill="#000000" font-family="sans-serif" font-size="14" lengthAdjust="spacing" textLength="35" x="23" y="498.6816">:auth</text><rect fill="#E2E2F0" height="46.9766" rx="2.5" ry="2.5" style="stroke:#181818;stroke-width:0.5;" width="102" x="86" y="86.2656"/><text fill="#000000" font-family="sans-serif" font-size="14" lengthAdjust="spacing" textLength="88" x="93" y="106.8008">&#171;controllers&#187;</text><text fill="#000000" font-family="sans-serif" font-size="14" lengthAdjust="spacing" textLength="35" x="119.5" y="123.2891">:auth</text><rect fill="#E2E2F0" height="46.9766" rx="2.5" ry="2.5" style="stroke:#181818;stroke-width:0.5;" width="102" x="86" y="461.6582"/><text fill="#000000" font-family="sans-serif" font-size="14" lengthAdjust="spacing" textLength="88" x="93" y="482.1934">&#171;controllers&#187;</text><text fill="#000000" font-family="sans-serif" font-size="14" lengthAdjust="spacing" textLength="35" x="119.5" y="498.6816">:auth</text><rect fill="#E2E2F0" height="46.9766" rx="2.5" ry="2.5" style="stroke:#181818;stroke-width:0.5;" width="71" x="291.5" y="86.2656"/><text fill="#000000" font-family="sans-serif" font-size="14" lengthAdjust="spacing" textLength="57" x="298.5" y="106.8008">&#171;model&#187;</text><text fill="#000000" font-family="sans-serif" font-size="14" lengthAdjust="spacing" textLength="35" x="309.5" y="123.2891">:User</text><rect fill="#E2E2F0" height="46.9766" rx="2.5" ry="2.5" style="stroke:#181818;stroke-width:0.5;" width="71" x="291.5" y="461.6582"/><text fill="#000000" font-family="sans-serif" font-size="14" lengthAdjust="spacing" textLength="57" x="298.5" y="482.1934">&#171;model&#187;</text><text fill="#000000" font-family="sans-serif" font-size="14" lengthAdjust="spacing" textLength="35" x="309.5" y="498.6816">:User</text><text fill="#000000" font-family="sans-serif" font-size="14" lengthAdjust="spacing" textLength="80" x="426" y="114.8008">&#171;MongoDB&#187;</text><text fill="#000000" font-family="sans-serif" font-size="14" lengthAdjust="spacing" textLength="41" x="445.5" y="131.2891">:users</text><path d="M451,65.2656 C451,55.2656 469,55.2656 469,55.2656 C469,55.2656 487,55.2656 487,65.2656 L487,91.2656 C487,101.2656 469,101.2656 469,101.2656 C469,101.2656 451,101.2656 451,91.2656 L451,65.2656 " fill="#E2E2F0" style="stroke:#181818;stroke-width:1.5;"/><path d="M451,65.2656 C451,75.2656 469,75.2656 469,75.2656 C469,75.2656 487,75.2656 487,65.2656 " fill="none" style="stroke:#181818;stroke-width:1.5;"/><text fill="#000000" font-family="sans-serif" font-size="14" lengthAdjust="spacing" textLength="80" x="426" y="475.1934">&#171;MongoDB&#187;</text><text fill="#000000" font-family="sans-serif" font-size="14" lengthAdjust="spacing" textLength="41" x="445.5" y="491.6816">:users</text><path d="M451,504.6348 C451,494.6348 469,494.6348 469,494.6348 C469,494.6348 487,494.6348 487,504.6348 L487,530.6348 C487,540.6348 469,540.6348 469,540.6348 C469,540.6348 451,540.6348 451,530.6348 L451,504.6348 " fill="#E2E2F0" style="stroke:#181818;stroke-width:1.5;"/><path d="M451,504.6348 C451,514.6348 469,514.6348 469,514.6348 C469,514.6348 487,514.6348 487,504.6348 " fill="none" style="stroke:#181818;stroke-width:1.5;"/><rect fill="#E2E2F0" height="30.4883" rx="2.5" ry="2.5" style="stroke:#181818;stroke-width:0.5;" width="106" x="522" y="102.7539"/><text fill="#000000" font-family="sans-serif" font-size="14" lengthAdjust="spacing" textLength="92" x="529" y="123.2891">Admin/Client</text><rect fill="#E2E2F0" height="30.4883" rx="2.5" ry="2.5" style="stroke:#181818;stroke-width:0.5;" width="106" x="522" y="461.6582"/><text fill="#000000" font-family="sans-serif" font-size="14" lengthAdjust="spacing" textLength="92" x="529" y="482.1934">Admin/Client</text><rect fill="#E2E2F0" height="46.9766" rx="2.5" ry="2.5" style="stroke:#181818;stroke-width:0.5;" width="83" x="638" y="86.2656"/><text fill="#000000" font-family="sans-serif" font-size="14" lengthAdjust="spacing" textLength="57" x="651" y="106.8008">&#171;router&#187;</text><text fill="#000000" font-family="sans-serif" font-size="14" lengthAdjust="spacing" textLength="69" x="645" y="123.2891">:providers</text><rect fill="#E2E2F0" height="46.9766" rx="2.5" ry="2.5" style="stroke:#181818;stroke-width:0.5;" width="83" x="638" y="461.6582"/><text fill="#000000" font-family="sans-serif" font-size="14" lengthAdjust="spacing" textLength="57" x="651" y="482.1934">&#171;router&#187;</text><text fill="#000000" font-family="sans-serif" font-size="14" lengthAdjust="spacing" textLength="69" x="645" y="498.6816">:providers</text><rect fill="#E2E2F0" height="46.9766" rx="2.5" ry="2.5" style="stroke:#181818;stroke-width:0.5;" width="102" x="731" y="86.2656"/><text fill="#000000" font-family="sans-serif" font-size="14" lengthAdjust="spacing" textLength="88" x="738" y="106.8008">&#171;controllers&#187;</text><text fill="#000000" font-family="sans-serif" font-size="14" lengthAdjust="spacing" textLength="69" x="747.5" y="123.2891">:providers</text><rect fill="#E2E2F0" height="46.9766" rx="2.5" ry="2.5" style="stroke:#181818;stroke-width:0.5;" width="102" x="731" y="461.6582"/><text fill="#000000" font-family="sans-serif" font-size="14" lengthAdjust="spacing" textLength="88" x="738" y="482.1934">&#171;controllers&#187;</text><text fill="#000000" font-family="sans-serif" font-size="14" lengthAdjust="spacing" textLength="69" x="747.5" y="498.6816">:providers</text><rect fill="#E2E2F0" height="46.9766" rx="2.5" ry="2.5" style="stroke:#181818;stroke-width:0.5;" width="75" x="929.5" y="86.2656"/><text fill="#000000" font-family="sans-serif" font-size="14" lengthAdjust="spacing" textLength="57" x="938.5" y="106.8008">&#171;model&#187;</text><text fill="#000000" font-family="sans-serif" font-size="14" lengthAdjust="spacing" textLength="61" x="936.5" y="123.2891">:Provider</text><rect fill="#E2E2F0" height="46.9766" rx="2.5" ry="2.5" style="stroke:#181818;stroke-width:0.5;" width="75" x="929.5" y="461.6582"/><text fill="#000000" font-family="sans-serif" font-size="14" lengthAdjust="spacing" textLength="57" x="938.5" y="482.1934">&#171;model&#187;</text><text fill="#000000" font-family="sans-serif" font-size="14" lengthAdjust="spacing" textLength="61" x="936.5" y="498.6816">:Provider</text><text fill="#000000" font-family="sans-serif" font-size="14" lengthAdjust="spacing" textLength="80" x="1052" y="114.8008">&#171;MongoDB&#187;</text><text fill="#000000" font-family="sans-serif" font-size="14" lengthAdjust="spacing" textLength="69" x="1057.5" y="131.2891">:providers</text><path d="M1077,65.2656 C1077,55.2656 1095,55.2656 1095,55.2656 C1095,55.2656 1113,55.2656 1113,65.2656 L1113,91.2656 C1113,101.2656 1095,101.2656 1095,101.2656 C1095,101.2656 1077,101.2656 1077,91.2656 L1077,65.2656 " fill="#E2E2F0" style="stroke:#181818;stroke-width:1.5;"/><path d="M1077,65.2656 C1077,75.2656 1095,75.2656 1095,75.2656 C1095,75.2656 1113,75.2656 1113,65.2656 " fill="none" style="stroke:#181818;stroke-width:1.5;"/><text fill="#000000" font-family="sans-serif" font-size="14" lengthAdjust="spacing" textLength="80" x="1052" y="475.1934">&#171;MongoDB&#187;</text><text fill="#000000" font-family="sans-serif" font-size="14" lengthAdjust="spacing" textLength="69" x="1057.5" y="491.6816">:providers</text><path d="M1077,504.6348 C1077,494.6348 1095,494.6348 1095,494.6348 C1095,494.6348 1113,494.6348 1113,504.6348 L1113,530.6348 C1113,540.6348 1095,540.6348 1095,540.6348 C1095,540.6348 1077,540.6348 1077,530.6348 L1077,504.6348 " fill="#E2E2F0" style="stroke:#181818;stroke-width:1.5;"/><path d="M1077,504.6348 C1077,514.6348 1095,514.6348 1095,514.6348 C1095,514.6348 1113,514.6348 1113,504.6348 " fill="none" style="stroke:#181818;stroke-width:1.5;"/><rect fill="#E2E2F0" height="30.4883" rx="2.5" ry="2.5" style="stroke:#181818;stroke-width:0.5;" width="92" x="1148" y="102.7539"/><text fill="#000000" font-family="sans-serif" font-size="14" lengthAdjust="spacing" textLength="78" x="1155" y="123.2891">User/Client</text><rect fill="#E2E2F0" height="30.4883" rx="2.5" ry="2.5" style="stroke:#181818;stroke-width:0.5;" width="92" x="1148" y="461.6582"/><text fill="#000000" font-family="sans-serif" font-size="14" lengthAdjust="spacing" textLength="78" x="1155" y="482.1934">User/Client</text><rect fill="#E2E2F0" height="46.9766" rx="2.5" ry="2.5" style="stroke:#181818;stroke-width:0.5;" width="94" x="1407" y="86.2656"/><text fill="#000000" font-family="sans-serif" font-size="14" lengthAdjust="spacing" textLength="80" x="1414" y="106.8008">&#171;JavaScript&#187;</text><text fill="#000000" font-family="sans-serif" font-size="14" lengthAdjust="spacing" textLength="46" x="1431" y="123.2891">:server</text><rect fill="#E2E2F0" height="46.9766" rx="2.5" ry="2.5" style="stroke:#181818;stroke-width:0.5;" width="94" x="1407" y="461.6582"/><text fill="#000000" font-family="sans-serif" font-size="14" lengthAdjust="spacing" textLength="80" x="1414" y="482.1934">&#171;JavaScript&#187;</text><text fill="#000000" font-family="sans-serif" font-size="14" lengthAdjust="spacing" textLength="46" x="1431" y="498.6816">:server</text><rect fill="#E2E2F0" height="46.9766" rx="2.5" ry="2.5" style="stroke:#181818;stroke-width:0.5;" width="108" x="1511" y="86.2656"/><text fill="#000000" font-family="sans-serif" font-size="14" lengthAdjust="spacing" textLength="94" x="1518" y="106.8008">&#171;middleware&#187;</text><text fill="#000000" font-family="sans-serif" font-size="14" lengthAdjust="spacing" textLength="35" x="1547.5" y="123.2891">:auth</text><rect fill="#E2E2F0" height="46.9766" rx="2.5" ry="2.5" style="stroke:#181818;stroke-width:0.5;" width="108" x="1511" y="461.6582"/><text fill="#000000" font-family="sans-serif" font-size="14" lengthAdjust="spacing" textLength="94" x="1518" y="482.1934">&#171;middleware&#187;</text><text fill="#000000" font-family="sans-serif" font-size="14" lengthAdjust="spacing" textLength="35" x="1547.5" y="498.6816">:auth</text><rect fill="#E2E2F0" height="46.9766" rx="2.5" ry="2.5" style="stroke:#181818;stroke-width:0.5;" width="82" x="1711" y="86.2656"/><text fill="#000000" font-family="sans-serif" font-size="14" lengthAdjust="spacing" textLength="57" x="1723.5" y="106.8008">&#171;router&#187;</text><text fill="#000000" font-family="sans-serif" font-size="14" lengthAdjust="spacing" textLength="68" x="1718" y="123.2891">:bookings</text><rect fill="#E2E2F0" height="46.9766" rx="2.5" ry="2.5" style="stroke:#181818;stroke-width:0.5;" width="82" x="1711" y="461.6582"/><text fill="#000000" font-family="sans-serif" font-size="14" lengthAdjust="spacing" textLength="57" x="1723.5" y="482.1934">&#171;router&#187;</text><text fill="#000000" font-family="sans-serif" font-size="14" lengthAdjust="spacing" textLength="68" x="1718" y="498.6816">:bookings</text><rect fill="#E2E2F0" height="46.9766" rx="2.5" ry="2.5" style="stroke:#181818;stroke-width:0.5;" width="102" x="1837" y="86.2656"/><text fill="#000000" font-family="sans-serif" font-size="14" lengthAdjust="spacing" textLength="88" x="1844" y="106.8008">&#171;controllers&#187;</text><text fill="#000000" font-family="sans-serif" font-size="14" lengthAdjust="spacing" textLength="68" x="1854" y="123.2891">:bookings</text><rect fill="#E2E2F0" height="46.9766" rx="2.5" ry="2.5" style="stroke:#181818;stroke-width:0.5;" width="102" x="1837" y="461.6582"/><text fill="#000000" font-family="sans-serif" font-size="14" lengthAdjust="spacing" textLength="88" x="1844" y="482.1934">&#171;controllers&#187;</text><text fill="#000000" font-family="sans-serif" font-size="14" lengthAdjust="spacing" textLength="68" x="1854" y="498.6816">:bookings</text><rect fill="#E2E2F0" height="46.9766" rx="2.5" ry="2.5" style="stroke:#181818;stroke-width:0.5;" width="74" x="2080" y="86.2656"/><text fill="#000000" font-family="sans-serif" font-size="14" lengthAdjust="spacing" textLength="57" x="2088.5" y="106.8008">&#171;model&#187;</text><text fill="#000000" font-family="sans-serif" font-size="14" lengthAdjust="spacing" textLength="60" x="2087" y="123.2891">:Booking</text><rect fill="#E2E2F0" height="46.9766" rx="2.5" ry="2.5" style="stroke:#181818;stroke-width:0.5;" width="74" x="2080" y="461.6582"/><text fill="#000000" font-family="sans-serif" font-size="14" lengthAdjust="spacing" textLength="57" x="2088.5" y="482.1934">&#171;model&#187;</text><text fill="#000000" font-family="sans-serif" font-size="14" lengthAdjust="spacing" textLength="60" x="2087" y="498.6816">:Booking</text><text fill="#000000" font-family="sans-serif" font-size="14" lengthAdjust="spacing" textLength="80" x="2233" y="114.8008">&#171;MongoDB&#187;</text><text fill="#000000" font-family="sans-serif" font-size="14" lengthAdjust="spacing" textLength="68" x="2239" y="131.2891">:bookings</text><path d="M2258,65.2656 C2258,55.2656 2276,55.2656 2276,55.2656 C2276,55.2656 2294,55.2656 2294,65.2656 L2294,91.2656 C2294,101.2656 2276,101.2656 2276,101.2656 C2276,101.2656 2258,101.2656 2258,91.2656 L2258,65.2656 " fill="#E2E2F0" style="stroke:#181818;stroke-width:1.5;"/><path d="M2258,65.2656 C2258,75.2656 2276,75.2656 2276,75.2656 C2276,75.2656 2294,75.2656 2294,65.2656 " fill="none" style="stroke:#181818;stroke-width:1.5;"/><text fill="#000000" font-family="sans-serif" font-size="14" lengthAdjust="spacing" textLength="80" x="2233" y="475.1934">&#171;MongoDB&#187;</text><text fill="#000000" font-family="sans-serif" font-size="14" lengthAdjust="spacing" textLength="68" x="2239" y="491.6816">:bookings</text><path d="M2258,504.6348 C2258,494.6348 2276,494.6348 2276,494.6348 C2276,494.6348 2294,494.6348 2294,504.6348 L2294,530.6348 C2294,540.6348 2276,540.6348 2276,540.6348 C2276,540.6348 2258,540.6348 2258,530.6348 L2258,504.6348 " fill="#E2E2F0" style="stroke:#181818;stroke-width:1.5;"/><path d="M2258,504.6348 C2258,514.6348 2276,514.6348 2276,514.6348 C2276,514.6348 2294,514.6348 2294,504.6348 " fill="none" style="stroke:#181818;stroke-width:1.5;"/><rect fill="#FFFFFF" height="243.4844" style="stroke:#181818;stroke-width:1.0;" width="10" x="35.5" y="210.1738"/><rect fill="#FFFFFF" height="204.1738" style="stroke:#181818;stroke-width:1.0;" width="10" x="132" y="239.4844"/><rect fill="#FFFFFF" height="87.9316" style="stroke:#181818;stroke-width:1.0;" width="10" x="322" y="268.7949"/><rect fill="#FFFFFF" height="29.3105" style="stroke:#181818;stroke-width:1.0;" width="10" x="464" y="298.1055"/><rect fill="#FFFFFF" height="272.7949" style="stroke:#181818;stroke-width:1.0;" width="10" x="1449" y="180.8633"/><polygon fill="#181818" points="1437,176.8633,1447,180.8633,1437,184.8633,1441,180.8633" style="stroke:#181818;stroke-width:1.0;"/><line style="stroke:#181818;stroke-width:1.0;" x1="1194" x2="1443" y1="180.8633" y2="180.8633"/><text fill="#000000" font-family="sans-serif" font-size="13" lengthAdjust="spacing" textLength="174" x="1201" y="160.8105">POST /api/v1/auth/register</text><text fill="#000000" font-family="sans-serif" font-size="13" lengthAdjust="spacing" textLength="236" x="1201" y="176.1211">{name, email, telnum, password, role}</text><polygon fill="#181818" points="56.5,206.1738,46.5,210.1738,56.5,214.1738,52.5,210.1738" style="stroke:#181818;stroke-width:1.0;"/><line style="stroke:#181818;stroke-width:1.0;" x1="50.5" x2="1448" y1="210.1738" y2="210.1738"/><text fill="#000000" font-family="sans-serif" font-size="13" lengthAdjust="spacing" textLength="182" x="62.5" y="205.4316">app.use('/api/v1/auth', auth)</text><polygon fill="#181818" points="120,235.4844,130,239.4844,120,243.4844,124,239.4844" style="stroke:#181818;stroke-width:1.0;"/><line style="stroke:#181818;stroke-width:1.0;" x1="45.5" x2="126" y1="239.4844" y2="239.4844"/><text fill="#000000" font-family="sans-serif" font-size="13" lengthAdjust="spacing" textLength="56" x="52.5" y="234.7422">register()</text><polygon fill="#181818" points="310,264.7949,320,268.7949,310,272.7949,314,268.7949" style="stroke:#181818;stroke-width:1.0;"/><line style="stroke:#181818;stroke-width:1.0;" x1="142" x2="316" y1="268.7949" y2="268.7949"/><text fill="#000000" font-family="sans-serif" font-size="13" lengthAdjust="spacing" textLength="134" x="149" y="264.0527">User.create(userData)</text><polygon fill="#181818" points="452,294.1055,462,298.1055,452,302.1055,456,298.1055" style="stroke:#181818;stroke-width:1.0;"/><line style="stroke:#181818;stroke-width:1.0;" x1="332" x2="458" y1="298.1055" y2="298.1055"/><text fill="#000000" font-family="sans-serif" font-size="13" lengthAdjust="spacing" textLength="76" x="339" y="293.3633">UserSchema</text><polygon fill="#181818" points="343,323.416,333,327.416,343,331.416,339,327.416" style="stroke:#181818;stroke-width:1.0;"/><line style="stroke:#181818;stroke-width:1.0;stroke-dasharray:2.0,2.0;" x1="337" x2="468" y1="327.416" y2="327.416"/><text fill="#000000" font-family="sans-serif" font-size="13" lengthAdjust="spacing" textLength="27" x="349" y="322.6738">user</text><polygon fill="#181818" points="153,352.7266,143,356.7266,153,360.7266,149,356.7266" style="stroke:#181818;stroke-width:1.0;"/><line style="stroke:#181818;stroke-width:1.0;stroke-dasharray:2.0,2.0;" x1="147" x2="326" y1="356.7266" y2="356.7266"/><text fill="#000000" font-family="sans-serif" font-size="13" lengthAdjust="spacing" textLength="27" x="159" y="351.9844">user</text><line style="stroke:#181818;stroke-width:1.0;" x1="142" x2="184" y1="386.0371" y2="386.0371"/><line style="stroke:#181818;stroke-width:1.0;" x1="184" x2="184" y1="386.0371" y2="399.0371"/><line style="stroke:#181818;stroke-width:1.0;" x1="143" x2="184" y1="399.0371" y2="399.0371"/><polygon fill="#181818" points="153,395.0371,143,399.0371,153,403.0371,149,399.0371" style="stroke:#181818;stroke-width:1.0;"/><text fill="#000000" font-family="sans-serif" font-size="13" lengthAdjust="spacing" textLength="128" x="149" y="381.2949">getSignedJwtToken()</text><polygon fill="#181818" points="1182,439.6582,1192,443.6582,1182,447.6582,1186,443.6582" style="stroke:#181818;stroke-width:1.0;"/><line style="stroke:#181818;stroke-width:1.0;" x1="137" x2="1188" y1="443.6582" y2="443.6582"/><text fill="#000000" font-family="sans-serif" font-size="13" lengthAdjust="spacing" textLength="89" x="144" y="423.6055">response(201)</text><text fill="#000000" font-family="sans-serif" font-size="13" lengthAdjust="spacing" textLength="137" x="144" y="438.916">{success, token, data}</text><line style="stroke:#000000;stroke-width:1.0;stroke-dasharray:2.0,2.0;" x1="0" x2="2369" y1="451.6582" y2="451.6582"/><text fill="#888888" font-family="sans-serif" font-size="10" lengthAdjust="spacing" textLength="186" x="2182" y="14.668">EzyCar - Car Service Booking Platform</text><text fill="#888888" font-family="sans-serif" font-size="10" lengthAdjust="spacing" textLength="55" x="1156.5" y="551.3027">Page 1 of 6</text><!--SRC=[xLdTJ-Cu47_FNs4X8LfjFvQ5kuSAaBQ0zWujMdHmkeVZ7anYYaLgzsotR1VrVx_nLvgaIPgqiAkxemziOi_yx1bxVZEJVI0u8WATVvkVOe6wIF-z9c96GuA6d3zIDa9NCLRtN8o3UyuL25_X4K6x4_YxY_WzsesnLEOj2FRGSSqVY5w7X651ETeVeDyb0Fz6HbGgWHNbh0cKeYecQASI3xMklbpVe3wUqFvilu-dwg4lp3mHxPqWc62XQ4Wdc2cqexNxfp4bJEqWB55e7hCoHqSNU8QlGq4dwkJabWr0PqQ4aRUFUNd1fx2OaTNB6qaxzX5Uyz8XPqhmE2P2PbLI4qLwOnwHs6XeAuo66T9lGOGLliEIQC5BpaRyR6X4fp0fZQmMasV38B0se-w9imQzUpT0vJwyPSyCZqa7aJ6cSGSf4hFfk8CcMCedBg8Ec1gJHU3007Pfke76aqaFjj7QIyFlTP3-fnsaX44rvmAZxpVIQWVvQT18N61azKCl50GhqjAcdu5Rsi5I1XIS7nBnw_01B0lyS3U3sUqEaCPPMVceswqZjchI08s8kgOZHgAB9tN37mahDimVKrTxG4uu0nT-UB_VXlEGqp0aKi9PQFKEqeU_2096ddIqRXgi7rnmVUOZkbMKPe2AmZFM4s-nkNbi6WV2HN0XwKFn5OFGh5Wx0kyfYxumqh8RN5H4e9OqeOFkvfPXlcCaZh4A7wwSyrhUY-q0nohngHKYCa3mspIyotGBG_nzUOYJ66vHiZFAGYu42LKJ_CCCFXm01imE6iiHmBDeQnOv6A2FqHZY_jImi4HNWiyeb2BRC4efQ8vT9cvOhf2BKK-p2zO3svBBc4PHJ9wm85csq0-NoLm59IKRJl6Ijqsk8wUiScgs5659KrvaILN9EPNHLNQvP0rDMyQPLQoLw2RL18uYOIyuYHUtJ5zPBkWtKz8Dq920tuIz_2bIo_hLB0F82a80WYmtkI8-G812x-VeueyRXwm3tJoX6OvfPE9e5IPtB6PPHhug5zZvwU9zOcSWKB3nrbwxPBNyfe5ymaTBaRhGibgmR_s2gB_8oFrMyOhkXTcHBPFyc3CcnoGPgpBNn9wnU_4bbo1_z-vuD5zYPNK097LlCX2k3FDwQR7kojgQqVoLgjvsaXqsqDM7OIzsLGrccLc367RsnyAuMdiq1UY7xmzAwTci0HHjrh7NbhAgYrk8l_-gz7_eQZzFrAxLt8RyIo1pr7zdH-LtAYktPdw_tnJnEyFMydv6DJLPfb-BzKjr7EfInHzfypnHff4no5jHhnpsgd2d_ReTv0QX-IF_YjJYJIxEBCdisiIYamJKz2-PO1Bqg5wAoPW2ETwz5sUNj6K5mvgsR3xfcTqTctVzsAFHEhoAPALxZk7yroX9Lpr_THhaBTEuhEIHxT9Mil-QMSlqALw2VALIoMHkdMiyYsfRtBDnJEjPEtYGTlMYdK7Dg0FSCc1jMS6d4BAsfVE4b5PFYNVpcz5M6ZlWPLYaNEcisYZQRtU9EZf0NEHozQOUBAs3QZhFlUQAeRgkSpRLigBGQqq0QdwYMfP7_cVAbyJz9yVeO9lrglhPpAfiIHcsZVQ1eokrUxYqKR3n5WxNRi4llwmHJO5OYrqBbtp1Ch5uWTUj4tzoHTqdefOLtIyGirpCjoaMgt1HwzFvQkNG7yyVxFnRwIXVi0niLjHLdynR4VVZYhWHKPTpD-82QNqrrxp4k6KzoOLgFQUAzm7gxfkP2PzCOvrOzpnhx-LAjVAKclh2dAy5QkPJ-UTVmQQfT9rkpQ_0fgWg_jRm_yuZF_kF0vY5iD6N-DvG0ebQP-UVps_ELsbgGAEtrF7ZKaV5iVotyaOPGuD7YIBPJdiJNavwOZX9F9P0onQh3i6cEuScRSf6hKcgVyktlKs-BjYSYTCtv9Qr-1E3I-4xmdQcsIxWsIRETdlksGFJ_q7QgBEsQeLDsZgNE_xTh9Ukgrmpb-ce7w3dnIBRZvNaiSQzs7wpNipVezKky0Kxm5TFe_y0]--></g></svg>