<?xml version="1.0" encoding="us-ascii" standalone="no"?><svg xmlns="http://www.w3.org/2000/svg" xmlns:xlink="http://www.w3.org/1999/xlink" contentStyleType="text/css" height="659px" preserveAspectRatio="none" style="width:2376px;height:659px;background:#FFFFFF;" version="1.1" viewBox="0 0 2376 659" width="2376px" zoomAndPan="magnify"><defs/><g><rect fill="#FFFFFF" height="444.6133" style="stroke:#181818;stroke-width:1.0;" width="10" x="35.5" y="106.7539"/><rect fill="#FFFFFF" height="376.6816" style="stroke:#181818;stroke-width:1.0;" width="10" x="40.5" y="174.6855"/><rect fill="#FFFFFF" height="270.7949" style="stroke:#181818;stroke-width:1.0;" width="10" x="132" y="203.9961"/><rect fill="#FFFFFF" height="87.9316" style="stroke:#181818;stroke-width:1.0;" width="10" x="322" y="233.3066"/><rect fill="#FFFFFF" height="29.3105" style="stroke:#181818;stroke-width:1.0;" width="10" x="464" y="262.6172"/><rect fill="#FFFFFF" height="444.6133" style="stroke:#181818;stroke-width:1.0;" width="10" x="1449" y="106.7539"/><rect fill="#FFFFFF" height="405.9922" style="stroke:#181818;stroke-width:1.0;" width="10" x="1454" y="145.375"/><rect fill="none" height="163.8184" style="stroke:#000000;stroke-width:1.5;" width="1174" x="76" y="378.5488"/><line style="stroke:#181818;stroke-width:0.5;stroke-dasharray:5.0,5.0;" x1="40" x2="40" y1="96.7539" y2="560.3672"/><line style="stroke:#181818;stroke-width:0.5;stroke-dasharray:5.0,5.0;" x1="137" x2="137" y1="96.7539" y2="560.3672"/><line style="stroke:#181818;stroke-width:0.5;stroke-dasharray:5.0,5.0;" x1="326.5" x2="326.5" y1="96.7539" y2="560.3672"/><line style="stroke:#181818;stroke-width:0.5;stroke-dasharray:5.0,5.0;" x1="469" x2="469" y1="96.7539" y2="560.3672"/><line style="stroke:#181818;stroke-width:0.5;stroke-dasharray:5.0,5.0;" x1="575" x2="575" y1="96.7539" y2="560.3672"/><line style="stroke:#181818;stroke-width:0.5;stroke-dasharray:5.0,5.0;" x1="679" x2="679" y1="96.7539" y2="560.3672"/><line style="stroke:#181818;stroke-width:0.5;stroke-dasharray:5.0,5.0;" x1="782" x2="782" y1="96.7539" y2="560.3672"/><line style="stroke:#181818;stroke-width:0.5;stroke-dasharray:5.0,5.0;" x1="966.5" x2="966.5" y1="96.7539" y2="560.3672"/><line style="stroke:#181818;stroke-width:0.5;stroke-dasharray:5.0,5.0;" x1="1095" x2="1095" y1="96.7539" y2="560.3672"/><line style="stroke:#181818;stroke-width:0.5;stroke-dasharray:5.0,5.0;" x1="1194" x2="1194" y1="96.7539" y2="560.3672"/><line style="stroke:#181818;stroke-width:0.5;stroke-dasharray:5.0,5.0;" x1="1454" x2="1454" y1="96.7539" y2="560.3672"/><line style="stroke:#181818;stroke-width:0.5;stroke-dasharray:5.0,5.0;" x1="1565" x2="1565" y1="96.7539" y2="560.3672"/><line style="stroke:#181818;stroke-width:0.5;stroke-dasharray:5.0,5.0;" x1="1752" x2="1752" y1="96.7539" y2="560.3672"/><line style="stroke:#181818;stroke-width:0.5;stroke-dasharray:5.0,5.0;" x1="1888" x2="1888" y1="96.7539" y2="560.3672"/><line style="stroke:#181818;stroke-width:0.5;stroke-dasharray:5.0,5.0;" x1="2117" x2="2117" y1="96.7539" y2="560.3672"/><line style="stroke:#181818;stroke-width:0.5;stroke-dasharray:5.0,5.0;" x1="2276" x2="2276" y1="96.7539" y2="560.3672"/><rect fill="#E2E2F0" height="46.9766" rx="2.5" ry="2.5" style="stroke:#181818;stroke-width:0.5;" width="71" x="5" y="48.7773"/><text fill="#000000" font-family="sans-serif" font-size="14" lengthAdjust="spacing" textLength="57" x="12" y="69.3125">&#171;router&#187;</text><text fill="#000000" font-family="sans-serif" font-size="14" lengthAdjust="spacing" textLength="35" x="23" y="85.8008">:auth</text><rect fill="#E2E2F0" height="46.9766" rx="2.5" ry="2.5" style="stroke:#181818;stroke-width:0.5;" width="71" x="5" y="559.3672"/><text fill="#000000" font-family="sans-serif" font-size="14" lengthAdjust="spacing" textLength="57" x="12" y="579.9023">&#171;router&#187;</text><text fill="#000000" font-family="sans-serif" font-size="14" lengthAdjust="spacing" textLength="35" x="23" y="596.3906">:auth</text><rect fill="#E2E2F0" height="46.9766" rx="2.5" ry="2.5" style="stroke:#181818;stroke-width:0.5;" width="102" x="86" y="48.7773"/><text fill="#000000" font-family="sans-serif" font-size="14" lengthAdjust="spacing" textLength="88" x="93" y="69.3125">&#171;controllers&#187;</text><text fill="#000000" font-family="sans-serif" font-size="14" lengthAdjust="spacing" textLength="35" x="119.5" y="85.8008">:auth</text><rect fill="#E2E2F0" height="46.9766" rx="2.5" ry="2.5" style="stroke:#181818;stroke-width:0.5;" width="102" x="86" y="559.3672"/><text fill="#000000" font-family="sans-serif" font-size="14" lengthAdjust="spacing" textLength="88" x="93" y="579.9023">&#171;controllers&#187;</text><text fill="#000000" font-family="sans-serif" font-size="14" lengthAdjust="spacing" textLength="35" x="119.5" y="596.3906">:auth</text><rect fill="#E2E2F0" height="46.9766" rx="2.5" ry="2.5" style="stroke:#181818;stroke-width:0.5;" width="71" x="291.5" y="48.7773"/><text fill="#000000" font-family="sans-serif" font-size="14" lengthAdjust="spacing" textLength="57" x="298.5" y="69.3125">&#171;model&#187;</text><text fill="#000000" font-family="sans-serif" font-size="14" lengthAdjust="spacing" textLength="35" x="309.5" y="85.8008">:User</text><rect fill="#E2E2F0" height="46.9766" rx="2.5" ry="2.5" style="stroke:#181818;stroke-width:0.5;" width="71" x="291.5" y="559.3672"/><text fill="#000000" font-family="sans-serif" font-size="14" lengthAdjust="spacing" textLength="57" x="298.5" y="579.9023">&#171;model&#187;</text><text fill="#000000" font-family="sans-serif" font-size="14" lengthAdjust="spacing" textLength="35" x="309.5" y="596.3906">:User</text><text fill="#000000" font-family="sans-serif" font-size="14" lengthAdjust="spacing" textLength="80" x="426" y="77.3125">&#171;MongoDB&#187;</text><text fill="#000000" font-family="sans-serif" font-size="14" lengthAdjust="spacing" textLength="41" x="445.5" y="93.8008">:users</text><path d="M451,27.7773 C451,17.7773 469,17.7773 469,17.7773 C469,17.7773 487,17.7773 487,27.7773 L487,53.7773 C487,63.7773 469,63.7773 469,63.7773 C469,63.7773 451,63.7773 451,53.7773 L451,27.7773 " fill="#E2E2F0" style="stroke:#181818;stroke-width:1.5;"/><path d="M451,27.7773 C451,37.7773 469,37.7773 469,37.7773 C469,37.7773 487,37.7773 487,27.7773 " fill="none" style="stroke:#181818;stroke-width:1.5;"/><text fill="#000000" font-family="sans-serif" font-size="14" lengthAdjust="spacing" textLength="80" x="426" y="572.9023">&#171;MongoDB&#187;</text><text fill="#000000" font-family="sans-serif" font-size="14" lengthAdjust="spacing" textLength="41" x="445.5" y="589.3906">:users</text><path d="M451,602.3438 C451,592.3438 469,592.3438 469,592.3438 C469,592.3438 487,592.3438 487,602.3438 L487,628.3438 C487,638.3438 469,638.3438 469,638.3438 C469,638.3438 451,638.3438 451,628.3438 L451,602.3438 " fill="#E2E2F0" style="stroke:#181818;stroke-width:1.5;"/><path d="M451,602.3438 C451,612.3438 469,612.3438 469,612.3438 C469,612.3438 487,612.3438 487,602.3438 " fill="none" style="stroke:#181818;stroke-width:1.5;"/><rect fill="#E2E2F0" height="30.4883" rx="2.5" ry="2.5" style="stroke:#181818;stroke-width:0.5;" width="106" x="522" y="65.2656"/><text fill="#000000" font-family="sans-serif" font-size="14" lengthAdjust="spacing" textLength="92" x="529" y="85.8008">Admin/Client</text><rect fill="#E2E2F0" height="30.4883" rx="2.5" ry="2.5" style="stroke:#181818;stroke-width:0.5;" width="106" x="522" y="559.3672"/><text fill="#000000" font-family="sans-serif" font-size="14" lengthAdjust="spacing" textLength="92" x="529" y="579.9023">Admin/Client</text><rect fill="#E2E2F0" height="46.9766" rx="2.5" ry="2.5" style="stroke:#181818;stroke-width:0.5;" width="83" x="638" y="48.7773"/><text fill="#000000" font-family="sans-serif" font-size="14" lengthAdjust="spacing" textLength="57" x="651" y="69.3125">&#171;router&#187;</text><text fill="#000000" font-family="sans-serif" font-size="14" lengthAdjust="spacing" textLength="69" x="645" y="85.8008">:providers</text><rect fill="#E2E2F0" height="46.9766" rx="2.5" ry="2.5" style="stroke:#181818;stroke-width:0.5;" width="83" x="638" y="559.3672"/><text fill="#000000" font-family="sans-serif" font-size="14" lengthAdjust="spacing" textLength="57" x="651" y="579.9023">&#171;router&#187;</text><text fill="#000000" font-family="sans-serif" font-size="14" lengthAdjust="spacing" textLength="69" x="645" y="596.3906">:providers</text><rect fill="#E2E2F0" height="46.9766" rx="2.5" ry="2.5" style="stroke:#181818;stroke-width:0.5;" width="102" x="731" y="48.7773"/><text fill="#000000" font-family="sans-serif" font-size="14" lengthAdjust="spacing" textLength="88" x="738" y="69.3125">&#171;controllers&#187;</text><text fill="#000000" font-family="sans-serif" font-size="14" lengthAdjust="spacing" textLength="69" x="747.5" y="85.8008">:providers</text><rect fill="#E2E2F0" height="46.9766" rx="2.5" ry="2.5" style="stroke:#181818;stroke-width:0.5;" width="102" x="731" y="559.3672"/><text fill="#000000" font-family="sans-serif" font-size="14" lengthAdjust="spacing" textLength="88" x="738" y="579.9023">&#171;controllers&#187;</text><text fill="#000000" font-family="sans-serif" font-size="14" lengthAdjust="spacing" textLength="69" x="747.5" y="596.3906">:providers</text><rect fill="#E2E2F0" height="46.9766" rx="2.5" ry="2.5" style="stroke:#181818;stroke-width:0.5;" width="75" x="929.5" y="48.7773"/><text fill="#000000" font-family="sans-serif" font-size="14" lengthAdjust="spacing" textLength="57" x="938.5" y="69.3125">&#171;model&#187;</text><text fill="#000000" font-family="sans-serif" font-size="14" lengthAdjust="spacing" textLength="61" x="936.5" y="85.8008">:Provider</text><rect fill="#E2E2F0" height="46.9766" rx="2.5" ry="2.5" style="stroke:#181818;stroke-width:0.5;" width="75" x="929.5" y="559.3672"/><text fill="#000000" font-family="sans-serif" font-size="14" lengthAdjust="spacing" textLength="57" x="938.5" y="579.9023">&#171;model&#187;</text><text fill="#000000" font-family="sans-serif" font-size="14" lengthAdjust="spacing" textLength="61" x="936.5" y="596.3906">:Provider</text><text fill="#000000" font-family="sans-serif" font-size="14" lengthAdjust="spacing" textLength="80" x="1052" y="77.3125">&#171;MongoDB&#187;</text><text fill="#000000" font-family="sans-serif" font-size="14" lengthAdjust="spacing" textLength="69" x="1057.5" y="93.8008">:providers</text><path d="M1077,27.7773 C1077,17.7773 1095,17.7773 1095,17.7773 C1095,17.7773 1113,17.7773 1113,27.7773 L1113,53.7773 C1113,63.7773 1095,63.7773 1095,63.7773 C1095,63.7773 1077,63.7773 1077,53.7773 L1077,27.7773 " fill="#E2E2F0" style="stroke:#181818;stroke-width:1.5;"/><path d="M1077,27.7773 C1077,37.7773 1095,37.7773 1095,37.7773 C1095,37.7773 1113,37.7773 1113,27.7773 " fill="none" style="stroke:#181818;stroke-width:1.5;"/><text fill="#000000" font-family="sans-serif" font-size="14" lengthAdjust="spacing" textLength="80" x="1052" y="572.9023">&#171;MongoDB&#187;</text><text fill="#000000" font-family="sans-serif" font-size="14" lengthAdjust="spacing" textLength="69" x="1057.5" y="589.3906">:providers</text><path d="M1077,602.3438 C1077,592.3438 1095,592.3438 1095,592.3438 C1095,592.3438 1113,592.3438 1113,602.3438 L1113,628.3438 C1113,638.3438 1095,638.3438 1095,638.3438 C1095,638.3438 1077,638.3438 1077,628.3438 L1077,602.3438 " fill="#E2E2F0" style="stroke:#181818;stroke-width:1.5;"/><path d="M1077,602.3438 C1077,612.3438 1095,612.3438 1095,612.3438 C1095,612.3438 1113,612.3438 1113,602.3438 " fill="none" style="stroke:#181818;stroke-width:1.5;"/><rect fill="#E2E2F0" height="30.4883" rx="2.5" ry="2.5" style="stroke:#181818;stroke-width:0.5;" width="92" x="1148" y="65.2656"/><text fill="#000000" font-family="sans-serif" font-size="14" lengthAdjust="spacing" textLength="78" x="1155" y="85.8008">User/Client</text><rect fill="#E2E2F0" height="30.4883" rx="2.5" ry="2.5" style="stroke:#181818;stroke-width:0.5;" width="92" x="1148" y="559.3672"/><text fill="#000000" font-family="sans-serif" font-size="14" lengthAdjust="spacing" textLength="78" x="1155" y="579.9023">User/Client</text><rect fill="#E2E2F0" height="46.9766" rx="2.5" ry="2.5" style="stroke:#181818;stroke-width:0.5;" width="94" x="1407" y="48.7773"/><text fill="#000000" font-family="sans-serif" font-size="14" lengthAdjust="spacing" textLength="80" x="1414" y="69.3125">&#171;JavaScript&#187;</text><text fill="#000000" font-family="sans-serif" font-size="14" lengthAdjust="spacing" textLength="46" x="1431" y="85.8008">:server</text><rect fill="#E2E2F0" height="46.9766" rx="2.5" ry="2.5" style="stroke:#181818;stroke-width:0.5;" width="94" x="1407" y="559.3672"/><text fill="#000000" font-family="sans-serif" font-size="14" lengthAdjust="spacing" textLength="80" x="1414" y="579.9023">&#171;JavaScript&#187;</text><text fill="#000000" font-family="sans-serif" font-size="14" lengthAdjust="spacing" textLength="46" x="1431" y="596.3906">:server</text><rect fill="#E2E2F0" height="46.9766" rx="2.5" ry="2.5" style="stroke:#181818;stroke-width:0.5;" width="108" x="1511" y="48.7773"/><text fill="#000000" font-family="sans-serif" font-size="14" lengthAdjust="spacing" textLength="94" x="1518" y="69.3125">&#171;middleware&#187;</text><text fill="#000000" font-family="sans-serif" font-size="14" lengthAdjust="spacing" textLength="35" x="1547.5" y="85.8008">:auth</text><rect fill="#E2E2F0" height="46.9766" rx="2.5" ry="2.5" style="stroke:#181818;stroke-width:0.5;" width="108" x="1511" y="559.3672"/><text fill="#000000" font-family="sans-serif" font-size="14" lengthAdjust="spacing" textLength="94" x="1518" y="579.9023">&#171;middleware&#187;</text><text fill="#000000" font-family="sans-serif" font-size="14" lengthAdjust="spacing" textLength="35" x="1547.5" y="596.3906">:auth</text><rect fill="#E2E2F0" height="46.9766" rx="2.5" ry="2.5" style="stroke:#181818;stroke-width:0.5;" width="82" x="1711" y="48.7773"/><text fill="#000000" font-family="sans-serif" font-size="14" lengthAdjust="spacing" textLength="57" x="1723.5" y="69.3125">&#171;router&#187;</text><text fill="#000000" font-family="sans-serif" font-size="14" lengthAdjust="spacing" textLength="68" x="1718" y="85.8008">:bookings</text><rect fill="#E2E2F0" height="46.9766" rx="2.5" ry="2.5" style="stroke:#181818;stroke-width:0.5;" width="82" x="1711" y="559.3672"/><text fill="#000000" font-family="sans-serif" font-size="14" lengthAdjust="spacing" textLength="57" x="1723.5" y="579.9023">&#171;router&#187;</text><text fill="#000000" font-family="sans-serif" font-size="14" lengthAdjust="spacing" textLength="68" x="1718" y="596.3906">:bookings</text><rect fill="#E2E2F0" height="46.9766" rx="2.5" ry="2.5" style="stroke:#181818;stroke-width:0.5;" width="102" x="1837" y="48.7773"/><text fill="#000000" font-family="sans-serif" font-size="14" lengthAdjust="spacing" textLength="88" x="1844" y="69.3125">&#171;controllers&#187;</text><text fill="#000000" font-family="sans-serif" font-size="14" lengthAdjust="spacing" textLength="68" x="1854" y="85.8008">:bookings</text><rect fill="#E2E2F0" height="46.9766" rx="2.5" ry="2.5" style="stroke:#181818;stroke-width:0.5;" width="102" x="1837" y="559.3672"/><text fill="#000000" font-family="sans-serif" font-size="14" lengthAdjust="spacing" textLength="88" x="1844" y="579.9023">&#171;controllers&#187;</text><text fill="#000000" font-family="sans-serif" font-size="14" lengthAdjust="spacing" textLength="68" x="1854" y="596.3906">:bookings</text><rect fill="#E2E2F0" height="46.9766" rx="2.5" ry="2.5" style="stroke:#181818;stroke-width:0.5;" width="74" x="2080" y="48.7773"/><text fill="#000000" font-family="sans-serif" font-size="14" lengthAdjust="spacing" textLength="57" x="2088.5" y="69.3125">&#171;model&#187;</text><text fill="#000000" font-family="sans-serif" font-size="14" lengthAdjust="spacing" textLength="60" x="2087" y="85.8008">:Booking</text><rect fill="#E2E2F0" height="46.9766" rx="2.5" ry="2.5" style="stroke:#181818;stroke-width:0.5;" width="74" x="2080" y="559.3672"/><text fill="#000000" font-family="sans-serif" font-size="14" lengthAdjust="spacing" textLength="57" x="2088.5" y="579.9023">&#171;model&#187;</text><text fill="#000000" font-family="sans-serif" font-size="14" lengthAdjust="spacing" textLength="60" x="2087" y="596.3906">:Booking</text><text fill="#000000" font-family="sans-serif" font-size="14" lengthAdjust="spacing" textLength="80" x="2233" y="77.3125">&#171;MongoDB&#187;</text><text fill="#000000" font-family="sans-serif" font-size="14" lengthAdjust="spacing" textLength="68" x="2239" y="93.8008">:bookings</text><path d="M2258,27.7773 C2258,17.7773 2276,17.7773 2276,17.7773 C2276,17.7773 2294,17.7773 2294,27.7773 L2294,53.7773 C2294,63.7773 2276,63.7773 2276,63.7773 C2276,63.7773 2258,63.7773 2258,53.7773 L2258,27.7773 " fill="#E2E2F0" style="stroke:#181818;stroke-width:1.5;"/><path d="M2258,27.7773 C2258,37.7773 2276,37.7773 2276,37.7773 C2276,37.7773 2294,37.7773 2294,27.7773 " fill="none" style="stroke:#181818;stroke-width:1.5;"/><text fill="#000000" font-family="sans-serif" font-size="14" lengthAdjust="spacing" textLength="80" x="2233" y="572.9023">&#171;MongoDB&#187;</text><text fill="#000000" font-family="sans-serif" font-size="14" lengthAdjust="spacing" textLength="68" x="2239" y="589.3906">:bookings</text><path d="M2258,602.3438 C2258,592.3438 2276,592.3438 2276,592.3438 C2276,592.3438 2294,592.3438 2294,602.3438 L2294,628.3438 C2294,638.3438 2276,638.3438 2276,638.3438 C2276,638.3438 2258,638.3438 2258,628.3438 L2258,602.3438 " fill="#E2E2F0" style="stroke:#181818;stroke-width:1.5;"/><path d="M2258,602.3438 C2258,612.3438 2276,612.3438 2276,612.3438 C2276,612.3438 2294,612.3438 2294,602.3438 " fill="none" style="stroke:#181818;stroke-width:1.5;"/><rect fill="#FFFFFF" height="444.6133" style="stroke:#181818;stroke-width:1.0;" width="10" x="35.5" y="106.7539"/><rect fill="#FFFFFF" height="376.6816" style="stroke:#181818;stroke-width:1.0;" width="10" x="40.5" y="174.6855"/><rect fill="#FFFFFF" height="270.7949" style="stroke:#181818;stroke-width:1.0;" width="10" x="132" y="203.9961"/><rect fill="#FFFFFF" height="87.9316" style="stroke:#181818;stroke-width:1.0;" width="10" x="322" y="233.3066"/><rect fill="#FFFFFF" height="29.3105" style="stroke:#181818;stroke-width:1.0;" width="10" x="464" y="262.6172"/><rect fill="#FFFFFF" height="444.6133" style="stroke:#181818;stroke-width:1.0;" width="10" x="1449" y="106.7539"/><rect fill="#FFFFFF" height="405.9922" style="stroke:#181818;stroke-width:1.0;" width="10" x="1454" y="145.375"/><line style="stroke:#000000;stroke-width:1.0;stroke-dasharray:2.0,2.0;" x1="0" x2="2369" y1="107.7539" y2="107.7539"/><polygon fill="#181818" points="1442,141.375,1452,145.375,1442,149.375,1446,145.375" style="stroke:#181818;stroke-width:1.0;"/><line style="stroke:#181818;stroke-width:1.0;" x1="1194" x2="1448" y1="145.375" y2="145.375"/><text fill="#000000" font-family="sans-serif" font-size="13" lengthAdjust="spacing" textLength="158" x="1201" y="125.3223">POST /api/v1/auth/login</text><text fill="#000000" font-family="sans-serif" font-size="13" lengthAdjust="spacing" textLength="110" x="1201" y="140.6328">{email, password}</text><polygon fill="#181818" points="61.5,170.6855,51.5,174.6855,61.5,178.6855,57.5,174.6855" style="stroke:#181818;stroke-width:1.0;"/><line style="stroke:#181818;stroke-width:1.0;" x1="55.5" x2="1453" y1="174.6855" y2="174.6855"/><text fill="#000000" font-family="sans-serif" font-size="13" lengthAdjust="spacing" textLength="182" x="67.5" y="169.9434">app.use('/api/v1/auth', auth)</text><polygon fill="#181818" points="120,199.9961,130,203.9961,120,207.9961,124,203.9961" style="stroke:#181818;stroke-width:1.0;"/><line style="stroke:#181818;stroke-width:1.0;" x1="50.5" x2="126" y1="203.9961" y2="203.9961"/><text fill="#000000" font-family="sans-serif" font-size="13" lengthAdjust="spacing" textLength="40" x="57.5" y="199.2539">login()</text><polygon fill="#181818" points="310,229.3066,320,233.3066,310,237.3066,314,233.3066" style="stroke:#181818;stroke-width:1.0;"/><line style="stroke:#181818;stroke-width:1.0;" x1="142" x2="316" y1="233.3066" y2="233.3066"/><text fill="#000000" font-family="sans-serif" font-size="13" lengthAdjust="spacing" textLength="132" x="149" y="228.5645">User.findOne({email})</text><polygon fill="#181818" points="452,258.6172,462,262.6172,452,266.6172,456,262.6172" style="stroke:#181818;stroke-width:1.0;"/><line style="stroke:#181818;stroke-width:1.0;" x1="332" x2="458" y1="262.6172" y2="262.6172"/><text fill="#000000" font-family="sans-serif" font-size="13" lengthAdjust="spacing" textLength="113" x="339" y="257.875">find user by email</text><polygon fill="#181818" points="343,287.9277,333,291.9277,343,295.9277,339,291.9277" style="stroke:#181818;stroke-width:1.0;"/><line style="stroke:#181818;stroke-width:1.0;stroke-dasharray:2.0,2.0;" x1="337" x2="468" y1="291.9277" y2="291.9277"/><text fill="#000000" font-family="sans-serif" font-size="13" lengthAdjust="spacing" textLength="27" x="349" y="287.1855">user</text><polygon fill="#181818" points="153,317.2383,143,321.2383,153,325.2383,149,321.2383" style="stroke:#181818;stroke-width:1.0;"/><line style="stroke:#181818;stroke-width:1.0;stroke-dasharray:2.0,2.0;" x1="147" x2="326" y1="321.2383" y2="321.2383"/><text fill="#000000" font-family="sans-serif" font-size="13" lengthAdjust="spacing" textLength="27" x="159" y="316.4961">user</text><line style="stroke:#181818;stroke-width:1.0;" x1="142" x2="184" y1="350.5488" y2="350.5488"/><line style="stroke:#181818;stroke-width:1.0;" x1="184" x2="184" y1="350.5488" y2="363.5488"/><line style="stroke:#181818;stroke-width:1.0;" x1="143" x2="184" y1="363.5488" y2="363.5488"/><polygon fill="#181818" points="153,359.5488,143,363.5488,153,367.5488,149,363.5488" style="stroke:#181818;stroke-width:1.0;"/><text fill="#000000" font-family="sans-serif" font-size="13" lengthAdjust="spacing" textLength="166" x="149" y="345.8066">matchPassword(password)</text><path d="M76,378.5488 L138,378.5488 L138,385.8594 L128,395.8594 L76,395.8594 L76,378.5488 " fill="#EEEEEE" style="stroke:#000000;stroke-width:1.5;"/><rect fill="none" height="163.8184" style="stroke:#000000;stroke-width:1.5;" width="1174" x="76" y="378.5488"/><text fill="#000000" font-family="sans-serif" font-size="13" font-weight="bold" lengthAdjust="spacing" textLength="17" x="91" y="392.1172">alt</text><text fill="#000000" font-family="sans-serif" font-size="11" font-weight="bold" lengthAdjust="spacing" textLength="111" x="153" y="391.1836">[password matches]</text><line style="stroke:#181818;stroke-width:1.0;" x1="142" x2="184" y1="417.1699" y2="417.1699"/><line style="stroke:#181818;stroke-width:1.0;" x1="184" x2="184" y1="417.1699" y2="430.1699"/><line style="stroke:#181818;stroke-width:1.0;" x1="143" x2="184" y1="430.1699" y2="430.1699"/><polygon fill="#181818" points="153,426.1699,143,430.1699,153,434.1699,149,430.1699" style="stroke:#181818;stroke-width:1.0;"/><text fill="#000000" font-family="sans-serif" font-size="13" lengthAdjust="spacing" textLength="128" x="149" y="412.4277">getSignedJwtToken()</text><polygon fill="#181818" points="1182,470.791,1192,474.791,1182,478.791,1186,474.791" style="stroke:#181818;stroke-width:1.0;"/><line style="stroke:#181818;stroke-width:1.0;" x1="137" x2="1188" y1="474.791" y2="474.791"/><text fill="#000000" font-family="sans-serif" font-size="13" lengthAdjust="spacing" textLength="89" x="144" y="454.7383">response(200)</text><text fill="#000000" font-family="sans-serif" font-size="13" lengthAdjust="spacing" textLength="137" x="144" y="470.0488">{success, token, data}</text><line style="stroke:#000000;stroke-width:1.0;stroke-dasharray:2.0,2.0;" x1="76" x2="1250" y1="483.791" y2="483.791"/><text fill="#000000" font-family="sans-serif" font-size="11" font-weight="bold" lengthAdjust="spacing" textLength="115" x="81" y="494.4258">[password incorrect]</text><polygon fill="#181818" points="1182,530.3672,1192,534.3672,1182,538.3672,1186,534.3672" style="stroke:#181818;stroke-width:1.0;"/><line style="stroke:#181818;stroke-width:1.0;" x1="137" x2="1188" y1="534.3672" y2="534.3672"/><text fill="#000000" font-family="sans-serif" font-size="13" lengthAdjust="spacing" textLength="89" x="144" y="514.3145">response(400)</text><text fill="#000000" font-family="sans-serif" font-size="13" lengthAdjust="spacing" textLength="131" x="144" y="529.625">{success: false, msg}</text><line style="stroke:#000000;stroke-width:1.0;stroke-dasharray:2.0,2.0;" x1="0" x2="2369" y1="549.3672" y2="549.3672"/><text fill="#888888" font-family="sans-serif" font-size="10" lengthAdjust="spacing" textLength="186" x="2182" y="14.668">EzyCar - Car Service Booking Platform</text><text fill="#888888" font-family="sans-serif" font-size="10" lengthAdjust="spacing" textLength="55" x="1156.5" y="649.0117">Page 2 of 6</text><!--SRC=[xLdTJ-Cu47_FNs4X8LfjFvQ5kuSAaBQ0zWujMdHmkeVZ7anYYaLgzsotR1VrVx_nLvgaIPgqiAkxemziOi_yx1bxVZEJVI0u8WATVvkVOe6wIF-z9c96GuA6d3zIDa9NCLRtN8o3UyuL25_X4K6x4_YxY_WzsesnLEOj2FRGSSqVY5w7X651ETeVeDyb0Fz6HbGgWHNbh0cKeYecQASI3xMklbpVe3wUqFvilu-dwg4lp3mHxPqWc62XQ4Wdc2cqexNxfp4bJEqWB55e7hCoHqSNU8QlGq4dwkJabWr0PqQ4aRUFUNd1fx2OaTNB6qaxzX5Uyz8XPqhmE2P2PbLI4qLwOnwHs6XeAuo66T9lGOGLliEIQC5BpaRyR6X4fp0fZQmMasV38B0se-w9imQzUpT0vJwyPSyCZqa7aJ6cSGSf4hFfk8CcMCedBg8Ec1gJHU3007Pfke76aqaFjj7QIyFlTP3-fnsaX44rvmAZxpVIQWVvQT18N61azKCl50GhqjAcdu5Rsi5I1XIS7nBnw_01B0lyS3U3sUqEaCPPMVceswqZjchI08s8kgOZHgAB9tN37mahDimVKrTxG4uu0nT-UB_VXlEGqp0aKi9PQFKEqeU_2096ddIqRXgi7rnmVUOZkbMKPe2AmZFM4s-nkNbi6WV2HN0XwKFn5OFGh5Wx0kyfYxumqh8RN5H4e9OqeOFkvfPXlcCaZh4A7wwSyrhUY-q0nohngHKYCa3mspIyotGBG_nzUOYJ66vHiZFAGYu42LKJ_CCCFXm01imE6iiHmBDeQnOv6A2FqHZY_jImi4HNWiyeb2BRC4efQ8vT9cvOhf2BKK-p2zO3svBBc4PHJ9wm85csq0-NoLm59IKRJl6Ijqsk8wUiScgs5659KrvaILN9EPNHLNQvP0rDMyQPLQoLw2RL18uYOIyuYHUtJ5zPBkWtKz8Dq920tuIz_2bIo_hLB0F82a80WYmtkI8-G812x-VeueyRXwm3tJoX6OvfPE9e5IPtB6PPHhug5zZvwU9zOcSWKB3nrbwxPBNyfe5ymaTBaRhGibgmR_s2gB_8oFrMyOhkXTcHBPFyc3CcnoGPgpBNn9wnU_4bbo1_z-vuD5zYPNK097LlCX2k3FDwQR7kojgQqVoLgjvsaXqsqDM7OIzsLGrccLc367RsnyAuMdiq1UY7xmzAwTci0HHjrh7NbhAgYrk8l_-gz7_eQZzFrAxLt8RyIo1pr7zdH-LtAYktPdw_tnJnEyFMydv6DJLPfb-BzKjr7EfInHzfypnHff4no5jHhnpsgd2d_ReTv0QX-IF_YjJYJIxEBCdisiIYamJKz2-PO1Bqg5wAoPW2ETwz5sUNj6K5mvgsR3xfcTqTctVzsAFHEhoAPALxZk7yroX9Lpr_THhaBTEuhEIHxT9Mil-QMSlqALw2VALIoMHkdMiyYsfRtBDnJEjPEtYGTlMYdK7Dg0FSCc1jMS6d4BAsfVE4b5PFYNVpcz5M6ZlWPLYaNEcisYZQRtU9EZf0NEHozQOUBAs3QZhFlUQAeRgkSpRLigBGQqq0QdwYMfP7_cVAbyJz9yVeO9lrglhPpAfiIHcsZVQ1eokrUxYqKR3n5WxNRi4llwmHJO5OYrqBbtp1Ch5uWTUj4tzoHTqdefOLtIyGirpCjoaMgt1HwzFvQkNG7yyVxFnRwIXVi0niLjHLdynR4VVZYhWHKPTpD-82QNqrrxp4k6KzoOLgFQUAzm7gxfkP2PzCOvrOzpnhx-LAjVAKclh2dAy5QkPJ-UTVmQQfT9rkpQ_0fgWg_jRm_yuZF_kF0vY5iD6N-DvG0ebQP-UVps_ELsbgGAEtrF7ZKaV5iVotyaOPGuD7YIBPJdiJNavwOZX9F9P0onQh3i6cEuScRSf6hKcgVyktlKs-BjYSYTCtv9Qr-1E3I-4xmdQcsIxWsIRETdlksGFJ_q7QgBEsQeLDsZgNE_xTh9Ukgrmpb-ce7w3dnIBRZvNaiSQzs7wpNipVezKky0Kxm5TFe_y0]--></g></svg>