<?xml version="1.0" encoding="us-ascii" standalone="no"?><svg xmlns="http://www.w3.org/2000/svg" xmlns:xlink="http://www.w3.org/1999/xlink" contentStyleType="text/css" height="1236px" preserveAspectRatio="none" style="width:2028px;height:1236px;background:#FFFFFF;" version="1.1" viewBox="0 0 2028 1236" width="2028px" zoomAndPan="magnify"><defs/><g><!--cluster EzyCar - Car Service Booking Platform--><g id="cluster_EzyCar - Car Service Booking Platform"><rect fill="none" height="639" rx="2.5" ry="2.5" style="stroke:#000000;stroke-width:1.5;" width="2015" x="7" y="108.27"/><text fill="#000000" font-family="sans-serif" font-size="14" font-weight="bold" lengthAdjust="spacing" textLength="278" x="875.5" y="123.8052">EzyCar - Car Service Booking Platform</text></g><!--cluster MongoDB Database--><g id="cluster_MongoDB Database"><rect fill="none" height="347" rx="2.5" ry="2.5" style="stroke:#000000;stroke-width:1.5;" width="165" x="1833" y="268.27"/><text fill="#000000" font-family="sans-serif" font-size="14" font-weight="bold" lengthAdjust="spacing" textLength="140" x="1845.5" y="283.8052">MongoDB Database</text></g><!--class EzyCarService--><g id="elem_EzyCarService"><rect codeLine="11" fill="#F1F1F1" height="124.9297" id="EzyCarService" rx="2.5" ry="2.5" style="stroke:#181818;stroke-width:0.5;" width="127" x="23" y="387.81"/><ellipse cx="38" cy="409.2983" fill="#ADD1B2" rx="11" ry="11" style="stroke:#181818;stroke-width:1.0;"/><path d="M40.4731,415.4413 Q39.8921,415.7402 39.2529,415.8896 Q38.6138,416.039 37.9082,416.039 Q35.4014,416.039 34.0815,414.3871 Q32.7617,412.7353 32.7617,409.6142 Q32.7617,406.4848 34.0815,404.8329 Q35.4014,403.1811 37.9082,403.1811 Q38.6138,403.1811 39.2612,403.3305 Q39.9087,403.4799 40.4731,403.7787 L40.4731,406.5014 Q39.8423,405.9204 39.2488,405.6506 Q38.6553,405.3808 38.0244,405.3808 Q36.6797,405.3808 35.9949,406.4475 Q35.3101,407.5141 35.3101,409.6142 Q35.3101,411.706 35.9949,412.7726 Q36.6797,413.8393 38.0244,413.8393 Q38.6553,413.8393 39.2488,413.5695 Q39.8423,413.2997 40.4731,412.7187 Z " fill="#000000"/><text fill="#000000" font-family="sans-serif" font-size="14" lengthAdjust="spacing" textLength="92" x="53.5" y="406.3452">&#171;Application&#187;</text><text fill="#000000" font-family="sans-serif" font-size="14" lengthAdjust="spacing" textLength="95" x="52" y="422.8334">EzyCarService</text><line style="stroke:#181818;stroke-width:0.5;" x1="24" x2="149" y1="430.7866" y2="430.7866"/><line style="stroke:#181818;stroke-width:0.5;" x1="24" x2="149" y1="438.7866" y2="438.7866"/><text fill="#000000" font-family="sans-serif" font-size="14" lengthAdjust="spacing" textLength="75" x="29" y="456.3217">+express()</text><text fill="#000000" font-family="sans-serif" font-size="14" lengthAdjust="spacing" textLength="93" x="29" y="472.81">+connectDB()</text><text fill="#000000" font-family="sans-serif" font-size="14" lengthAdjust="spacing" textLength="101" x="29" y="489.2983">+middleware()</text><text fill="#000000" font-family="sans-serif" font-size="14" lengthAdjust="spacing" textLength="65" x="29" y="505.7866">+routes()</text></g><!--class ResourceAuth--><g id="elem_ResourceAuth"><rect codeLine="21" fill="#F1F1F1" height="124.9297" id="ResourceAuth" rx="2.5" ry="2.5" style="stroke:#181818;stroke-width:0.5;" width="179" x="362" y="606.81"/><ellipse cx="397.7" cy="628.2983" fill="#ADD1B2" rx="11" ry="11" style="stroke:#181818;stroke-width:1.0;"/><path d="M400.1731,634.4413 Q399.5921,634.7402 398.9529,634.8896 Q398.3138,635.039 397.6082,635.039 Q395.1014,635.039 393.7815,633.3871 Q392.4617,631.7353 392.4617,628.6142 Q392.4617,625.4848 393.7815,623.8329 Q395.1014,622.1811 397.6082,622.1811 Q398.3138,622.1811 398.9612,622.3305 Q399.6087,622.4799 400.1731,622.7788 L400.1731,625.5014 Q399.5423,624.9204 398.9488,624.6506 Q398.3553,624.3808 397.7244,624.3808 Q396.3797,624.3808 395.6949,625.4475 Q395.0101,626.5141 395.0101,628.6142 Q395.0101,630.706 395.6949,631.7726 Q396.3797,632.8393 397.7244,632.8393 Q398.3553,632.8393 398.9488,632.5695 Q399.5423,632.2997 400.1731,631.7187 Z " fill="#000000"/><text fill="#000000" font-family="sans-serif" font-size="14" lengthAdjust="spacing" textLength="77" x="428.3" y="625.3452">&#171;Resource&#187;</text><text fill="#000000" font-family="sans-serif" font-size="14" lengthAdjust="spacing" textLength="101" x="416.3" y="641.8334">Authentication</text><line style="stroke:#181818;stroke-width:0.5;" x1="363" x2="540" y1="649.7866" y2="649.7866"/><line style="stroke:#181818;stroke-width:0.5;" x1="363" x2="540" y1="657.7866" y2="657.7866"/><text fill="#000000" font-family="sans-serif" font-size="14" lengthAdjust="spacing" textLength="167" x="368" y="675.3217">&#171;POST&#187; +register(): User</text><text fill="#000000" font-family="sans-serif" font-size="14" lengthAdjust="spacing" textLength="161" x="368" y="691.81">&#171;POST&#187; +login(): Token</text><text fill="#000000" font-family="sans-serif" font-size="14" lengthAdjust="spacing" textLength="147" x="368" y="708.2983">&#171;GET&#187; +getMe(): User</text><text fill="#000000" font-family="sans-serif" font-size="14" lengthAdjust="spacing" textLength="148" x="368" y="724.7866">&#171;GET&#187; +logout(): void</text></g><!--class RepresentationUser--><g id="elem_RepresentationUser"><rect codeLine="28" fill="#F1F1F1" height="207.3711" id="RepresentationUser" rx="2.5" ry="2.5" style="stroke:#181818;stroke-width:0.5;" width="269" x="1446" y="521.59"/><ellipse cx="1517.25" cy="543.0783" fill="#ADD1B2" rx="11" ry="11" style="stroke:#181818;stroke-width:1.0;"/><path d="M1519.7231,549.2213 Q1519.1421,549.5202 1518.5029,549.6696 Q1517.8638,549.819 1517.1582,549.819 Q1514.6514,549.819 1513.3315,548.1671 Q1512.0117,546.5153 1512.0117,543.3942 Q1512.0117,540.2648 1513.3315,538.6129 Q1514.6514,536.9611 1517.1582,536.9611 Q1517.8638,536.9611 1518.5112,537.1105 Q1519.1587,537.2599 1519.7231,537.5587 L1519.7231,540.2814 Q1519.0923,539.7004 1518.4988,539.4306 Q1517.9053,539.1608 1517.2744,539.1608 Q1515.9297,539.1608 1515.2449,540.2275 Q1514.5601,541.2941 1514.5601,543.3942 Q1514.5601,545.486 1515.2449,546.5526 Q1515.9297,547.6193 1517.2744,547.6193 Q1517.9053,547.6193 1518.4988,547.3495 Q1519.0923,547.0797 1519.7231,546.4987 Z " fill="#000000"/><text fill="#000000" font-family="sans-serif" font-size="14" lengthAdjust="spacing" textLength="118" x="1537.75" y="540.1252">&#171;Representation&#187;</text><text fill="#000000" font-family="sans-serif" font-size="14" lengthAdjust="spacing" textLength="31" x="1581.25" y="556.6134">User</text><line style="stroke:#181818;stroke-width:0.5;" x1="1447" x2="1714" y1="564.5666" y2="564.5666"/><text fill="#000000" font-family="sans-serif" font-size="14" lengthAdjust="spacing" textLength="93" x="1452" y="582.1017">-_id: ObjectId</text><text fill="#000000" font-family="sans-serif" font-size="14" lengthAdjust="spacing" textLength="95" x="1452" y="598.59">-name: String</text><text fill="#000000" font-family="sans-serif" font-size="14" lengthAdjust="spacing" textLength="94" x="1452" y="615.0783">-email: String</text><text fill="#000000" font-family="sans-serif" font-size="14" lengthAdjust="spacing" textLength="105" x="1452" y="631.5666">-telnum: String</text><text fill="#000000" font-family="sans-serif" font-size="14" lengthAdjust="spacing" textLength="187" x="1452" y="648.0548">-password: String (hashed)</text><text fill="#000000" font-family="sans-serif" font-size="14" lengthAdjust="spacing" textLength="178" x="1452" y="664.5431">-role: String (user/admin)</text><text fill="#000000" font-family="sans-serif" font-size="14" lengthAdjust="spacing" textLength="113" x="1452" y="681.0314">-createdAt: Date</text><line style="stroke:#181818;stroke-width:1.0;" x1="1447" x2="1714" y1="687.9845" y2="687.9845"/><text fill="#000000" font-family="sans-serif" font-size="14" lengthAdjust="spacing" textLength="202" x="1452" y="705.5197">+getSignedJwtToken(): String</text><text fill="#000000" font-family="sans-serif" font-size="14" lengthAdjust="spacing" textLength="257" x="1452" y="722.008">+matchPassword(password): Boolean</text></g><!--class ResourceProviders--><g id="elem_ResourceProviders"><rect codeLine="44" fill="#F1F1F1" height="91.9531" id="ResourceProviders" rx="2.5" ry="2.5" style="stroke:#181818;stroke-width:0.5;" width="251" x="326" y="336.3"/><ellipse cx="408.75" cy="357.7883" fill="#ADD1B2" rx="11" ry="11" style="stroke:#181818;stroke-width:1.0;"/><path d="M411.2231,363.9313 Q410.6421,364.2302 410.0029,364.3796 Q409.3638,364.529 408.6582,364.529 Q406.1514,364.529 404.8315,362.8771 Q403.5117,361.2253 403.5117,358.1042 Q403.5117,354.9748 404.8315,353.3229 Q406.1514,351.6711 408.6582,351.6711 Q409.3638,351.6711 410.0112,351.8205 Q410.6587,351.9699 411.2231,352.2687 L411.2231,354.9914 Q410.5923,354.4104 409.9988,354.1406 Q409.4053,353.8708 408.7744,353.8708 Q407.4297,353.8708 406.7449,354.9375 Q406.0601,356.0041 406.0601,358.1042 Q406.0601,360.196 406.7449,361.2626 Q407.4297,362.3293 408.7744,362.3293 Q409.4053,362.3293 409.9988,362.0595 Q410.5923,361.7897 411.2231,361.2087 Z " fill="#000000"/><text fill="#000000" font-family="sans-serif" font-size="14" lengthAdjust="spacing" textLength="77" x="429.25" y="354.8352">&#171;Resource&#187;</text><text fill="#000000" font-family="sans-serif" font-size="14" lengthAdjust="spacing" textLength="64" x="435.75" y="371.3234">Providers</text><line style="stroke:#181818;stroke-width:0.5;" x1="327" x2="576" y1="379.2766" y2="379.2766"/><line style="stroke:#181818;stroke-width:0.5;" x1="327" x2="576" y1="387.2766" y2="387.2766"/><text fill="#000000" font-family="sans-serif" font-size="14" lengthAdjust="spacing" textLength="227" x="332" y="404.8117">&#171;GET&#187; +getProviders(): Provider[]</text><text fill="#000000" font-family="sans-serif" font-size="14" lengthAdjust="spacing" textLength="239" x="332" y="421.3">&#171;POST&#187; +createProvider(): Provider</text></g><!--class ResourceProvider--><g id="elem_ResourceProvider"><rect codeLine="49" fill="#F1F1F1" height="108.4414" id="ResourceProvider" rx="2.5" ry="2.5" style="stroke:#181818;stroke-width:0.5;" width="248" x="718" y="224.05"/><ellipse cx="799.25" cy="245.5383" fill="#ADD1B2" rx="11" ry="11" style="stroke:#181818;stroke-width:1.0;"/><path d="M801.7231,251.6813 Q801.1421,251.9802 800.5029,252.1296 Q799.8638,252.279 799.1582,252.279 Q796.6514,252.279 795.3315,250.6271 Q794.0117,248.9753 794.0117,245.8542 Q794.0117,242.7248 795.3315,241.0729 Q796.6514,239.4211 799.1582,239.4211 Q799.8638,239.4211 800.5112,239.5705 Q801.1587,239.7199 801.7231,240.0187 L801.7231,242.7414 Q801.0923,242.1604 800.4988,241.8906 Q799.9053,241.6208 799.2744,241.6208 Q797.9297,241.6208 797.2449,242.6875 Q796.5601,243.7541 796.5601,245.8542 Q796.5601,247.946 797.2449,249.0126 Q797.9297,250.0793 799.2744,250.0793 Q799.9053,250.0793 800.4988,249.8095 Q801.0923,249.5397 801.7231,248.9587 Z " fill="#000000"/><text fill="#000000" font-family="sans-serif" font-size="14" lengthAdjust="spacing" textLength="77" x="819.75" y="242.5852">&#171;Resource&#187;</text><text fill="#000000" font-family="sans-serif" font-size="14" lengthAdjust="spacing" textLength="57" x="829.75" y="259.0734">Provider</text><line style="stroke:#181818;stroke-width:0.5;" x1="719" x2="965" y1="267.0266" y2="267.0266"/><line style="stroke:#181818;stroke-width:0.5;" x1="719" x2="965" y1="275.0266" y2="275.0266"/><text fill="#000000" font-family="sans-serif" font-size="14" lengthAdjust="spacing" textLength="210" x="724" y="292.5617">&#171;GET&#187; +getProvider(): Provider</text><text fill="#000000" font-family="sans-serif" font-size="14" lengthAdjust="spacing" textLength="236" x="724" y="309.05">&#171;PUT&#187; +updateProvider(): Provider</text><text fill="#000000" font-family="sans-serif" font-size="14" lengthAdjust="spacing" textLength="225" x="724" y="325.5383">&#171;DELETE&#187; +deleteProvider(): void</text></g><!--class RepresentationProvider--><g id="elem_RepresentationProvider"><rect codeLine="55" fill="#F1F1F1" height="141.418" id="RepresentationProvider" rx="2.5" ry="2.5" style="stroke:#181818;stroke-width:0.5;" width="150" x="1505.5" y="257.56"/><ellipse cx="1520.5" cy="279.0483" fill="#ADD1B2" rx="11" ry="11" style="stroke:#181818;stroke-width:1.0;"/><path d="M1522.9731,285.1913 Q1522.3921,285.4902 1521.7529,285.6396 Q1521.1138,285.789 1520.4082,285.789 Q1517.9014,285.789 1516.5815,284.1371 Q1515.2617,282.4853 1515.2617,279.3642 Q1515.2617,276.2348 1516.5815,274.5829 Q1517.9014,272.9311 1520.4082,272.9311 Q1521.1138,272.9311 1521.7612,273.0805 Q1522.4087,273.2299 1522.9731,273.5287 L1522.9731,276.2514 Q1522.3423,275.6704 1521.7488,275.4006 Q1521.1553,275.1308 1520.5244,275.1308 Q1519.1797,275.1308 1518.4949,276.1975 Q1517.8101,277.2641 1517.8101,279.3642 Q1517.8101,281.456 1518.4949,282.5226 Q1519.1797,283.5893 1520.5244,283.5893 Q1521.1553,283.5893 1521.7488,283.3195 Q1522.3423,283.0497 1522.9731,282.4687 Z " fill="#000000"/><text fill="#000000" font-family="sans-serif" font-size="14" lengthAdjust="spacing" textLength="118" x="1534.5" y="276.0952">&#171;Representation&#187;</text><text fill="#000000" font-family="sans-serif" font-size="14" lengthAdjust="spacing" textLength="57" x="1565" y="292.5834">Provider</text><line style="stroke:#181818;stroke-width:0.5;" x1="1506.5" x2="1654.5" y1="300.5366" y2="300.5366"/><text fill="#000000" font-family="sans-serif" font-size="14" lengthAdjust="spacing" textLength="93" x="1511.5" y="318.0717">-_id: ObjectId</text><text fill="#000000" font-family="sans-serif" font-size="14" lengthAdjust="spacing" textLength="95" x="1511.5" y="334.56">-name: String</text><text fill="#000000" font-family="sans-serif" font-size="14" lengthAdjust="spacing" textLength="111" x="1511.5" y="351.0483">-address: String</text><text fill="#000000" font-family="sans-serif" font-size="14" lengthAdjust="spacing" textLength="74" x="1511.5" y="367.5366">-tel: String</text><text fill="#000000" font-family="sans-serif" font-size="14" lengthAdjust="spacing" textLength="113" x="1511.5" y="384.0248">-createdAt: Date</text><line style="stroke:#181818;stroke-width:0.5;" x1="1506.5" x2="1654.5" y1="390.978" y2="390.978"/></g><!--class ResourceBookings--><g id="elem_ResourceBookings"><rect codeLine="66" fill="#F1F1F1" height="108.4414" id="ResourceBookings" rx="2.5" ry="2.5" style="stroke:#181818;stroke-width:0.5;" width="249" x="327" y="463.05"/><ellipse cx="408.75" cy="484.5383" fill="#ADD1B2" rx="11" ry="11" style="stroke:#181818;stroke-width:1.0;"/><path d="M411.2231,490.6813 Q410.6421,490.9802 410.0029,491.1296 Q409.3638,491.279 408.6582,491.279 Q406.1514,491.279 404.8315,489.6271 Q403.5117,487.9753 403.5117,484.8542 Q403.5117,481.7248 404.8315,480.0729 Q406.1514,478.4211 408.6582,478.4211 Q409.3638,478.4211 410.0112,478.5705 Q410.6587,478.7199 411.2231,479.0187 L411.2231,481.7414 Q410.5923,481.1604 409.9988,480.8906 Q409.4053,480.6208 408.7744,480.6208 Q407.4297,480.6208 406.7449,481.6875 Q406.0601,482.7541 406.0601,484.8542 Q406.0601,486.946 406.7449,488.0126 Q407.4297,489.0793 408.7744,489.0793 Q409.4053,489.0793 409.9988,488.8095 Q410.5923,488.5397 411.2231,487.9587 Z " fill="#000000"/><text fill="#000000" font-family="sans-serif" font-size="14" lengthAdjust="spacing" textLength="77" x="429.25" y="481.5852">&#171;Resource&#187;</text><text fill="#000000" font-family="sans-serif" font-size="14" lengthAdjust="spacing" textLength="63" x="436.25" y="498.0734">Bookings</text><line style="stroke:#181818;stroke-width:0.5;" x1="328" x2="575" y1="506.0266" y2="506.0266"/><line style="stroke:#181818;stroke-width:0.5;" x1="328" x2="575" y1="514.0266" y2="514.0266"/><text fill="#000000" font-family="sans-serif" font-size="14" lengthAdjust="spacing" textLength="225" x="333" y="531.5617">&#171;GET&#187; +getBookings(): Booking[]</text><text fill="#000000" font-family="sans-serif" font-size="14" lengthAdjust="spacing" textLength="237" x="333" y="548.05">&#171;POST&#187; +createBooking(): Booking</text><text fill="#000000" font-family="sans-serif" font-size="14" lengthAdjust="spacing" textLength="229" x="333" y="564.5383">&#171;GET&#187; +getMyHistory(): Booking[]</text></g><!--class ResourceBooking--><g id="elem_ResourceBooking"><rect codeLine="72" fill="#F1F1F1" height="108.4414" id="ResourceBooking" rx="2.5" ry="2.5" style="stroke:#181818;stroke-width:0.5;" width="246" x="719" y="494.05"/><ellipse cx="799.25" cy="515.5383" fill="#ADD1B2" rx="11" ry="11" style="stroke:#181818;stroke-width:1.0;"/><path d="M801.7231,521.6813 Q801.1421,521.9802 800.5029,522.1296 Q799.8638,522.279 799.1582,522.279 Q796.6514,522.279 795.3315,520.6271 Q794.0117,518.9753 794.0117,515.8542 Q794.0117,512.7248 795.3315,511.0729 Q796.6514,509.4211 799.1582,509.4211 Q799.8638,509.4211 800.5112,509.5705 Q801.1587,509.7199 801.7231,510.0187 L801.7231,512.7414 Q801.0923,512.1604 800.4988,511.8906 Q799.9053,511.6208 799.2744,511.6208 Q797.9297,511.6208 797.2449,512.6875 Q796.5601,513.7541 796.5601,515.8542 Q796.5601,517.946 797.2449,519.0126 Q797.9297,520.0793 799.2744,520.0793 Q799.9053,520.0793 800.4988,519.8095 Q801.0923,519.5397 801.7231,518.9587 Z " fill="#000000"/><text fill="#000000" font-family="sans-serif" font-size="14" lengthAdjust="spacing" textLength="77" x="819.75" y="512.5852">&#171;Resource&#187;</text><text fill="#000000" font-family="sans-serif" font-size="14" lengthAdjust="spacing" textLength="56" x="830.25" y="529.0734">Booking</text><line style="stroke:#181818;stroke-width:0.5;" x1="720" x2="964" y1="537.0266" y2="537.0266"/><line style="stroke:#181818;stroke-width:0.5;" x1="720" x2="964" y1="545.0266" y2="545.0266"/><text fill="#000000" font-family="sans-serif" font-size="14" lengthAdjust="spacing" textLength="208" x="725" y="562.5617">&#171;GET&#187; +getBooking(): Booking</text><text fill="#000000" font-family="sans-serif" font-size="14" lengthAdjust="spacing" textLength="234" x="725" y="579.05">&#171;PUT&#187; +updateBooking(): Booking</text><text fill="#000000" font-family="sans-serif" font-size="14" lengthAdjust="spacing" textLength="224" x="725" y="595.5383">&#171;DELETE&#187; +deleteBooking(): void</text></g><!--class RepresentationBooking--><g id="elem_RepresentationBooking"><rect codeLine="78" fill="#F1F1F1" height="141.418" id="RepresentationBooking" rx="2.5" ry="2.5" style="stroke:#181818;stroke-width:0.5;" width="241" x="1064" y="380.56"/><ellipse cx="1121.25" cy="402.0483" fill="#ADD1B2" rx="11" ry="11" style="stroke:#181818;stroke-width:1.0;"/><path d="M1123.7231,408.1913 Q1123.1421,408.4902 1122.5029,408.6396 Q1121.8638,408.789 1121.1582,408.789 Q1118.6514,408.789 1117.3315,407.1371 Q1116.0117,405.4853 1116.0117,402.3642 Q1116.0117,399.2348 1117.3315,397.5829 Q1118.6514,395.9311 1121.1582,395.9311 Q1121.8638,395.9311 1122.5112,396.0805 Q1123.1587,396.2299 1123.7231,396.5287 L1123.7231,399.2514 Q1123.0923,398.6704 1122.4988,398.4006 Q1121.9053,398.1308 1121.2744,398.1308 Q1119.9297,398.1308 1119.2449,399.1975 Q1118.5601,400.2641 1118.5601,402.3642 Q1118.5601,404.456 1119.2449,405.5226 Q1119.9297,406.5893 1121.2744,406.5893 Q1121.9053,406.5893 1122.4988,406.3195 Q1123.0923,406.0497 1123.7231,405.4687 Z " fill="#000000"/><text fill="#000000" font-family="sans-serif" font-size="14" lengthAdjust="spacing" textLength="118" x="1141.75" y="399.0952">&#171;Representation&#187;</text><text fill="#000000" font-family="sans-serif" font-size="14" lengthAdjust="spacing" textLength="56" x="1172.75" y="415.5834">Booking</text><line style="stroke:#181818;stroke-width:0.5;" x1="1065" x2="1304" y1="423.5366" y2="423.5366"/><text fill="#000000" font-family="sans-serif" font-size="14" lengthAdjust="spacing" textLength="93" x="1070" y="441.0717">-_id: ObjectId</text><text fill="#000000" font-family="sans-serif" font-size="14" lengthAdjust="spacing" textLength="135" x="1070" y="457.56">-bookingDate: Date</text><text fill="#000000" font-family="sans-serif" font-size="14" lengthAdjust="spacing" textLength="113" x="1070" y="474.0483">-createdAt: Date</text><line style="stroke:#181818;stroke-width:0.5;" x1="1065" x2="1304" y1="481.0014" y2="481.0014"/><text fill="#000000" font-family="sans-serif" font-size="14" lengthAdjust="spacing" textLength="175" x="1070" y="498.5366">-user: ObjectId (ref: User)</text><text fill="#000000" font-family="sans-serif" font-size="14" lengthAdjust="spacing" textLength="229" x="1070" y="515.0248">-provider: ObjectId (ref: Provider)</text></g><!--class MiddlewareAuth--><g id="elem_MiddlewareAuth"><rect codeLine="89" fill="#F1F1F1" height="91.9531" id="MiddlewareAuth" rx="2.5" ry="2.5" style="stroke:#181818;stroke-width:0.5;" width="182" x="751" y="367.3"/><ellipse cx="791.65" cy="388.7883" fill="#ADD1B2" rx="11" ry="11" style="stroke:#181818;stroke-width:1.0;"/><path d="M794.1231,394.9313 Q793.5421,395.2302 792.9029,395.3796 Q792.2638,395.529 791.5582,395.529 Q789.0514,395.529 787.7315,393.8771 Q786.4117,392.2253 786.4117,389.1042 Q786.4117,385.9748 787.7315,384.3229 Q789.0514,382.6711 791.5582,382.6711 Q792.2638,382.6711 792.9112,382.8205 Q793.5587,382.9699 794.1231,383.2687 L794.1231,385.9914 Q793.4923,385.4104 792.8988,385.1406 Q792.3053,384.8708 791.6744,384.8708 Q790.3297,384.8708 789.6449,385.9375 Q788.9601,387.0041 788.9601,389.1042 Q788.9601,391.196 789.6449,392.2626 Q790.3297,393.3293 791.6744,393.3293 Q792.3053,393.3293 792.8988,393.0595 Q793.4923,392.7897 794.1231,392.2087 Z " fill="#000000"/><text fill="#000000" font-family="sans-serif" font-size="14" lengthAdjust="spacing" textLength="93" x="811.35" y="385.8352">&#171;Middleware&#187;</text><text fill="#000000" font-family="sans-serif" font-size="14" lengthAdjust="spacing" textLength="33" x="841.35" y="402.3234">Auth</text><line style="stroke:#181818;stroke-width:0.5;" x1="752" x2="932" y1="410.2766" y2="410.2766"/><line style="stroke:#181818;stroke-width:0.5;" x1="752" x2="932" y1="418.2766" y2="418.2766"/><text fill="#000000" font-family="sans-serif" font-size="14" lengthAdjust="spacing" textLength="107" x="757" y="435.8117">+protect(): void</text><text fill="#000000" font-family="sans-serif" font-size="14" lengthAdjust="spacing" textLength="170" x="757" y="452.3">+authorize(...roles): void</text></g><!--class MiddlewareSecurity--><g id="elem_MiddlewareSecurity"><rect codeLine="94" fill="#F1F1F1" height="157.9063" id="MiddlewareSecurity" rx="2.5" ry="2.5" style="stroke:#181818;stroke-width:0.5;" width="173" x="365" y="143.32"/><ellipse cx="401.6" cy="164.8083" fill="#ADD1B2" rx="11" ry="11" style="stroke:#181818;stroke-width:1.0;"/><path d="M404.0731,170.9513 Q403.4921,171.2502 402.8529,171.3996 Q402.2138,171.549 401.5082,171.549 Q399.0014,171.549 397.6815,169.8971 Q396.3617,168.2453 396.3617,165.1242 Q396.3617,161.9948 397.6815,160.3429 Q399.0014,158.6911 401.5082,158.6911 Q402.2138,158.6911 402.8612,158.8405 Q403.5087,158.9899 404.0731,159.2887 L404.0731,162.0114 Q403.4423,161.4304 402.8488,161.1606 Q402.2553,160.8908 401.6244,160.8908 Q400.2797,160.8908 399.5949,161.9575 Q398.9101,163.0241 398.9101,165.1242 Q398.9101,167.216 399.5949,168.2826 Q400.2797,169.3493 401.6244,169.3493 Q402.2553,169.3493 402.8488,169.0795 Q403.4423,168.8097 404.0731,168.2287 Z " fill="#000000"/><text fill="#000000" font-family="sans-serif" font-size="14" lengthAdjust="spacing" textLength="93" x="420.4" y="161.8552">&#171;Middleware&#187;</text><text fill="#000000" font-family="sans-serif" font-size="14" lengthAdjust="spacing" textLength="54" x="439.9" y="178.3434">Security</text><line style="stroke:#181818;stroke-width:0.5;" x1="366" x2="537" y1="186.2966" y2="186.2966"/><line style="stroke:#181818;stroke-width:0.5;" x1="366" x2="537" y1="194.2966" y2="194.2966"/><text fill="#000000" font-family="sans-serif" font-size="14" lengthAdjust="spacing" textLength="105" x="371" y="211.8317">+helmet(): void</text><text fill="#000000" font-family="sans-serif" font-size="14" lengthAdjust="spacing" textLength="81" x="371" y="228.32">+xss(): void</text><text fill="#000000" font-family="sans-serif" font-size="14" lengthAdjust="spacing" textLength="161" x="371" y="244.8083">+mongoSanitize(): void</text><text fill="#000000" font-family="sans-serif" font-size="14" lengthAdjust="spacing" textLength="118" x="371" y="261.2966">+rateLimit(): void</text><text fill="#000000" font-family="sans-serif" font-size="14" lengthAdjust="spacing" textLength="85" x="371" y="277.7848">+hpp(): void</text><text fill="#000000" font-family="sans-serif" font-size="14" lengthAdjust="spacing" textLength="87" x="371" y="294.2731">+cors(): void</text></g><!--class DBUsers--><g id="elem_DBUsers"><rect codeLine="107" fill="#F1F1F1" height="75.4648" id="DBUsers" rx="2.5" ry="2.5" style="stroke:#181818;stroke-width:0.5;" width="115" x="1858" y="523.54"/><ellipse cx="1873" cy="545.0283" fill="#ADD1B2" rx="11" ry="11" style="stroke:#181818;stroke-width:1.0;"/><path d="M1875.4731,551.1713 Q1874.8921,551.4702 1874.2529,551.6196 Q1873.6138,551.769 1872.9082,551.769 Q1870.4014,551.769 1869.0815,550.1171 Q1867.7617,548.4653 1867.7617,545.3442 Q1867.7617,542.2148 1869.0815,540.5629 Q1870.4014,538.9111 1872.9082,538.9111 Q1873.6138,538.9111 1874.2612,539.0605 Q1874.9087,539.2099 1875.4731,539.5087 L1875.4731,542.2314 Q1874.8423,541.6504 1874.2488,541.3806 Q1873.6553,541.1108 1873.0244,541.1108 Q1871.6797,541.1108 1870.9949,542.1775 Q1870.3101,543.2441 1870.3101,545.3442 Q1870.3101,547.436 1870.9949,548.5026 Q1871.6797,549.5693 1873.0244,549.5693 Q1873.6553,549.5693 1874.2488,549.2995 Q1874.8423,549.0297 1875.4731,548.4487 Z " fill="#000000"/><text fill="#000000" font-family="sans-serif" font-size="14" lengthAdjust="spacing" textLength="83" x="1887" y="542.0752">&#171;Collection&#187;</text><text fill="#000000" font-family="sans-serif" font-size="14" lengthAdjust="spacing" textLength="37" x="1910" y="558.5634">users</text><line style="stroke:#181818;stroke-width:0.5;" x1="1859" x2="1972" y1="566.5166" y2="566.5166"/><text fill="#000000" font-family="sans-serif" font-size="14" lengthAdjust="spacing" textLength="95" x="1864" y="584.0517">+UserSchema</text><line style="stroke:#181818;stroke-width:0.5;" x1="1859" x2="1972" y1="591.0048" y2="591.0048"/></g><!--class DBProviders--><g id="elem_DBProviders"><rect codeLine="111" fill="#F1F1F1" height="75.4648" id="DBProviders" rx="2.5" ry="2.5" style="stroke:#181818;stroke-width:0.5;" width="133" x="1849" y="303.54"/><ellipse cx="1872.1" cy="325.0283" fill="#ADD1B2" rx="11" ry="11" style="stroke:#181818;stroke-width:1.0;"/><path d="M1874.5731,331.1713 Q1873.9921,331.4702 1873.3529,331.6196 Q1872.7138,331.769 1872.0082,331.769 Q1869.5014,331.769 1868.1815,330.1171 Q1866.8617,328.4653 1866.8617,325.3442 Q1866.8617,322.2148 1868.1815,320.5629 Q1869.5014,318.9111 1872.0082,318.9111 Q1872.7138,318.9111 1873.3612,319.0605 Q1874.0087,319.2099 1874.5731,319.5087 L1874.5731,322.2314 Q1873.9423,321.6504 1873.3488,321.3806 Q1872.7553,321.1108 1872.1244,321.1108 Q1870.7797,321.1108 1870.0949,322.1775 Q1869.4101,323.2441 1869.4101,325.3442 Q1869.4101,327.436 1870.0949,328.5026 Q1870.7797,329.5693 1872.1244,329.5693 Q1872.7553,329.5693 1873.3488,329.2995 Q1873.9423,329.0297 1874.5731,328.4487 Z " fill="#000000"/><text fill="#000000" font-family="sans-serif" font-size="14" lengthAdjust="spacing" textLength="83" x="1887.9" y="322.0752">&#171;Collection&#187;</text><text fill="#000000" font-family="sans-serif" font-size="14" lengthAdjust="spacing" textLength="65" x="1896.9" y="338.5634">providers</text><line style="stroke:#181818;stroke-width:0.5;" x1="1850" x2="1981" y1="346.5166" y2="346.5166"/><text fill="#000000" font-family="sans-serif" font-size="14" lengthAdjust="spacing" textLength="121" x="1855" y="364.0517">+ProviderSchema</text><line style="stroke:#181818;stroke-width:0.5;" x1="1850" x2="1981" y1="371.0048" y2="371.0048"/></g><!--class DBBookings--><g id="elem_DBBookings"><rect codeLine="115" fill="#F1F1F1" height="75.4648" id="DBBookings" rx="2.5" ry="2.5" style="stroke:#181818;stroke-width:0.5;" width="132" x="1849.5" y="413.54"/><ellipse cx="1872.15" cy="435.0283" fill="#ADD1B2" rx="11" ry="11" style="stroke:#181818;stroke-width:1.0;"/><path d="M1874.6231,441.1713 Q1874.0421,441.4702 1873.4029,441.6196 Q1872.7638,441.769 1872.0582,441.769 Q1869.5514,441.769 1868.2315,440.1171 Q1866.9117,438.4653 1866.9117,435.3442 Q1866.9117,432.2148 1868.2315,430.5629 Q1869.5514,428.9111 1872.0582,428.9111 Q1872.7638,428.9111 1873.4112,429.0605 Q1874.0587,429.2099 1874.6231,429.5087 L1874.6231,432.2314 Q1873.9923,431.6504 1873.3988,431.3806 Q1872.8053,431.1108 1872.1744,431.1108 Q1870.8297,431.1108 1870.1449,432.1775 Q1869.4601,433.2441 1869.4601,435.3442 Q1869.4601,437.436 1870.1449,438.5026 Q1870.8297,439.5693 1872.1744,439.5693 Q1872.8053,439.5693 1873.3988,439.2995 Q1873.9923,439.0297 1874.6231,438.4487 Z " fill="#000000"/><text fill="#000000" font-family="sans-serif" font-size="14" lengthAdjust="spacing" textLength="83" x="1887.85" y="432.0752">&#171;Collection&#187;</text><text fill="#000000" font-family="sans-serif" font-size="14" lengthAdjust="spacing" textLength="64" x="1897.35" y="448.5634">bookings</text><line style="stroke:#181818;stroke-width:0.5;" x1="1850.5" x2="1980.5" y1="456.5166" y2="456.5166"/><text fill="#000000" font-family="sans-serif" font-size="14" lengthAdjust="spacing" textLength="120" x="1855.5" y="474.0517">+BookingSchema</text><line style="stroke:#181818;stroke-width:0.5;" x1="1850.5" x2="1980.5" y1="481.0048" y2="481.0048"/></g><g id="elem_GMN34"><path d="M768.5,1112.69 L768.5,1229.8638 L915.5,1229.8638 L915.5,1122.69 L905.5,1112.69 L768.5,1112.69 " fill="#FEFFDD" style="stroke:#181818;stroke-width:0.5;"/><path d="M905.5,1112.69 L905.5,1122.69 L915.5,1122.69 L905.5,1112.69 " fill="#FEFFDD" style="stroke:#181818;stroke-width:1.0;"/><text fill="#000000" font-family="sans-serif" font-size="13" lengthAdjust="spacing" textLength="105" x="774.5" y="1130.2584">Public endpoints</text><text fill="#000000" font-family="sans-serif" font-size="13" lengthAdjust="spacing" textLength="60" x="774.5" y="1145.5689">- register</text><text fill="#000000" font-family="sans-serif" font-size="13" lengthAdjust="spacing" textLength="44" x="774.5" y="1160.8795">- login</text><text fill="#000000" font-family="sans-serif" font-size="13" lengthAdjust="spacing" textLength="4" x="774.5" y="1176.19">&#160;</text><text fill="#000000" font-family="sans-serif" font-size="13" lengthAdjust="spacing" textLength="126" x="774.5" y="1191.5005">Protected endpoints</text><text fill="#000000" font-family="sans-serif" font-size="13" lengthAdjust="spacing" textLength="50" x="774.5" y="1206.8111">- getMe</text><text fill="#000000" font-family="sans-serif" font-size="13" lengthAdjust="spacing" textLength="53" x="774.5" y="1222.1216">- logout</text></g><g id="elem_GMN37"><path d="M778.5,763.03 L778.5,895.5144 L905.5,895.5144 L905.5,773.03 L895.5,763.03 L778.5,763.03 " fill="#FEFFDD" style="stroke:#181818;stroke-width:0.5;"/><path d="M895.5,763.03 L895.5,773.03 L905.5,773.03 L895.5,763.03 " fill="#FEFFDD" style="stroke:#181818;stroke-width:1.0;"/><text fill="#000000" font-family="sans-serif" font-size="13" lengthAdjust="spacing" textLength="72" x="784.5" y="780.5984">Admin only</text><text fill="#000000" font-family="sans-serif" font-size="13" lengthAdjust="spacing" textLength="101" x="784.5" y="795.9089">- createProvider</text><text fill="#000000" font-family="sans-serif" font-size="13" lengthAdjust="spacing" textLength="106" x="784.5" y="811.2195">- updateProvider</text><text fill="#000000" font-family="sans-serif" font-size="13" lengthAdjust="spacing" textLength="101" x="784.5" y="826.53">- deleteProvider</text><text fill="#000000" font-family="sans-serif" font-size="13" lengthAdjust="spacing" textLength="4" x="784.5" y="841.8405">&#160;</text><text fill="#000000" font-family="sans-serif" font-size="13" lengthAdjust="spacing" textLength="38" x="784.5" y="857.1511">Public</text><text fill="#000000" font-family="sans-serif" font-size="13" lengthAdjust="spacing" textLength="90" x="784.5" y="872.4616">- getProviders</text><text fill="#000000" font-family="sans-serif" font-size="13" lengthAdjust="spacing" textLength="83" x="784.5" y="887.7722">- getProvider</text></g><g id="elem_GMN40"><path d="M773,930.38 L773,1078.1749 L911,1078.1749 L911,940.38 L901,930.38 L773,930.38 " fill="#FEFFDD" style="stroke:#181818;stroke-width:0.5;"/><path d="M901,930.38 L901,940.38 L911,940.38 L901,930.38 " fill="#FEFFDD" style="stroke:#181818;stroke-width:1.0;"/><text fill="#000000" font-family="sans-serif" font-size="13" lengthAdjust="spacing" textLength="86" x="779" y="947.9484">User &amp; Admin</text><text fill="#000000" font-family="sans-serif" font-size="13" lengthAdjust="spacing" textLength="101" x="779" y="963.2589">- createBooking</text><text fill="#000000" font-family="sans-serif" font-size="13" lengthAdjust="spacing" textLength="96" x="779" y="978.5695">- getMyHistory</text><text fill="#000000" font-family="sans-serif" font-size="13" lengthAdjust="spacing" textLength="106" x="779" y="993.88">- updateBooking</text><text fill="#000000" font-family="sans-serif" font-size="13" lengthAdjust="spacing" textLength="101" x="779" y="1009.1905">- deleteBooking</text><text fill="#000000" font-family="sans-serif" font-size="13" lengthAdjust="spacing" textLength="4" x="779" y="1024.5011">&#160;</text><text fill="#000000" font-family="sans-serif" font-size="13" lengthAdjust="spacing" textLength="72" x="779" y="1039.8116">Admin only</text><text fill="#000000" font-family="sans-serif" font-size="13" lengthAdjust="spacing" textLength="117" x="779" y="1055.1222">- getBookings (all)</text><text fill="#000000" font-family="sans-serif" font-size="13" lengthAdjust="spacing" textLength="4" x="779" y="1070.4327">&#160;</text></g><g id="elem_GMN43"><path d="M1078.5,6 L1078.5,92.5527 L1290.5,92.5527 L1290.5,16 L1280.5,6 L1078.5,6 " fill="#FEFFDD" style="stroke:#181818;stroke-width:0.5;"/><path d="M1280.5,6 L1280.5,16 L1290.5,16 L1280.5,6 " fill="#FEFFDD" style="stroke:#181818;stroke-width:1.0;"/><text fill="#000000" font-family="sans-serif" font-size="13" lengthAdjust="spacing" textLength="101" x="1084.5" y="23.5684">Populated fields</text><text fill="#000000" font-family="sans-serif" font-size="13" lengthAdjust="spacing" textLength="127" x="1084.5" y="38.8789">- user (name, email)</text><text fill="#000000" font-family="sans-serif" font-size="13" lengthAdjust="spacing" textLength="191" x="1084.5" y="54.1895">- provider (name, address, tel)</text><text fill="#000000" font-family="sans-serif" font-size="13" lengthAdjust="spacing" textLength="4" x="1084.5" y="69.5">&#160;</text><text fill="#000000" font-family="sans-serif" font-size="13" lengthAdjust="spacing" textLength="189" x="1084.5" y="84.8105">Sorted by: bookingDate (desc)</text></g><!--link EzyCarService to ResourceAuth--><g id="link_EzyCarService_ResourceAuth"><path codeLine="124" d="M150.38,510.63 C159.98,518.66 170.02,526.46 180,533.27 C237.21,572.3 301.715,604.6935 356.155,629.3635 " fill="none" id="EzyCarService-to-ResourceAuth" style="stroke:#181818;stroke-width:1.0;stroke-dasharray:7.0,7.0;"/><polygon fill="#181818" points="361.62,631.84,355.0735,624.4818,357.0658,629.7762,351.7714,631.7686,361.62,631.84" style="stroke:#181818;stroke-width:1.0;"/><text fill="#000000" font-family="sans-serif" font-size="13" lengthAdjust="spacing" textLength="83" x="196.5" y="514.8384">/api/v1/auth</text><text fill="#000000" font-family="sans-serif" font-size="13" lengthAdjust="spacing" textLength="41" x="217.5" y="530.1489">&#171;Path&#187;</text></g><!--link EzyCarService to ResourceProviders--><g id="link_EzyCarService_ResourceProviders"><path codeLine="125" d="M150.32,438.51 C198.51,429.48 260.6826,417.8349 319.8226,406.7549 " fill="none" id="EzyCarService-to-ResourceProviders" style="stroke:#181818;stroke-width:1.0;stroke-dasharray:7.0,7.0;"/><polygon fill="#181818" points="325.72,405.65,316.1373,403.3757,320.8055,406.5707,317.6105,411.2389,325.72,405.65" style="stroke:#181818;stroke-width:1.0;"/><text fill="#000000" font-family="sans-serif" font-size="13" lengthAdjust="spacing" textLength="114" x="181" y="393.7684">/api/v1/providers</text><text fill="#000000" font-family="sans-serif" font-size="13" lengthAdjust="spacing" textLength="41" x="217.5" y="409.0789">&#171;Path&#187;</text></g><!--link EzyCarService to ResourceBookings--><g id="link_EzyCarService_ResourceBookings"><path codeLine="126" d="M150.28,466.62 C160.2,468.99 170.36,471.29 180,473.27 C227.66,483.06 274.4731,491.1065 320.6331,498.3765 " fill="none" id="EzyCarService-to-ResourceBookings" style="stroke:#181818;stroke-width:1.0;stroke-dasharray:7.0,7.0;"/><polygon fill="#181818" points="326.56,499.31,318.2919,493.9585,321.6209,498.5321,317.0473,501.8611,326.56,499.31" style="stroke:#181818;stroke-width:1.0;"/><text fill="#000000" font-family="sans-serif" font-size="13" lengthAdjust="spacing" textLength="114" x="181" y="454.8384">/api/v1/bookings</text><text fill="#000000" font-family="sans-serif" font-size="13" lengthAdjust="spacing" textLength="41" x="217.5" y="470.1489">&#171;Path&#187;</text></g><!--link ResourceAuth to RepresentationUser--><g id="link_ResourceAuth_RepresentationUser"><path codeLine="131" d="M541.4,665.8 C738.4,658.11 1206.5746,639.8341 1439.6246,630.7341 " fill="none" id="ResourceAuth-to-RepresentationUser" style="stroke:#181818;stroke-width:1.0;stroke-dasharray:7.0,7.0;"/><polygon fill="#181818" points="1445.62,630.5,1436.4708,626.8542,1440.6238,630.6951,1436.7829,634.8481,1445.62,630.5" style="stroke:#181818;stroke-width:1.0;"/><text fill="#000000" font-family="sans-serif" font-size="13" lengthAdjust="spacing" textLength="36" x="997" y="643.3384">&#171;use&#187;</text></g><!--link ResourceProviders to ResourceProvider--><g id="link_ResourceProviders_ResourceProvider"><path codeLine="132" d="M577.29,348.87 C622.23,336.84 667.074,324.8312 711.874,312.8412 " fill="none" id="ResourceProviders-to-ResourceProvider" style="stroke:#181818;stroke-width:1.0;stroke-dasharray:7.0,7.0;"/><polygon fill="#181818" points="717.67,311.29,707.9418,309.7528,712.84,312.5827,710.0101,317.4808,717.67,311.29" style="stroke:#181818;stroke-width:1.0;"/><text fill="#000000" font-family="sans-serif" font-size="13" lengthAdjust="spacing" textLength="79" x="608" y="302.5284">/{providerId}</text><text fill="#000000" font-family="sans-serif" font-size="13" lengthAdjust="spacing" textLength="41" x="627" y="317.8389">&#171;Path&#187;</text></g><!--link ResourceProvider to RepresentationProvider--><g id="link_ResourceProvider_RepresentationProvider"><path codeLine="133" d="M966.27,286.64 C1120.14,297.09 1372.4538,314.2133 1499.0338,322.8133 " fill="none" id="ResourceProvider-to-RepresentationProvider" style="stroke:#181818;stroke-width:1.0;stroke-dasharray:7.0,7.0;"/><polygon fill="#181818" points="1505.02,323.22,1496.3118,318.6191,1500.0315,322.8811,1495.7696,326.6007,1505.02,323.22" style="stroke:#181818;stroke-width:1.0;"/><text fill="#000000" font-family="sans-serif" font-size="13" lengthAdjust="spacing" textLength="36" x="1166.5" y="290.0784">&#171;use&#187;</text></g><!--link ResourceBookings to ResourceBooking--><g id="link_ResourceBookings_ResourceBooking"><path codeLine="134" d="M576.16,543.4 C586.56,544.95 596.94,546.28 607,547.27 C643.19,550.83 676.67,552.0117 712.72,552.0617 " fill="none" id="ResourceBookings-to-ResourceBooking" style="stroke:#181818;stroke-width:1.0;stroke-dasharray:7.0,7.0;"/><polygon fill="#181818" points="718.72,552.07,709.7256,548.0575,713.72,552.0631,709.7145,556.0575,718.72,552.07" style="stroke:#181818;stroke-width:1.0;"/><text fill="#000000" font-family="sans-serif" font-size="13" lengthAdjust="spacing" textLength="79" x="608" y="528.8384">/{bookingId}</text><text fill="#000000" font-family="sans-serif" font-size="13" lengthAdjust="spacing" textLength="41" x="627" y="544.1489">&#171;Path&#187;</text></g><!--link ResourceBooking to RepresentationBooking--><g id="link_ResourceBooking_RepresentationBooking"><path codeLine="135" d="M965.45,513.39 C997.38,504.29 1025.9896,496.144 1057.7896,487.084 " fill="none" id="ResourceBooking-to-RepresentationBooking" style="stroke:#181818;stroke-width:1.0;stroke-dasharray:7.0,7.0;"/><polygon fill="#181818" points="1063.56,485.44,1053.8084,484.0591,1058.7514,486.81,1056.0004,491.7529,1063.56,485.44" style="stroke:#181818;stroke-width:1.0;"/><text fill="#000000" font-family="sans-serif" font-size="13" lengthAdjust="spacing" textLength="36" x="997" y="490.5384">&#171;use&#187;</text></g><!--link ResourceProviders to MiddlewareAuth--><g id="link_ResourceProviders_MiddlewareAuth"><path codeLine="140" d="M577.4,409.51 C587.38,411.02 597.34,412.31 607,413.27 C654.2,417.96 701.0114,418.4996 744.5114,417.5596 " fill="none" id="ResourceProviders-to-MiddlewareAuth" style="stroke:#181818;stroke-width:1.0;stroke-dasharray:7.0,7.0;"/><polygon fill="#181818" points="750.51,417.43,741.4257,413.6254,745.5112,417.538,741.5985,421.6235,750.51,417.43" style="stroke:#181818;stroke-width:1.0;"/><text fill="#000000" font-family="sans-serif" font-size="13" lengthAdjust="spacing" textLength="74" x="610.5" y="409.8384">&#171;protected&#187;</text></g><!--link ResourceBookings to MiddlewareAuth--><g id="link_ResourceBookings_MiddlewareAuth"><path codeLine="141" d="M576.49,484.08 C633.12,468.92 693.154,452.8513 744.974,438.9813 " fill="none" id="ResourceBookings-to-MiddlewareAuth" style="stroke:#181818;stroke-width:1.0;stroke-dasharray:7.0,7.0;"/><polygon fill="#181818" points="750.77,437.43,741.0418,435.893,745.94,438.7228,743.1103,443.621,750.77,437.43" style="stroke:#181818;stroke-width:1.0;"/><text fill="#000000" font-family="sans-serif" font-size="13" lengthAdjust="spacing" textLength="74" x="610.5" y="452.5284">&#171;protected&#187;</text></g><!--link EzyCarService to MiddlewareSecurity--><g id="link_EzyCarService_MiddlewareSecurity"><path codeLine="142" d="M150.41,394.47 C160.09,386.7 170.14,379.07 180,372.27 C239.03,331.59 304.7159,295.2973 359.1759,267.2473 " fill="none" id="EzyCarService-to-MiddlewareSecurity" style="stroke:#181818;stroke-width:1.0;stroke-dasharray:7.0,7.0;"/><polygon fill="#181818" points="364.51,264.5,354.6774,265.065,360.065,266.7895,358.3405,272.177,364.51,264.5" style="stroke:#181818;stroke-width:1.0;"/><text fill="#000000" font-family="sans-serif" font-size="13" lengthAdjust="spacing" textLength="43" x="216.5" y="297.9584">&#171;uses&#187;</text></g><!--link RepresentationUser to DBUsers--><g id="link_RepresentationUser_DBUsers"><path codeLine="147" d="M1715.03,599.61 C1764.78,590.05 1812.7481,580.8336 1851.9381,573.2936 " fill="none" id="RepresentationUser-to-DBUsers" style="stroke:#181818;stroke-width:1.0;stroke-dasharray:7.0,7.0;"/><polygon fill="#181818" points="1857.83,572.16,1848.2364,569.9324,1852.92,573.1047,1849.7478,577.7883,1857.83,572.16" style="stroke:#181818;stroke-width:1.0;"/><text fill="#000000" font-family="sans-serif" font-size="13" lengthAdjust="spacing" textLength="70" x="1746" y="576.7484">&#171;stored in&#187;</text></g><!--link RepresentationProvider to DBProviders--><g id="link_RepresentationProvider_DBProviders"><path codeLine="148" d="M1655.82,331.17 C1713.61,333.43 1787.0446,336.2958 1842.5846,338.4658 " fill="none" id="RepresentationProvider-to-DBProviders" style="stroke:#181818;stroke-width:1.0;stroke-dasharray:7.0,7.0;"/><polygon fill="#181818" points="1848.58,338.7,1839.743,334.3517,1843.5838,338.5048,1839.4307,342.3456,1848.58,338.7" style="stroke:#181818;stroke-width:1.0;"/><text fill="#000000" font-family="sans-serif" font-size="13" lengthAdjust="spacing" textLength="70" x="1746" y="331.3384">&#171;stored in&#187;</text></g><!--link RepresentationBooking to DBBookings--><g id="link_RepresentationBooking_DBBookings"><path codeLine="149" d="M1305.47,451.27 C1461.08,451.27 1721.03,451.27 1843.4,451.27 " fill="none" id="RepresentationBooking-to-DBBookings" style="stroke:#181818;stroke-width:1.0;stroke-dasharray:7.0,7.0;"/><polygon fill="#181818" points="1849.4,451.27,1840.4,447.27,1844.4,451.27,1840.4,455.27,1849.4,451.27" style="stroke:#181818;stroke-width:1.0;"/><text fill="#000000" font-family="sans-serif" font-size="13" lengthAdjust="spacing" textLength="70" x="1545.5" y="447.8384">&#171;stored in&#187;</text></g><!--link RepresentationBooking to RepresentationUser--><g id="link_RepresentationBooking_RepresentationUser"><path codeLine="154" d="M1305.32,504.19 C1349.69,523.78 1394.7815,543.6958 1440.3115,563.8058 " fill="none" id="RepresentationBooking-to-RepresentationUser" style="stroke:#181818;stroke-width:1.0;stroke-dasharray:7.0,7.0;"/><polygon fill="#181818" points="1445.8,566.23,1439.1834,558.9347,1441.2263,564.2098,1435.9512,566.2527,1445.8,566.23" style="stroke:#181818;stroke-width:1.0;"/><text fill="#000000" font-family="sans-serif" font-size="13" lengthAdjust="spacing" textLength="79" x="1336" y="514.1384">&#171;references&#187;</text></g><!--link RepresentationBooking to RepresentationProvider--><g id="link_RepresentationBooking_RepresentationProvider"><path codeLine="155" d="M1305.32,413.87 C1370.41,393.55 1443.1226,370.848 1499.4026,353.278 " fill="none" id="RepresentationBooking-to-RepresentationProvider" style="stroke:#181818;stroke-width:1.0;stroke-dasharray:7.0,7.0;"/><polygon fill="#181818" points="1505.13,351.49,1495.3469,350.3538,1500.3572,352.98,1497.7309,357.9903,1505.13,351.49" style="stroke:#181818;stroke-width:1.0;"/><text fill="#000000" font-family="sans-serif" font-size="13" lengthAdjust="spacing" textLength="79" x="1336" y="378.9784">&#171;references&#187;</text></g><!--link ResourceAuth to GMN34--><g id="link_ResourceAuth_GMN34"><path d="M480.29,732.2 C521.95,821.23 607.64,985.34 718,1095.27 C732.67,1109.89 750.66,1122.98 768.31,1134 " fill="none" id="ResourceAuth-GMN34" style="stroke:#181818;stroke-width:1.0;stroke-dasharray:7.0,7.0;"/></g><!--link ResourceProviders to GMN37--><g id="link_ResourceProviders_GMN37"><path d="M560.46,428.72 C566.53,433.74 572.13,439.24 577,445.27 C609.94,486.02 586.82,510.92 607,559.27 C644.37,648.82 651.29,676.81 718,747.27 C735.29,765.54 757.37,781.83 778.04,794.99 " fill="none" id="ResourceProviders-GMN37" style="stroke:#181818;stroke-width:1.0;stroke-dasharray:7.0,7.0;"/></g><!--link ResourceBookings to GMN40--><g id="link_ResourceBookings_GMN40"><path d="M561.31,571.93 C567.09,577.27 572.4,583.05 577,589.27 C612.47,637.33 585.2,664.66 607,720.27 C643.11,812.4 652.17,839.4 718,913.27 C733.82,931.02 753.61,947.48 772.66,961.39 " fill="none" id="ResourceBookings-GMN40" style="stroke:#181818;stroke-width:1.0;stroke-dasharray:7.0,7.0;"/></g><!--link RepresentationBooking to GMN43--><g id="link_RepresentationBooking_GMN43"><path d="M1063.65,389.82 C1044.06,374.29 1026.46,355.66 1015,333.77 C976.04,259.36 972.62,217.3 1015,144.77 C1029.49,119.99 1053.04,101.13 1078.04,87 " fill="none" id="RepresentationBooking-GMN43" style="stroke:#181818;stroke-width:1.0;stroke-dasharray:7.0,7.0;"/></g><!--SRC=[jLXDRnit4BthLn0wD18Ss-rLS0LObj2wY1iXSavDKL3BaSIQIov8oeaIvB-Nv2vtIN6rZgJQ1yEU6Sx7u-EGimnM6cc195rlD29KGgQfuBsUUgAym1BdgC3P4rx3GkyO8Al7VCqWCCWOLkfMQqcNMmttcU0B-XNGpxrUjHJrPrztTrYYIsH_Bq0-qmpGH0ZZOutc3EkLa7aVVUlraFbvWtxzuPzgmMrHC9fXcpkQSIrtQ2uerwUvSmMX_irDu7Ky_iJBAghq-mWh54bC-gZwkO0lXGIb1iD6P73X1htf91Jcb106dx64K2g50T8l_duwA5kz0QuzBXz0YQtCG9s9YlTZ8Ob3E4oysge2I6vkvkyNZ-EngGxML6cGW-48VLGWMqoOM5DkzO_Y2NXWyDlCwTUW7w1bVQKsoms2LlyiA0bH38gm6sHIhtVNkgeA25LM79Hn-Gyb8_H- -Q_PodlIY3dEOOGMvX3mTIE575EMYZKmlirJUM6I-omayHeqs62r0T9Gur8A1erwQvAxnYIdF339960Dv5QFqDJyqIWk6uOP01TqpO7yyLaxZ2rOU-bSv5XdctcLqy0dPmpDoMM0-Pdqd4lnJ8b1zpM8wPshY9ErD29cGwfQR-7m__prTmj3Iv2zIMX-W6vfQgsPlP1O4gZAwgCpt1QaAwdITZfxDtkSMNC236Bp8uxBNXMXkgMMuuuD9iHspzQ3amhR-7uwA_sjz1gah7p7dFJ20pllrOFotDc_EmXPMGJ6xSrpzxjfmKBkKgzTpAqiszBlphuzduYrdPRxd0sCZw1id7weJOiuHDXbQMc9jjzURJDkbg21X5LvGGMzkQYEHcBdpypmjNZzKByqq9t82y5DxUTok_7ftm8EsqQyzmQuCELhKtMqRqw1ZQ6GvjaukBgwidUSwjhQEEu2igsaUhSNsul3-1jWERI4_w9KAim5Nui5vbJRl1ArD7loZkQqnTscA59X9gHg8-m9UsdeW9TO0NeGvZoSk8lru_p1rZcTr5xx0M8rv7U2iN8si91RgfTTR3gn30-RbolM2XVPnhn_QdbLReVN8hgpfvEsszfvzugZ8op31ZoTjBHUvx-I9-xBtoRCKM2_CSs6kJQZDhHGPWhwuDxtntc9Hushgt7qq1wX_ZKkwFNpBzVsA7tYfhjYlHcF-nqBQto3rVKU_9WBZs3WmMCSEZWRC7yPsrarRjr7mXXD9sKb-w_zaUMDORXDF7qujW5eg__caRidtyFIamTU6ZHmamIkATg2kWjRmNqWgh_Oqg2DZphckRlKzDxJzYG6ERv5N9xLzG7a848lBKgPd5uO7XBrVs3Yc-gnY2GZgCsrQhOkGVjy0u8eBx5eVN-NQy9Zthak94lJ7DDLvv_c5KZW6QXpK3bCxVeGopfGTx4Tnp5sSMpbVugZ-pmtIwhFSM8LzNXp_SotIqOp19mKzlEMlValaV-UulvnNqxiFJZtjD-pTfzElAcvXtf6ZMpGte7GDNtCeblxgG49pdREGpm4Er4yWZfHF6RswZ9yEc60IF1YQfwYPg4x8p-L2GQvDQD4MRcVUu9SGvDekkYb1GVp61fWneQz_HoNGckHbqcsqCqMBuejimzxjAB0I5crVL2XWPs6toBtqMZenFvEyQfgC7wBp20yjFajXBIUbgPf1PC96X1GsR39xJy0]--></g></svg>